<ttFont>
    <TTGlyph name=".notdef" xMin="55" yMin="0" xMax="508" yMax="700">
      <contour>
        <pt x="116" y="700" on="1"/>
        <pt x="508" y="700" on="1"/>
        <pt x="447" y="0" on="1"/>
        <pt x="55" y="0" on="1"/>
      </contour>
      <contour>
        <pt x="340" y="102" on="1"/>
        <pt x="384" y="598" on="1"/>
        <pt x="222" y="598" on="1"/>
        <pt x="178" y="102" on="1"/>
      </contour>
    </TTGlyph>
    <TTGlyph name="A" xMin="5" yMin="0" xMax="520" yMax="700">
      <contour>
        <pt x="319" y="612" on="1"/>
        <pt x="227" y="281" on="1"/>
        <pt x="352" y="281" on="1"/>
      </contour>
      <contour>
        <pt x="382" y="0" on="1"/>
        <pt x="364" y="163" on="1"/>
        <pt x="194" y="163" on="1"/>
        <pt x="148" y="0" on="1"/>
        <pt x="5" y="0" on="1"/>
        <pt x="224" y="700" on="1"/>
        <pt x="426" y="700" on="1"/>
        <pt x="520" y="0" on="1"/>
      </contour>
    </TTGlyph>
    <TTGlyph name="AE" xMin="5" yMin="0" xMax="762" yMax="700">
      <contour>
        <pt x="377" y="0" on="1"/>
        <pt x="372" y="163" on="1"/>
        <pt x="208" y="163" on="1"/>
        <pt x="148" y="0" on="1"/>
        <pt x="5" y="0" on="1"/>
        <pt x="276" y="700" on="1"/>
        <pt x="762" y="700" on="1"/>
        <pt x="752" y="592" on="1"/>
        <pt x="485" y="592" on="1"/>
        <pt x="496" y="415" on="1"/>
        <pt x="729" y="415" on="1"/>
        <pt x="719" y="308" on="1"/>
        <pt x="502" y="308" on="1"/>
        <pt x="515" y="108" on="1"/>
        <pt x="730" y="108" on="1"/>
        <pt x="721" y="0" on="1"/>
      </contour>
      <contour>
        <pt x="250" y="281" on="1"/>
        <pt x="368" y="281" on="1"/>
        <pt x="359" y="580" on="1"/>
      </contour>
    </TTGlyph>
    <TTGlyph name="Aacute" xMin="5" yMin="0" xMax="520" yMax="841">
      <contour>
        <pt x="217" y="726" on="1"/>
        <pt x="331" y="841" on="1"/>
        <pt x="492" y="841" on="1"/>
        <pt x="335" y="726" on="1"/>
      </contour>
      <contour>
        <pt x="319" y="612" on="1"/>
        <pt x="227" y="281" on="1"/>
        <pt x="352" y="281" on="1"/>
      </contour>
      <contour>
        <pt x="382" y="0" on="1"/>
        <pt x="364" y="163" on="1"/>
        <pt x="194" y="163" on="1"/>
        <pt x="148" y="0" on="1"/>
        <pt x="5" y="0" on="1"/>
        <pt x="224" y="700" on="1"/>
        <pt x="426" y="700" on="1"/>
        <pt x="520" y="0" on="1"/>
      </contour>
    </TTGlyph>
    <TTGlyph name="Acircumflex" xMin="5" yMin="0" xMax="520" yMax="845">
      <contour>
        <pt x="374" y="730" on="1"/>
        <pt x="340" y="791" on="1"/>
        <pt x="294" y="730" on="1"/>
        <pt x="146" y="730" on="1"/>
        <pt x="266" y="845" on="1"/>
        <pt x="418" y="845" on="1"/>
        <pt x="519" y="730" on="1"/>
      </contour>
      <contour>
        <pt x="319" y="612" on="1"/>
        <pt x="227" y="281" on="1"/>
        <pt x="352" y="281" on="1"/>
      </contour>
      <contour>
        <pt x="382" y="0" on="1"/>
        <pt x="364" y="163" on="1"/>
        <pt x="194" y="163" on="1"/>
        <pt x="148" y="0" on="1"/>
        <pt x="5" y="0" on="1"/>
        <pt x="224" y="700" on="1"/>
        <pt x="426" y="700" on="1"/>
        <pt x="520" y="0" on="1"/>
      </contour>
    </TTGlyph>
    <TTGlyph name="Adieresis" xMin="5" yMin="0" xMax="520" yMax="845">
      <contour>
        <pt x="319" y="612" on="1"/>
        <pt x="227" y="281" on="1"/>
        <pt x="352" y="281" on="1"/>
      </contour>
      <contour>
        <pt x="382" y="0" on="1"/>
        <pt x="364" y="163" on="1"/>
        <pt x="194" y="163" on="1"/>
        <pt x="148" y="0" on="1"/>
        <pt x="5" y="0" on="1"/>
        <pt x="224" y="700" on="1"/>
        <pt x="426" y="700" on="1"/>
        <pt x="520" y="0" on="1"/>
      </contour>
      <contour>
        <pt x="359" y="730" on="1"/>
        <pt x="370" y="845" on="1"/>
        <pt x="500" y="845" on="1"/>
        <pt x="489" y="730" on="1"/>
      </contour>
      <contour>
        <pt x="159" y="730" on="1"/>
        <pt x="170" y="845" on="1"/>
        <pt x="300" y="845" on="1"/>
        <pt x="289" y="730" on="1"/>
      </contour>
    </TTGlyph>
    <TTGlyph name="Agrave" xMin="5" yMin="0" xMax="520" yMax="841">
      <contour>
        <pt x="305" y="726" on="1"/>
        <pt x="158" y="841" on="1"/>
        <pt x="319" y="841" on="1"/>
        <pt x="413" y="726" on="1"/>
      </contour>
      <contour>
        <pt x="319" y="612" on="1"/>
        <pt x="227" y="281" on="1"/>
        <pt x="352" y="281" on="1"/>
      </contour>
      <contour>
        <pt x="382" y="0" on="1"/>
        <pt x="364" y="163" on="1"/>
        <pt x="194" y="163" on="1"/>
        <pt x="148" y="0" on="1"/>
        <pt x="5" y="0" on="1"/>
        <pt x="224" y="700" on="1"/>
        <pt x="426" y="700" on="1"/>
        <pt x="520" y="0" on="1"/>
      </contour>
    </TTGlyph>
    <TTGlyph name="Aring" xMin="5" yMin="0" xMax="520" yMax="885">
      <contour>
        <pt x="448" y="763" on="1"/>
        <pt x="446" y="741" on="0"/>
        <pt x="436" y="704" on="0"/>
        <pt x="427" y="690" on="1"/>
        <pt x="520" y="0" on="1"/>
        <pt x="382" y="0" on="1"/>
        <pt x="364" y="163" on="1"/>
        <pt x="194" y="163" on="1"/>
        <pt x="148" y="0" on="1"/>
        <pt x="5" y="0" on="1"/>
        <pt x="223" y="697" on="1"/>
        <pt x="215" y="719" on="0"/>
        <pt x="215" y="745" on="1"/>
        <pt x="215" y="811" on="0"/>
        <pt x="275" y="885" on="0"/>
        <pt x="343" y="885" on="1"/>
        <pt x="394" y="885" on="0"/>
        <pt x="449" y="831" on="0"/>
        <pt x="449" y="781" on="1"/>
        <pt x="449" y="776" on="0"/>
        <pt x="449" y="768" on="0"/>
      </contour>
      <contour>
        <pt x="319" y="612" on="1"/>
        <pt x="227" y="281" on="1"/>
        <pt x="352" y="281" on="1"/>
      </contour>
      <contour>
        <pt x="360" y="764" on="1"/>
        <pt x="361" y="769" on="0"/>
        <pt x="361" y="778" on="0"/>
        <pt x="361" y="782" on="1"/>
        <pt x="361" y="798" on="0"/>
        <pt x="350" y="813" on="0"/>
        <pt x="336" y="813" on="1"/>
        <pt x="316" y="813" on="0"/>
        <pt x="303" y="780" on="0"/>
        <pt x="303" y="746" on="1"/>
        <pt x="303" y="730" on="0"/>
        <pt x="314" y="715" on="0"/>
        <pt x="328" y="715" on="1"/>
        <pt x="345" y="715" on="0"/>
        <pt x="358" y="739" on="0"/>
      </contour>
    </TTGlyph>
    <TTGlyph name="Atilde" xMin="5" yMin="0" xMax="520" yMax="860">
      <contour>
        <pt x="319" y="612" on="1"/>
        <pt x="227" y="281" on="1"/>
        <pt x="352" y="281" on="1"/>
      </contour>
      <contour>
        <pt x="382" y="0" on="1"/>
        <pt x="364" y="163" on="1"/>
        <pt x="194" y="163" on="1"/>
        <pt x="148" y="0" on="1"/>
        <pt x="5" y="0" on="1"/>
        <pt x="224" y="700" on="1"/>
        <pt x="426" y="700" on="1"/>
        <pt x="520" y="0" on="1"/>
      </contour>
      <contour>
        <pt x="176" y="828" on="1"/>
        <pt x="200" y="847" on="0"/>
        <pt x="254" y="860" on="0"/>
        <pt x="274" y="860" on="1"/>
        <pt x="292" y="860" on="0"/>
        <pt x="329" y="848" on="0"/>
        <pt x="366" y="833" on="0"/>
        <pt x="400" y="821" on="0"/>
        <pt x="415" y="821" on="1"/>
        <pt x="441" y="821" on="0"/>
        <pt x="487" y="840" on="0"/>
        <pt x="508" y="857" on="1"/>
        <pt x="499" y="752" on="1"/>
        <pt x="478" y="733" on="0"/>
        <pt x="426" y="720" on="0"/>
        <pt x="400" y="720" on="1"/>
        <pt x="381" y="720" on="0"/>
        <pt x="345" y="732" on="0"/>
        <pt x="310" y="747" on="0"/>
        <pt x="276" y="759" on="0"/>
        <pt x="260" y="759" on="1"/>
        <pt x="234" y="759" on="0"/>
        <pt x="184" y="737" on="0"/>
        <pt x="167" y="723" on="1"/>
      </contour>
    </TTGlyph>
    <TTGlyph name="B" xMin="60" yMin="-9" xMax="509" yMax="709">
      <contour>
        <pt x="362" y="231" on="1"/>
        <pt x="362" y="254" on="0"/>
        <pt x="349" y="285" on="0"/>
        <pt x="328" y="304" on="0"/>
        <pt x="300" y="312" on="0"/>
        <pt x="284" y="312" on="1"/>
        <pt x="224" y="312" on="1"/>
        <pt x="206" y="114" on="1"/>
        <pt x="217" y="114" on="0"/>
        <pt x="229" y="113" on="1"/>
        <pt x="240" y="112" on="0"/>
        <pt x="265" y="111" on="0"/>
        <pt x="279" y="111" on="1"/>
        <pt x="302" y="111" on="0"/>
        <pt x="334" y="130" on="0"/>
        <pt x="353" y="162" on="0"/>
        <pt x="362" y="206" on="0"/>
      </contour>
      <contour>
        <pt x="373" y="522" on="1"/>
        <pt x="373" y="554" on="0"/>
        <pt x="343" y="590" on="0"/>
        <pt x="315" y="590" on="1"/>
        <pt x="303" y="590" on="0"/>
        <pt x="279" y="589" on="0"/>
        <pt x="269" y="588" on="1"/>
        <pt x="258" y="587" on="0"/>
        <pt x="248" y="586" on="1"/>
        <pt x="234" y="424" on="1"/>
        <pt x="288" y="424" on="1"/>
        <pt x="336" y="424" on="0"/>
        <pt x="371" y="475" on="0"/>
      </contour>
      <contour>
        <pt x="499" y="206" on="1"/>
        <pt x="493" y="142" on="0"/>
        <pt x="457" y="59" on="0"/>
        <pt x="397" y="10" on="0"/>
        <pt x="312" y="-9" on="0"/>
        <pt x="257" y="-9" on="1"/>
        <pt x="225" y="-9" on="0"/>
        <pt x="156" y="-7" on="0"/>
        <pt x="127" y="-5" on="1"/>
        <pt x="93" y="-3" on="0"/>
        <pt x="60" y="0" on="1"/>
        <pt x="121" y="700" on="1"/>
        <pt x="155" y="703" on="0"/>
        <pt x="188" y="705" on="1"/>
        <pt x="217" y="707" on="0"/>
        <pt x="279" y="709" on="0"/>
        <pt x="304" y="709" on="1"/>
        <pt x="410" y="709" on="0"/>
        <pt x="509" y="634" on="0"/>
        <pt x="509" y="549" on="1"/>
        <pt x="509" y="503" on="0"/>
        <pt x="493" y="441" on="0"/>
        <pt x="465" y="401" on="0"/>
        <pt x="428" y="381" on="0"/>
        <pt x="406" y="377" on="1"/>
        <pt x="448" y="370" on="0"/>
        <pt x="501" y="300" on="0"/>
        <pt x="501" y="240" on="1"/>
        <pt x="501" y="234" on="0"/>
        <pt x="500" y="213" on="0"/>
      </contour>
    </TTGlyph>
    <TTGlyph name="C" xMin="66" yMin="-7" xMax="443" yMax="707">
      <contour>
        <pt x="383" y="7" on="1"/>
        <pt x="375" y="5" on="0"/>
        <pt x="344" y="0" on="0"/>
        <pt x="308" y="-4" on="0"/>
        <pt x="273" y="-7" on="0"/>
        <pt x="261" y="-7" on="1"/>
        <pt x="215" y="-7" on="0"/>
        <pt x="142" y="14" on="0"/>
        <pt x="92" y="71" on="0"/>
        <pt x="66" y="171" on="0"/>
        <pt x="66" y="249" on="1"/>
        <pt x="66" y="274" on="0"/>
        <pt x="68" y="329" on="0"/>
        <pt x="71" y="361" on="1"/>
        <pt x="81" y="475" on="0"/>
        <pt x="121" y="612" on="0"/>
        <pt x="184" y="684" on="0"/>
        <pt x="275" y="707" on="0"/>
        <pt x="336" y="707" on="1"/>
        <pt x="346" y="707" on="0"/>
        <pt x="378" y="704" on="0"/>
        <pt x="411" y="700" on="0"/>
        <pt x="438" y="695" on="0"/>
        <pt x="443" y="693" on="1"/>
        <pt x="433" y="571" on="1"/>
        <pt x="408" y="578" on="0"/>
        <pt x="340" y="587" on="0"/>
        <pt x="313" y="587" on="1"/>
        <pt x="292" y="587" on="0"/>
        <pt x="259" y="572" on="0"/>
        <pt x="234" y="524" on="0"/>
        <pt x="216" y="432" on="0"/>
        <pt x="209" y="354" on="1"/>
        <pt x="208" y="347" on="0"/>
        <pt x="206" y="311" on="0"/>
        <pt x="204" y="271" on="0"/>
        <pt x="203" y="238" on="0"/>
        <pt x="203" y="233" on="1"/>
        <pt x="203" y="195" on="0"/>
        <pt x="211" y="148" on="0"/>
        <pt x="228" y="122" on="0"/>
        <pt x="254" y="113" on="0"/>
        <pt x="271" y="113" on="1"/>
        <pt x="286" y="113" on="0"/>
        <pt x="321" y="116" on="0"/>
        <pt x="355" y="121" on="0"/>
        <pt x="384" y="126" on="0"/>
        <pt x="394" y="128" on="1"/>
      </contour>
    </TTGlyph>
    <TTGlyph name="Ccedilla" xMin="66" yMin="-222" xMax="443" yMax="707">
      <contour>
        <pt x="159" y="-127" on="1"/>
        <pt x="173" y="-129" on="0"/>
        <pt x="202" y="-132" on="0"/>
        <pt x="213" y="-132" on="1"/>
        <pt x="235" y="-132" on="0"/>
        <pt x="255" y="-123" on="0"/>
        <pt x="255" y="-109" on="1"/>
        <pt x="255" y="-103" on="0"/>
        <pt x="248" y="-94" on="0"/>
        <pt x="230" y="-88" on="0"/>
        <pt x="199" y="-86" on="0"/>
        <pt x="174" y="-86" on="1"/>
        <pt x="195" y="-1" on="1"/>
        <pt x="164" y="6" on="0"/>
        <pt x="116" y="38" on="0"/>
        <pt x="83" y="97" on="0"/>
        <pt x="66" y="186" on="0"/>
        <pt x="66" y="249" on="1"/>
        <pt x="66" y="274" on="0"/>
        <pt x="68" y="329" on="0"/>
        <pt x="71" y="361" on="1"/>
        <pt x="81" y="475" on="0"/>
        <pt x="121" y="612" on="0"/>
        <pt x="184" y="684" on="0"/>
        <pt x="275" y="707" on="0"/>
        <pt x="336" y="707" on="1"/>
        <pt x="346" y="707" on="0"/>
        <pt x="378" y="704" on="0"/>
        <pt x="411" y="700" on="0"/>
        <pt x="438" y="695" on="0"/>
        <pt x="443" y="693" on="1"/>
        <pt x="433" y="571" on="1"/>
        <pt x="408" y="578" on="0"/>
        <pt x="340" y="587" on="0"/>
        <pt x="313" y="587" on="1"/>
        <pt x="292" y="587" on="0"/>
        <pt x="259" y="572" on="0"/>
        <pt x="234" y="524" on="0"/>
        <pt x="216" y="432" on="0"/>
        <pt x="209" y="354" on="1"/>
        <pt x="208" y="347" on="0"/>
        <pt x="206" y="311" on="0"/>
        <pt x="204" y="271" on="0"/>
        <pt x="203" y="238" on="0"/>
        <pt x="203" y="233" on="1"/>
        <pt x="203" y="195" on="0"/>
        <pt x="211" y="148" on="0"/>
        <pt x="228" y="122" on="0"/>
        <pt x="254" y="113" on="0"/>
        <pt x="271" y="113" on="1"/>
        <pt x="286" y="113" on="0"/>
        <pt x="321" y="116" on="0"/>
        <pt x="355" y="121" on="0"/>
        <pt x="384" y="126" on="0"/>
        <pt x="394" y="128" on="1"/>
        <pt x="383" y="7" on="1"/>
        <pt x="370" y="3" on="0"/>
        <pt x="316" y="-4" on="0"/>
        <pt x="290" y="-6" on="1"/>
        <pt x="287" y="-19" on="1"/>
        <pt x="329" y="-24" on="0"/>
        <pt x="366" y="-70" on="0"/>
        <pt x="366" y="-103" on="1"/>
        <pt x="366" y="-154" on="0"/>
        <pt x="301" y="-222" on="0"/>
        <pt x="227" y="-222" on="1"/>
        <pt x="210" y="-222" on="0"/>
        <pt x="166" y="-217" on="0"/>
        <pt x="152" y="-214" on="1"/>
      </contour>
    </TTGlyph>
    <TTGlyph name="D" xMin="60" yMin="-10" xMax="521" yMax="710">
      <contour>
        <pt x="377" y="354" on="1"/>
        <pt x="383" y="425" on="0"/>
        <pt x="383" y="468" on="1"/>
        <pt x="383" y="509" on="0"/>
        <pt x="373" y="557" on="0"/>
        <pt x="355" y="582" on="0"/>
        <pt x="328" y="589" on="0"/>
        <pt x="310" y="589" on="1"/>
        <pt x="296" y="589" on="0"/>
        <pt x="273" y="588" on="0"/>
        <pt x="265" y="587" on="1"/>
        <pt x="255" y="586" on="0"/>
        <pt x="248" y="585" on="1"/>
        <pt x="207" y="115" on="1"/>
        <pt x="212" y="114" on="0"/>
        <pt x="221" y="113" on="1"/>
        <pt x="229" y="112" on="0"/>
        <pt x="251" y="111" on="0"/>
        <pt x="267" y="111" on="1"/>
        <pt x="290" y="111" on="0"/>
        <pt x="326" y="133" on="0"/>
        <pt x="353" y="188" on="0"/>
        <pt x="371" y="282" on="0"/>
      </contour>
      <contour>
        <pt x="517" y="361" on="1"/>
        <pt x="507" y="249" on="0"/>
        <pt x="467" y="105" on="0"/>
        <pt x="402" y="22" on="0"/>
        <pt x="310" y="-10" on="0"/>
        <pt x="248" y="-10" on="1"/>
        <pt x="222" y="-10" on="0"/>
        <pt x="156" y="-7" on="0"/>
        <pt x="127" y="-5" on="1"/>
        <pt x="94" y="-2" on="0"/>
        <pt x="60" y="0" on="1"/>
        <pt x="121" y="700" on="1"/>
        <pt x="156" y="702" on="0"/>
        <pt x="189" y="705" on="1"/>
        <pt x="218" y="707" on="0"/>
        <pt x="278" y="710" on="0"/>
        <pt x="299" y="710" on="1"/>
        <pt x="349" y="710" on="0"/>
        <pt x="431" y="690" on="0"/>
        <pt x="489" y="634" on="0"/>
        <pt x="521" y="533" on="0"/>
        <pt x="521" y="452" on="1"/>
        <pt x="521" y="432" on="0"/>
        <pt x="519" y="386" on="0"/>
      </contour>
    </TTGlyph>
    <TTGlyph name="Delta" xMin="5" yMin="0" xMax="515" yMax="700">
      <contour>
        <pt x="5" y="0" on="1"/>
        <pt x="227" y="700" on="1"/>
        <pt x="422" y="700" on="1"/>
        <pt x="515" y="0" on="1"/>
      </contour>
      <contour>
        <pt x="317" y="594" on="1"/>
        <pt x="178" y="113" on="1"/>
        <pt x="366" y="113" on="1"/>
      </contour>
    </TTGlyph>
    <TTGlyph name="E" xMin="60" yMin="0" xMax="479" yMax="700">
      <contour>
        <pt x="60" y="0" on="1"/>
        <pt x="121" y="700" on="1"/>
        <pt x="479" y="700" on="1"/>
        <pt x="469" y="592" on="1"/>
        <pt x="248" y="592" on="1"/>
        <pt x="233" y="415" on="1"/>
        <pt x="429" y="415" on="1"/>
        <pt x="419" y="308" on="1"/>
        <pt x="223" y="308" on="1"/>
        <pt x="206" y="108" on="1"/>
        <pt x="427" y="108" on="1"/>
        <pt x="418" y="0" on="1"/>
      </contour>
    </TTGlyph>
    <TTGlyph name="Eacute" xMin="60" yMin="0" xMax="479" yMax="841">
      <contour>
        <pt x="202" y="726" on="1"/>
        <pt x="316" y="841" on="1"/>
        <pt x="477" y="841" on="1"/>
        <pt x="320" y="726" on="1"/>
      </contour>
      <contour>
        <pt x="60" y="0" on="1"/>
        <pt x="121" y="700" on="1"/>
        <pt x="479" y="700" on="1"/>
        <pt x="469" y="592" on="1"/>
        <pt x="248" y="592" on="1"/>
        <pt x="233" y="415" on="1"/>
        <pt x="429" y="415" on="1"/>
        <pt x="419" y="308" on="1"/>
        <pt x="223" y="308" on="1"/>
        <pt x="206" y="108" on="1"/>
        <pt x="427" y="108" on="1"/>
        <pt x="418" y="0" on="1"/>
      </contour>
    </TTGlyph>
    <TTGlyph name="Ecircumflex" xMin="60" yMin="0" xMax="489" yMax="845">
      <contour>
        <pt x="344" y="730" on="1"/>
        <pt x="310" y="791" on="1"/>
        <pt x="264" y="730" on="1"/>
        <pt x="116" y="730" on="1"/>
        <pt x="236" y="845" on="1"/>
        <pt x="388" y="845" on="1"/>
        <pt x="489" y="730" on="1"/>
      </contour>
      <contour>
        <pt x="60" y="0" on="1"/>
        <pt x="121" y="700" on="1"/>
        <pt x="479" y="700" on="1"/>
        <pt x="469" y="592" on="1"/>
        <pt x="248" y="592" on="1"/>
        <pt x="233" y="415" on="1"/>
        <pt x="429" y="415" on="1"/>
        <pt x="419" y="308" on="1"/>
        <pt x="223" y="308" on="1"/>
        <pt x="206" y="108" on="1"/>
        <pt x="427" y="108" on="1"/>
        <pt x="418" y="0" on="1"/>
      </contour>
    </TTGlyph>
    <TTGlyph name="Edieresis" xMin="60" yMin="0" xMax="479" yMax="835">
      <contour>
        <pt x="60" y="0" on="1"/>
        <pt x="121" y="700" on="1"/>
        <pt x="479" y="700" on="1"/>
        <pt x="469" y="592" on="1"/>
        <pt x="248" y="592" on="1"/>
        <pt x="233" y="415" on="1"/>
        <pt x="429" y="415" on="1"/>
        <pt x="419" y="308" on="1"/>
        <pt x="223" y="308" on="1"/>
        <pt x="206" y="108" on="1"/>
        <pt x="427" y="108" on="1"/>
        <pt x="418" y="0" on="1"/>
      </contour>
      <contour>
        <pt x="333" y="720" on="1"/>
        <pt x="344" y="835" on="1"/>
        <pt x="474" y="835" on="1"/>
        <pt x="463" y="720" on="1"/>
      </contour>
      <contour>
        <pt x="133" y="720" on="1"/>
        <pt x="144" y="835" on="1"/>
        <pt x="274" y="835" on="1"/>
        <pt x="263" y="720" on="1"/>
      </contour>
    </TTGlyph>
    <TTGlyph name="Egrave" xMin="60" yMin="0" xMax="479" yMax="841">
      <contour>
        <pt x="307" y="726" on="1"/>
        <pt x="160" y="841" on="1"/>
        <pt x="321" y="841" on="1"/>
        <pt x="415" y="726" on="1"/>
      </contour>
      <contour>
        <pt x="60" y="0" on="1"/>
        <pt x="121" y="700" on="1"/>
        <pt x="479" y="700" on="1"/>
        <pt x="469" y="592" on="1"/>
        <pt x="248" y="592" on="1"/>
        <pt x="233" y="415" on="1"/>
        <pt x="429" y="415" on="1"/>
        <pt x="419" y="308" on="1"/>
        <pt x="223" y="308" on="1"/>
        <pt x="206" y="108" on="1"/>
        <pt x="427" y="108" on="1"/>
        <pt x="418" y="0" on="1"/>
      </contour>
    </TTGlyph>
    <TTGlyph name="Eth" xMin="48" yMin="-10" xMax="521" yMax="710">
      <contour>
        <pt x="517" y="361" on="1"/>
        <pt x="507" y="249" on="0"/>
        <pt x="467" y="105" on="0"/>
        <pt x="402" y="22" on="0"/>
        <pt x="310" y="-10" on="0"/>
        <pt x="248" y="-10" on="1"/>
        <pt x="222" y="-10" on="0"/>
        <pt x="156" y="-7" on="0"/>
        <pt x="127" y="-5" on="1"/>
        <pt x="94" y="-2" on="0"/>
        <pt x="60" y="0" on="1"/>
        <pt x="88" y="325" on="1"/>
        <pt x="48" y="325" on="1"/>
        <pt x="58" y="440" on="1"/>
        <pt x="98" y="440" on="1"/>
        <pt x="121" y="700" on="1"/>
        <pt x="156" y="702" on="0"/>
        <pt x="189" y="705" on="1"/>
        <pt x="218" y="707" on="0"/>
        <pt x="278" y="710" on="0"/>
        <pt x="299" y="710" on="1"/>
        <pt x="349" y="710" on="0"/>
        <pt x="431" y="690" on="0"/>
        <pt x="489" y="634" on="0"/>
        <pt x="521" y="533" on="0"/>
        <pt x="521" y="452" on="1"/>
        <pt x="521" y="432" on="0"/>
        <pt x="519" y="386" on="0"/>
      </contour>
      <contour>
        <pt x="377" y="354" on="1"/>
        <pt x="383" y="425" on="0"/>
        <pt x="383" y="468" on="1"/>
        <pt x="383" y="509" on="0"/>
        <pt x="373" y="557" on="0"/>
        <pt x="355" y="582" on="0"/>
        <pt x="328" y="589" on="0"/>
        <pt x="310" y="589" on="1"/>
        <pt x="296" y="589" on="0"/>
        <pt x="273" y="588" on="0"/>
        <pt x="265" y="587" on="1"/>
        <pt x="255" y="586" on="0"/>
        <pt x="248" y="585" on="1"/>
        <pt x="235" y="440" on="1"/>
        <pt x="333" y="440" on="1"/>
        <pt x="323" y="325" on="1"/>
        <pt x="225" y="325" on="1"/>
        <pt x="207" y="115" on="1"/>
        <pt x="212" y="114" on="0"/>
        <pt x="221" y="113" on="1"/>
        <pt x="229" y="112" on="0"/>
        <pt x="251" y="111" on="0"/>
        <pt x="267" y="111" on="1"/>
        <pt x="290" y="111" on="0"/>
        <pt x="326" y="133" on="0"/>
        <pt x="353" y="188" on="0"/>
        <pt x="371" y="282" on="0"/>
      </contour>
    </TTGlyph>
    <TTGlyph name="Euro" xMin="35" yMin="-9" xMax="477" yMax="709">
      <contour>
        <pt x="417" y="4" on="1"/>
        <pt x="409" y="2" on="0"/>
        <pt x="380" y="-3" on="0"/>
        <pt x="348" y="-7" on="0"/>
        <pt x="315" y="-9" on="0"/>
        <pt x="303" y="-9" on="1"/>
        <pt x="258" y="-9" on="0"/>
        <pt x="188" y="12" on="0"/>
        <pt x="140" y="66" on="0"/>
        <pt x="114" y="159" on="0"/>
        <pt x="113" y="232" on="1"/>
        <pt x="35" y="232" on="1"/>
        <pt x="63" y="325" on="1"/>
        <pt x="116" y="325" on="1"/>
        <pt x="118" y="340" on="0"/>
        <pt x="120" y="375" on="0"/>
        <pt x="122" y="392" on="1"/>
        <pt x="49" y="392" on="1"/>
        <pt x="77" y="485" on="1"/>
        <pt x="134" y="485" on="1"/>
        <pt x="146" y="557" on="0"/>
        <pt x="184" y="645" on="0"/>
        <pt x="240" y="693" on="0"/>
        <pt x="317" y="709" on="0"/>
        <pt x="369" y="709" on="1"/>
        <pt x="379" y="709" on="0"/>
        <pt x="411" y="706" on="0"/>
        <pt x="444" y="702" on="0"/>
        <pt x="472" y="697" on="0"/>
        <pt x="477" y="695" on="1"/>
        <pt x="443" y="579" on="1"/>
        <pt x="421" y="584" on="0"/>
        <pt x="377" y="589" on="0"/>
        <pt x="345" y="589" on="1"/>
        <pt x="330" y="589" on="0"/>
        <pt x="308" y="582" on="0"/>
        <pt x="290" y="559" on="0"/>
        <pt x="276" y="518" on="0"/>
        <pt x="270" y="485" on="1"/>
        <pt x="419" y="485" on="1"/>
        <pt x="392" y="392" on="1"/>
        <pt x="259" y="392" on="1"/>
        <pt x="258" y="384" on="0"/>
        <pt x="257" y="372" on="0"/>
        <pt x="256" y="358" on="0"/>
        <pt x="254" y="340" on="0"/>
        <pt x="253" y="325" on="1"/>
        <pt x="373" y="325" on="1"/>
        <pt x="347" y="232" on="1"/>
        <pt x="249" y="232" on="1"/>
        <pt x="249" y="195" on="0"/>
        <pt x="257" y="147" on="0"/>
        <pt x="273" y="121" on="0"/>
        <pt x="297" y="111" on="0"/>
        <pt x="313" y="111" on="1"/>
        <pt x="344" y="111" on="0"/>
        <pt x="408" y="121" on="0"/>
        <pt x="428" y="126" on="1"/>
      </contour>
    </TTGlyph>
    <TTGlyph name="F" xMin="75" yMin="0" xMax="494" yMax="700">
      <contour>
        <pt x="263" y="592" on="1"/>
        <pt x="247" y="405" on="1"/>
        <pt x="443" y="405" on="1"/>
        <pt x="433" y="297" on="1"/>
        <pt x="237" y="297" on="1"/>
        <pt x="212" y="0" on="1"/>
        <pt x="75" y="0" on="1"/>
        <pt x="136" y="700" on="1"/>
        <pt x="494" y="700" on="1"/>
        <pt x="484" y="592" on="1"/>
      </contour>
    </TTGlyph>
    <TTGlyph name="G" xMin="66" yMin="-9" xMax="484" yMax="709">
      <contour>
        <pt x="445" y="9" on="1"/>
        <pt x="404" y="1" on="0"/>
        <pt x="313" y="-9" on="0"/>
        <pt x="272" y="-9" on="1"/>
        <pt x="221" y="-9" on="0"/>
        <pt x="143" y="14" on="0"/>
        <pt x="92" y="73" on="0"/>
        <pt x="66" y="173" on="0"/>
        <pt x="66" y="250" on="1"/>
        <pt x="66" y="275" on="0"/>
        <pt x="68" y="330" on="0"/>
        <pt x="71" y="361" on="1"/>
        <pt x="81" y="472" on="0"/>
        <pt x="124" y="608" on="0"/>
        <pt x="194" y="683" on="0"/>
        <pt x="293" y="709" on="0"/>
        <pt x="359" y="709" on="1"/>
        <pt x="384" y="709" on="0"/>
        <pt x="454" y="702" on="0"/>
        <pt x="484" y="695" on="1"/>
        <pt x="474" y="575" on="1"/>
        <pt x="442" y="582" on="0"/>
        <pt x="370" y="589" on="0"/>
        <pt x="338" y="589" on="1"/>
        <pt x="307" y="589" on="0"/>
        <pt x="263" y="571" on="0"/>
        <pt x="234" y="520" on="0"/>
        <pt x="216" y="428" on="0"/>
        <pt x="209" y="354" on="1"/>
        <pt x="203" y="284" on="0"/>
        <pt x="203" y="237" on="1"/>
        <pt x="203" y="199" on="0"/>
        <pt x="212" y="150" on="0"/>
        <pt x="230" y="122" on="0"/>
        <pt x="259" y="111" on="0"/>
        <pt x="279" y="111" on="1"/>
        <pt x="290" y="111" on="0"/>
        <pt x="311" y="111" on="0"/>
        <pt x="321" y="112" on="1"/>
        <pt x="335" y="270" on="1"/>
        <pt x="271" y="270" on="1"/>
        <pt x="281" y="388" on="1"/>
        <pt x="478" y="388" on="1"/>
      </contour>
    </TTGlyph>
    <TTGlyph name="H" xMin="60" yMin="0" xMax="551" yMax="700">
      <contour>
        <pt x="353" y="0" on="1"/>
        <pt x="378" y="297" on="1"/>
        <pt x="222" y="297" on="1"/>
        <pt x="197" y="0" on="1"/>
        <pt x="60" y="0" on="1"/>
        <pt x="121" y="700" on="1"/>
        <pt x="258" y="700" on="1"/>
        <pt x="232" y="411" on="1"/>
        <pt x="388" y="411" on="1"/>
        <pt x="414" y="700" on="1"/>
        <pt x="551" y="700" on="1"/>
        <pt x="490" y="0" on="1"/>
      </contour>
    </TTGlyph>
    <TTGlyph name="I" xMin="25" yMin="0" xMax="363" yMax="700">
      <contour>
        <pt x="25" y="0" on="1"/>
        <pt x="34" y="106" on="1"/>
        <pt x="104" y="106" on="1"/>
        <pt x="146" y="594" on="1"/>
        <pt x="76" y="594" on="1"/>
        <pt x="86" y="700" on="1"/>
        <pt x="363" y="700" on="1"/>
        <pt x="353" y="594" on="1"/>
        <pt x="283" y="594" on="1"/>
        <pt x="241" y="106" on="1"/>
        <pt x="311" y="106" on="1"/>
        <pt x="302" y="0" on="1"/>
      </contour>
    </TTGlyph>
    <TTGlyph name="Iacute" xMin="25" yMin="0" xMax="383" yMax="841">
      <contour>
        <pt x="108" y="726" on="1"/>
        <pt x="222" y="841" on="1"/>
        <pt x="383" y="841" on="1"/>
        <pt x="226" y="726" on="1"/>
      </contour>
      <contour>
        <pt x="25" y="0" on="1"/>
        <pt x="34" y="106" on="1"/>
        <pt x="104" y="106" on="1"/>
        <pt x="146" y="594" on="1"/>
        <pt x="76" y="594" on="1"/>
        <pt x="86" y="700" on="1"/>
        <pt x="363" y="700" on="1"/>
        <pt x="353" y="594" on="1"/>
        <pt x="283" y="594" on="1"/>
        <pt x="241" y="106" on="1"/>
        <pt x="311" y="106" on="1"/>
        <pt x="302" y="0" on="1"/>
      </contour>
    </TTGlyph>
    <TTGlyph name="Icircumflex" xMin="25" yMin="0" xMax="413" yMax="845">
      <contour>
        <pt x="268" y="730" on="1"/>
        <pt x="234" y="791" on="1"/>
        <pt x="188" y="730" on="1"/>
        <pt x="40" y="730" on="1"/>
        <pt x="160" y="845" on="1"/>
        <pt x="312" y="845" on="1"/>
        <pt x="413" y="730" on="1"/>
      </contour>
      <contour>
        <pt x="25" y="0" on="1"/>
        <pt x="34" y="106" on="1"/>
        <pt x="104" y="106" on="1"/>
        <pt x="146" y="594" on="1"/>
        <pt x="76" y="594" on="1"/>
        <pt x="86" y="700" on="1"/>
        <pt x="363" y="700" on="1"/>
        <pt x="353" y="594" on="1"/>
        <pt x="283" y="594" on="1"/>
        <pt x="241" y="106" on="1"/>
        <pt x="311" y="106" on="1"/>
        <pt x="302" y="0" on="1"/>
      </contour>
    </TTGlyph>
    <TTGlyph name="Idieresis" xMin="25" yMin="0" xMax="398" yMax="835">
      <contour>
        <pt x="25" y="0" on="1"/>
        <pt x="34" y="106" on="1"/>
        <pt x="104" y="106" on="1"/>
        <pt x="146" y="594" on="1"/>
        <pt x="76" y="594" on="1"/>
        <pt x="86" y="700" on="1"/>
        <pt x="363" y="700" on="1"/>
        <pt x="353" y="594" on="1"/>
        <pt x="283" y="594" on="1"/>
        <pt x="241" y="106" on="1"/>
        <pt x="311" y="106" on="1"/>
        <pt x="302" y="0" on="1"/>
      </contour>
      <contour>
        <pt x="257" y="720" on="1"/>
        <pt x="268" y="835" on="1"/>
        <pt x="398" y="835" on="1"/>
        <pt x="387" y="720" on="1"/>
      </contour>
      <contour>
        <pt x="57" y="720" on="1"/>
        <pt x="68" y="835" on="1"/>
        <pt x="198" y="835" on="1"/>
        <pt x="187" y="720" on="1"/>
      </contour>
    </TTGlyph>
    <TTGlyph name="Igrave" xMin="25" yMin="0" xMax="363" yMax="841">
      <contour>
        <pt x="234" y="726" on="1"/>
        <pt x="87" y="841" on="1"/>
        <pt x="248" y="841" on="1"/>
        <pt x="342" y="726" on="1"/>
      </contour>
      <contour>
        <pt x="25" y="0" on="1"/>
        <pt x="34" y="106" on="1"/>
        <pt x="104" y="106" on="1"/>
        <pt x="146" y="594" on="1"/>
        <pt x="76" y="594" on="1"/>
        <pt x="86" y="700" on="1"/>
        <pt x="363" y="700" on="1"/>
        <pt x="353" y="594" on="1"/>
        <pt x="283" y="594" on="1"/>
        <pt x="241" y="106" on="1"/>
        <pt x="311" y="106" on="1"/>
        <pt x="302" y="0" on="1"/>
      </contour>
    </TTGlyph>
    <TTGlyph name="J" xMin="20" yMin="-10" xMax="402" yMax="700">
      <contour>
        <pt x="363" y="261" on="1"/>
        <pt x="356" y="179" on="0"/>
        <pt x="329" y="73" on="0"/>
        <pt x="278" y="13" on="0"/>
        <pt x="200" y="-10" on="0"/>
        <pt x="141" y="-10" on="1"/>
        <pt x="129" y="-10" on="0"/>
        <pt x="96" y="-7" on="0"/>
        <pt x="63" y="-3" on="0"/>
        <pt x="32" y="2" on="0"/>
        <pt x="20" y="5" on="1"/>
        <pt x="30" y="125" on="1"/>
        <pt x="51" y="121" on="0"/>
        <pt x="111" y="113" on="0"/>
        <pt x="135" y="113" on="1"/>
        <pt x="159" y="113" on="0"/>
        <pt x="190" y="128" on="0"/>
        <pt x="211" y="161" on="0"/>
        <pt x="223" y="215" on="0"/>
        <pt x="226" y="254" on="1"/>
        <pt x="254" y="582" on="1"/>
        <pt x="112" y="582" on="1"/>
        <pt x="123" y="700" on="1"/>
        <pt x="402" y="700" on="1"/>
        <pt x="363" y="261" on="1"/>
      </contour>
    </TTGlyph>
    <TTGlyph name="K" xMin="60" yMin="0" xMax="573" yMax="700">
      <contour>
        <pt x="359" y="0" on="1"/>
        <pt x="241" y="275" on="1"/>
        <pt x="218" y="244" on="1"/>
        <pt x="197" y="0" on="1"/>
        <pt x="60" y="0" on="1"/>
        <pt x="121" y="700" on="1"/>
        <pt x="258" y="700" on="1"/>
        <pt x="237" y="458" on="1"/>
        <pt x="419" y="700" on="1"/>
        <pt x="573" y="700" on="1"/>
        <pt x="337" y="396" on="1"/>
        <pt x="517" y="0" on="1"/>
      </contour>
    </TTGlyph>
    <TTGlyph name="L" xMin="60" yMin="0" xMax="410" yMax="700">
      <contour>
        <pt x="60" y="0" on="1"/>
        <pt x="121" y="700" on="1"/>
        <pt x="258" y="700" on="1"/>
        <pt x="207" y="116" on="1"/>
        <pt x="410" y="116" on="1"/>
        <pt x="400" y="0" on="1"/>
      </contour>
    </TTGlyph>
    <TTGlyph name="Lslash" xMin="35" yMin="0" xMax="420" yMax="700">
      <contour>
        <pt x="70" y="0" on="1"/>
        <pt x="98" y="320" on="1"/>
        <pt x="35" y="290" on="1"/>
        <pt x="45" y="408" on="1"/>
        <pt x="108" y="439" on="1"/>
        <pt x="131" y="700" on="1"/>
        <pt x="268" y="700" on="1"/>
        <pt x="251" y="509" on="1"/>
        <pt x="343" y="555" on="1"/>
        <pt x="333" y="435" on="1"/>
        <pt x="241" y="390" on="1"/>
        <pt x="217" y="116" on="1"/>
        <pt x="420" y="116" on="1"/>
        <pt x="410" y="0" on="1"/>
      </contour>
    </TTGlyph>
    <TTGlyph name="M" xMin="60" yMin="0" xMax="647" yMax="700">
      <contour>
        <pt x="462" y="0" on="1"/>
        <pt x="514" y="599" on="1"/>
        <pt x="396" y="235" on="1"/>
        <pt x="292" y="235" on="1"/>
        <pt x="234" y="599" on="1"/>
        <pt x="182" y="0" on="1"/>
        <pt x="60" y="0" on="1"/>
        <pt x="121" y="700" on="1"/>
        <pt x="326" y="700" on="1"/>
        <pt x="361" y="431" on="1"/>
        <pt x="445" y="700" on="1"/>
        <pt x="647" y="700" on="1"/>
        <pt x="586" y="0" on="1"/>
      </contour>
    </TTGlyph>
    <TTGlyph name="N" xMin="60" yMin="0" xMax="573" yMax="700">
      <contour>
        <pt x="313" y="0" on="1"/>
        <pt x="230" y="562" on="1"/>
        <pt x="181" y="0" on="1"/>
        <pt x="60" y="0" on="1"/>
        <pt x="121" y="700" on="1"/>
        <pt x="320" y="700" on="1"/>
        <pt x="404" y="127" on="1"/>
        <pt x="454" y="700" on="1"/>
        <pt x="573" y="700" on="1"/>
        <pt x="512" y="0" on="1"/>
      </contour>
    </TTGlyph>
    <TTGlyph name="Ntilde" xMin="60" yMin="0" xMax="573" yMax="860">
      <contour>
        <pt x="313" y="0" on="1"/>
        <pt x="230" y="562" on="1"/>
        <pt x="181" y="0" on="1"/>
        <pt x="60" y="0" on="1"/>
        <pt x="121" y="700" on="1"/>
        <pt x="320" y="700" on="1"/>
        <pt x="404" y="127" on="1"/>
        <pt x="454" y="700" on="1"/>
        <pt x="573" y="700" on="1"/>
        <pt x="512" y="0" on="1"/>
      </contour>
      <contour>
        <pt x="194" y="828" on="1"/>
        <pt x="218" y="847" on="0"/>
        <pt x="272" y="860" on="0"/>
        <pt x="292" y="860" on="1"/>
        <pt x="310" y="860" on="0"/>
        <pt x="347" y="848" on="0"/>
        <pt x="384" y="833" on="0"/>
        <pt x="418" y="821" on="0"/>
        <pt x="433" y="821" on="1"/>
        <pt x="459" y="821" on="0"/>
        <pt x="505" y="840" on="0"/>
        <pt x="526" y="857" on="1"/>
        <pt x="517" y="752" on="1"/>
        <pt x="496" y="733" on="0"/>
        <pt x="444" y="720" on="0"/>
        <pt x="418" y="720" on="1"/>
        <pt x="399" y="720" on="0"/>
        <pt x="363" y="732" on="0"/>
        <pt x="328" y="747" on="0"/>
        <pt x="294" y="759" on="0"/>
        <pt x="278" y="759" on="1"/>
        <pt x="252" y="759" on="0"/>
        <pt x="202" y="737" on="0"/>
        <pt x="185" y="723" on="1"/>
      </contour>
    </TTGlyph>
    <TTGlyph name="O" xMin="65" yMin="-10" xMax="544" yMax="710">
      <contour>
        <pt x="399" y="353" on="1"/>
        <pt x="405" y="424" on="0"/>
        <pt x="405" y="469" on="1"/>
        <pt x="405" y="509" on="0"/>
        <pt x="396" y="560" on="0"/>
        <pt x="376" y="590" on="0"/>
        <pt x="347" y="602" on="0"/>
        <pt x="326" y="602" on="1"/>
        <pt x="299" y="602" on="0"/>
        <pt x="261" y="582" on="0"/>
        <pt x="234" y="527" on="0"/>
        <pt x="216" y="430" on="0"/>
        <pt x="209" y="353" on="1"/>
        <pt x="203" y="286" on="0"/>
        <pt x="203" y="238" on="1"/>
        <pt x="203" y="157" on="0"/>
        <pt x="241" y="98" on="0"/>
        <pt x="282" y="98" on="1"/>
        <pt x="309" y="98" on="0"/>
        <pt x="347" y="121" on="0"/>
        <pt x="374" y="179" on="0"/>
        <pt x="393" y="277" on="0"/>
      </contour>
      <contour>
        <pt x="539" y="358" on="1"/>
        <pt x="531" y="266" on="0"/>
        <pt x="504" y="128" on="0"/>
        <pt x="447" y="36" on="0"/>
        <pt x="351" y="-10" on="0"/>
        <pt x="273" y="-10" on="1"/>
        <pt x="214" y="-10" on="0"/>
        <pt x="134" y="22" on="0"/>
        <pt x="86" y="85" on="0"/>
        <pt x="65" y="179" on="0"/>
        <pt x="65" y="242" on="1"/>
        <pt x="65" y="295" on="0"/>
        <pt x="71" y="358" on="1"/>
        <pt x="79" y="446" on="0"/>
        <pt x="106" y="578" on="0"/>
        <pt x="164" y="666" on="0"/>
        <pt x="260" y="710" on="0"/>
        <pt x="336" y="710" on="1"/>
        <pt x="395" y="710" on="0"/>
        <pt x="474" y="679" on="0"/>
        <pt x="523" y="616" on="0"/>
        <pt x="544" y="521" on="0"/>
        <pt x="544" y="458" on="1"/>
        <pt x="544" y="435" on="0"/>
        <pt x="541" y="385" on="0"/>
      </contour>
    </TTGlyph>
    <TTGlyph name="OE" xMin="65" yMin="-10" xMax="796" yMax="710">
      <contour>
        <pt x="358" y="0" on="1"/>
        <pt x="339" y="-5" on="0"/>
        <pt x="297" y="-10" on="0"/>
        <pt x="273" y="-10" on="1"/>
        <pt x="214" y="-10" on="0"/>
        <pt x="134" y="22" on="0"/>
        <pt x="86" y="86" on="0"/>
        <pt x="65" y="181" on="0"/>
        <pt x="65" y="245" on="1"/>
        <pt x="65" y="250" on="0"/>
        <pt x="67" y="282" on="0"/>
        <pt x="69" y="320" on="0"/>
        <pt x="71" y="353" on="0"/>
        <pt x="71" y="358" on="1"/>
        <pt x="79" y="446" on="0"/>
        <pt x="107" y="578" on="0"/>
        <pt x="165" y="666" on="0"/>
        <pt x="261" y="710" on="0"/>
        <pt x="336" y="710" on="1"/>
        <pt x="360" y="710" on="0"/>
        <pt x="401" y="705" on="0"/>
        <pt x="419" y="700" on="1"/>
        <pt x="796" y="700" on="1"/>
        <pt x="786" y="592" on="1"/>
        <pt x="527" y="592" on="1"/>
        <pt x="543" y="538" on="0"/>
        <pt x="543" y="458" on="1"/>
        <pt x="543" y="447" on="0"/>
        <pt x="543" y="426" on="0"/>
        <pt x="542" y="415" on="1"/>
        <pt x="746" y="415" on="1"/>
        <pt x="736" y="308" on="1"/>
        <pt x="533" y="308" on="1"/>
        <pt x="526" y="245" on="0"/>
        <pt x="505" y="146" on="0"/>
        <pt x="487" y="108" on="1"/>
        <pt x="744" y="108" on="1"/>
        <pt x="735" y="0" on="1"/>
      </contour>
      <contour>
        <pt x="399" y="353" on="1"/>
        <pt x="405" y="424" on="0"/>
        <pt x="405" y="469" on="1"/>
        <pt x="405" y="509" on="0"/>
        <pt x="396" y="560" on="0"/>
        <pt x="376" y="590" on="0"/>
        <pt x="347" y="602" on="0"/>
        <pt x="326" y="602" on="1"/>
        <pt x="299" y="602" on="0"/>
        <pt x="261" y="582" on="0"/>
        <pt x="234" y="527" on="0"/>
        <pt x="216" y="430" on="0"/>
        <pt x="209" y="353" on="1"/>
        <pt x="203" y="286" on="0"/>
        <pt x="203" y="238" on="1"/>
        <pt x="203" y="157" on="0"/>
        <pt x="241" y="98" on="0"/>
        <pt x="282" y="98" on="1"/>
        <pt x="309" y="98" on="0"/>
        <pt x="347" y="121" on="0"/>
        <pt x="374" y="179" on="0"/>
        <pt x="393" y="277" on="0"/>
      </contour>
    </TTGlyph>
    <TTGlyph name="Oacute" xMin="65" yMin="-10" xMax="544" yMax="841">
      <contour>
        <pt x="249" y="726" on="1"/>
        <pt x="363" y="841" on="1"/>
        <pt x="524" y="841" on="1"/>
        <pt x="367" y="726" on="1"/>
      </contour>
      <contour>
        <pt x="399" y="353" on="1"/>
        <pt x="405" y="424" on="0"/>
        <pt x="405" y="469" on="1"/>
        <pt x="405" y="509" on="0"/>
        <pt x="396" y="560" on="0"/>
        <pt x="376" y="590" on="0"/>
        <pt x="347" y="602" on="0"/>
        <pt x="326" y="602" on="1"/>
        <pt x="299" y="602" on="0"/>
        <pt x="261" y="582" on="0"/>
        <pt x="234" y="527" on="0"/>
        <pt x="216" y="430" on="0"/>
        <pt x="209" y="353" on="1"/>
        <pt x="203" y="286" on="0"/>
        <pt x="203" y="238" on="1"/>
        <pt x="203" y="157" on="0"/>
        <pt x="241" y="98" on="0"/>
        <pt x="282" y="98" on="1"/>
        <pt x="309" y="98" on="0"/>
        <pt x="347" y="121" on="0"/>
        <pt x="374" y="179" on="0"/>
        <pt x="393" y="277" on="0"/>
      </contour>
      <contour>
        <pt x="539" y="358" on="1"/>
        <pt x="531" y="266" on="0"/>
        <pt x="504" y="128" on="0"/>
        <pt x="447" y="36" on="0"/>
        <pt x="351" y="-10" on="0"/>
        <pt x="273" y="-10" on="1"/>
        <pt x="214" y="-10" on="0"/>
        <pt x="134" y="22" on="0"/>
        <pt x="86" y="85" on="0"/>
        <pt x="65" y="179" on="0"/>
        <pt x="65" y="242" on="1"/>
        <pt x="65" y="295" on="0"/>
        <pt x="71" y="358" on="1"/>
        <pt x="79" y="446" on="0"/>
        <pt x="106" y="578" on="0"/>
        <pt x="164" y="666" on="0"/>
        <pt x="260" y="710" on="0"/>
        <pt x="336" y="710" on="1"/>
        <pt x="395" y="710" on="0"/>
        <pt x="474" y="679" on="0"/>
        <pt x="523" y="616" on="0"/>
        <pt x="544" y="521" on="0"/>
        <pt x="544" y="458" on="1"/>
        <pt x="544" y="435" on="0"/>
        <pt x="541" y="385" on="0"/>
      </contour>
    </TTGlyph>
    <TTGlyph name="Ocircumflex" xMin="65" yMin="-10" xMax="544" yMax="845">
      <contour>
        <pt x="379" y="730" on="1"/>
        <pt x="345" y="791" on="1"/>
        <pt x="299" y="730" on="1"/>
        <pt x="151" y="730" on="1"/>
        <pt x="271" y="845" on="1"/>
        <pt x="423" y="845" on="1"/>
        <pt x="524" y="730" on="1"/>
      </contour>
      <contour>
        <pt x="399" y="353" on="1"/>
        <pt x="405" y="424" on="0"/>
        <pt x="405" y="469" on="1"/>
        <pt x="405" y="509" on="0"/>
        <pt x="396" y="560" on="0"/>
        <pt x="376" y="590" on="0"/>
        <pt x="347" y="602" on="0"/>
        <pt x="326" y="602" on="1"/>
        <pt x="299" y="602" on="0"/>
        <pt x="261" y="582" on="0"/>
        <pt x="234" y="527" on="0"/>
        <pt x="216" y="430" on="0"/>
        <pt x="209" y="353" on="1"/>
        <pt x="203" y="286" on="0"/>
        <pt x="203" y="238" on="1"/>
        <pt x="203" y="157" on="0"/>
        <pt x="241" y="98" on="0"/>
        <pt x="282" y="98" on="1"/>
        <pt x="309" y="98" on="0"/>
        <pt x="347" y="121" on="0"/>
        <pt x="374" y="179" on="0"/>
        <pt x="393" y="277" on="0"/>
      </contour>
      <contour>
        <pt x="539" y="358" on="1"/>
        <pt x="531" y="266" on="0"/>
        <pt x="504" y="128" on="0"/>
        <pt x="447" y="36" on="0"/>
        <pt x="351" y="-10" on="0"/>
        <pt x="273" y="-10" on="1"/>
        <pt x="214" y="-10" on="0"/>
        <pt x="134" y="22" on="0"/>
        <pt x="86" y="85" on="0"/>
        <pt x="65" y="179" on="0"/>
        <pt x="65" y="242" on="1"/>
        <pt x="65" y="295" on="0"/>
        <pt x="71" y="358" on="1"/>
        <pt x="79" y="446" on="0"/>
        <pt x="106" y="578" on="0"/>
        <pt x="164" y="666" on="0"/>
        <pt x="260" y="710" on="0"/>
        <pt x="336" y="710" on="1"/>
        <pt x="395" y="710" on="0"/>
        <pt x="474" y="679" on="0"/>
        <pt x="523" y="616" on="0"/>
        <pt x="544" y="521" on="0"/>
        <pt x="544" y="458" on="1"/>
        <pt x="544" y="435" on="0"/>
        <pt x="541" y="385" on="0"/>
      </contour>
    </TTGlyph>
    <TTGlyph name="Odieresis" xMin="65" yMin="-10" xMax="544" yMax="845">
      <contour>
        <pt x="367" y="730" on="1"/>
        <pt x="378" y="845" on="1"/>
        <pt x="508" y="845" on="1"/>
        <pt x="497" y="730" on="1"/>
      </contour>
      <contour>
        <pt x="167" y="730" on="1"/>
        <pt x="178" y="845" on="1"/>
        <pt x="308" y="845" on="1"/>
        <pt x="297" y="730" on="1"/>
      </contour>
      <contour>
        <pt x="399" y="353" on="1"/>
        <pt x="405" y="424" on="0"/>
        <pt x="405" y="469" on="1"/>
        <pt x="405" y="509" on="0"/>
        <pt x="396" y="560" on="0"/>
        <pt x="376" y="590" on="0"/>
        <pt x="347" y="602" on="0"/>
        <pt x="326" y="602" on="1"/>
        <pt x="299" y="602" on="0"/>
        <pt x="261" y="582" on="0"/>
        <pt x="234" y="527" on="0"/>
        <pt x="216" y="430" on="0"/>
        <pt x="209" y="353" on="1"/>
        <pt x="203" y="286" on="0"/>
        <pt x="203" y="238" on="1"/>
        <pt x="203" y="157" on="0"/>
        <pt x="241" y="98" on="0"/>
        <pt x="282" y="98" on="1"/>
        <pt x="309" y="98" on="0"/>
        <pt x="347" y="121" on="0"/>
        <pt x="374" y="179" on="0"/>
        <pt x="393" y="277" on="0"/>
      </contour>
      <contour>
        <pt x="539" y="358" on="1"/>
        <pt x="531" y="266" on="0"/>
        <pt x="504" y="128" on="0"/>
        <pt x="447" y="36" on="0"/>
        <pt x="351" y="-10" on="0"/>
        <pt x="273" y="-10" on="1"/>
        <pt x="214" y="-10" on="0"/>
        <pt x="134" y="22" on="0"/>
        <pt x="86" y="85" on="0"/>
        <pt x="65" y="179" on="0"/>
        <pt x="65" y="242" on="1"/>
        <pt x="65" y="295" on="0"/>
        <pt x="71" y="358" on="1"/>
        <pt x="79" y="446" on="0"/>
        <pt x="106" y="578" on="0"/>
        <pt x="164" y="666" on="0"/>
        <pt x="260" y="710" on="0"/>
        <pt x="336" y="710" on="1"/>
        <pt x="395" y="710" on="0"/>
        <pt x="474" y="679" on="0"/>
        <pt x="523" y="616" on="0"/>
        <pt x="544" y="521" on="0"/>
        <pt x="544" y="458" on="1"/>
        <pt x="544" y="435" on="0"/>
        <pt x="541" y="385" on="0"/>
      </contour>
    </TTGlyph>
    <TTGlyph name="Ograve" xMin="65" yMin="-10" xMax="544" yMax="841">
      <contour>
        <pt x="311" y="726" on="1"/>
        <pt x="164" y="841" on="1"/>
        <pt x="325" y="841" on="1"/>
        <pt x="419" y="726" on="1"/>
      </contour>
      <contour>
        <pt x="399" y="353" on="1"/>
        <pt x="405" y="424" on="0"/>
        <pt x="405" y="469" on="1"/>
        <pt x="405" y="509" on="0"/>
        <pt x="396" y="560" on="0"/>
        <pt x="376" y="590" on="0"/>
        <pt x="347" y="602" on="0"/>
        <pt x="326" y="602" on="1"/>
        <pt x="299" y="602" on="0"/>
        <pt x="261" y="582" on="0"/>
        <pt x="234" y="527" on="0"/>
        <pt x="216" y="430" on="0"/>
        <pt x="209" y="353" on="1"/>
        <pt x="203" y="286" on="0"/>
        <pt x="203" y="238" on="1"/>
        <pt x="203" y="157" on="0"/>
        <pt x="241" y="98" on="0"/>
        <pt x="282" y="98" on="1"/>
        <pt x="309" y="98" on="0"/>
        <pt x="347" y="121" on="0"/>
        <pt x="374" y="179" on="0"/>
        <pt x="393" y="277" on="0"/>
      </contour>
      <contour>
        <pt x="539" y="358" on="1"/>
        <pt x="531" y="266" on="0"/>
        <pt x="504" y="128" on="0"/>
        <pt x="447" y="36" on="0"/>
        <pt x="351" y="-10" on="0"/>
        <pt x="273" y="-10" on="1"/>
        <pt x="214" y="-10" on="0"/>
        <pt x="134" y="22" on="0"/>
        <pt x="86" y="85" on="0"/>
        <pt x="65" y="179" on="0"/>
        <pt x="65" y="242" on="1"/>
        <pt x="65" y="295" on="0"/>
        <pt x="71" y="358" on="1"/>
        <pt x="79" y="446" on="0"/>
        <pt x="106" y="578" on="0"/>
        <pt x="164" y="666" on="0"/>
        <pt x="260" y="710" on="0"/>
        <pt x="336" y="710" on="1"/>
        <pt x="395" y="710" on="0"/>
        <pt x="474" y="679" on="0"/>
        <pt x="523" y="616" on="0"/>
        <pt x="544" y="521" on="0"/>
        <pt x="544" y="458" on="1"/>
        <pt x="544" y="435" on="0"/>
        <pt x="541" y="385" on="0"/>
      </contour>
    </TTGlyph>
    <TTGlyph name="Omega" xMin="40" yMin="0" xMax="544" yMax="710">
      <contour>
        <pt x="233" y="0" on="1"/>
        <pt x="40" y="0" on="1"/>
        <pt x="49" y="108" on="1"/>
        <pt x="94" y="108" on="1"/>
        <pt x="67" y="173" on="0"/>
        <pt x="67" y="274" on="1"/>
        <pt x="67" y="279" on="0"/>
        <pt x="68" y="302" on="0"/>
        <pt x="69" y="329" on="0"/>
        <pt x="71" y="353" on="0"/>
        <pt x="71" y="358" on="1"/>
        <pt x="79" y="446" on="0"/>
        <pt x="108" y="578" on="0"/>
        <pt x="167" y="666" on="0"/>
        <pt x="262" y="710" on="0"/>
        <pt x="336" y="710" on="1"/>
        <pt x="394" y="710" on="0"/>
        <pt x="473" y="678" on="0"/>
        <pt x="522" y="615" on="0"/>
        <pt x="544" y="520" on="0"/>
        <pt x="544" y="457" on="1"/>
        <pt x="544" y="344" on="0"/>
        <pt x="507" y="160" on="0"/>
        <pt x="479" y="108" on="1"/>
        <pt x="519" y="108" on="1"/>
        <pt x="510" y="0" on="1"/>
        <pt x="317" y="0" on="1"/>
        <pt x="326" y="108" on="1"/>
        <pt x="341" y="117" on="0"/>
        <pt x="364" y="153" on="0"/>
        <pt x="381" y="211" on="0"/>
        <pt x="394" y="295" on="0"/>
        <pt x="399" y="353" on="1"/>
        <pt x="405" y="424" on="0"/>
        <pt x="405" y="469" on="1"/>
        <pt x="405" y="509" on="0"/>
        <pt x="396" y="560" on="0"/>
        <pt x="376" y="590" on="0"/>
        <pt x="347" y="602" on="0"/>
        <pt x="326" y="602" on="1"/>
        <pt x="299" y="602" on="0"/>
        <pt x="261" y="582" on="0"/>
        <pt x="234" y="527" on="0"/>
        <pt x="216" y="430" on="0"/>
        <pt x="209" y="353" on="1"/>
        <pt x="203" y="284" on="0"/>
        <pt x="203" y="238" on="1"/>
        <pt x="203" y="180" on="0"/>
        <pt x="222" y="120" on="0"/>
        <pt x="242" y="108" on="1"/>
      </contour>
    </TTGlyph>
    <TTGlyph name="Oslash" xMin="70" yMin="-91" xMax="549" yMax="791">
      <contour>
        <pt x="544" y="358" on="1"/>
        <pt x="536" y="266" on="0"/>
        <pt x="509" y="128" on="0"/>
        <pt x="452" y="36" on="0"/>
        <pt x="356" y="-10" on="0"/>
        <pt x="278" y="-10" on="1"/>
        <pt x="258" y="-10" on="0"/>
        <pt x="223" y="-6" on="0"/>
        <pt x="208" y="-3" on="1"/>
        <pt x="172" y="-91" on="1"/>
        <pt x="73" y="-91" on="1"/>
        <pt x="126" y="39" on="1"/>
        <pt x="95" y="71" on="0"/>
        <pt x="70" y="171" on="0"/>
        <pt x="70" y="242" on="1"/>
        <pt x="70" y="295" on="0"/>
        <pt x="76" y="358" on="1"/>
        <pt x="84" y="446" on="0"/>
        <pt x="111" y="578" on="0"/>
        <pt x="169" y="666" on="0"/>
        <pt x="265" y="710" on="0"/>
        <pt x="341" y="710" on="1"/>
        <pt x="357" y="710" on="0"/>
        <pt x="385" y="707" on="0"/>
        <pt x="399" y="705" on="1"/>
        <pt x="434" y="791" on="1"/>
        <pt x="534" y="791" on="1"/>
        <pt x="483" y="668" on="1"/>
        <pt x="518" y="637" on="0"/>
        <pt x="549" y="533" on="0"/>
        <pt x="549" y="458" on="1"/>
        <pt x="549" y="435" on="0"/>
        <pt x="546" y="385" on="0"/>
      </contour>
      <contour>
        <pt x="404" y="353" on="1"/>
        <pt x="410" y="424" on="0"/>
        <pt x="410" y="469" on="1"/>
        <pt x="410" y="489" on="1"/>
        <pt x="252" y="104" on="1"/>
        <pt x="267" y="98" on="0"/>
        <pt x="287" y="98" on="1"/>
        <pt x="314" y="98" on="0"/>
        <pt x="352" y="121" on="0"/>
        <pt x="379" y="179" on="0"/>
        <pt x="398" y="277" on="0"/>
      </contour>
      <contour>
        <pt x="214" y="353" on="1"/>
        <pt x="208" y="286" on="0"/>
        <pt x="208" y="238" on="1"/>
        <pt x="355" y="599" on="1"/>
        <pt x="345" y="602" on="0"/>
        <pt x="331" y="602" on="1"/>
        <pt x="304" y="602" on="0"/>
        <pt x="266" y="582" on="0"/>
        <pt x="239" y="527" on="0"/>
        <pt x="221" y="430" on="0"/>
      </contour>
    </TTGlyph>
    <TTGlyph name="Otilde" xMin="65" yMin="-10" xMax="544" yMax="860">
      <contour>
        <pt x="399" y="353" on="1"/>
        <pt x="405" y="424" on="0"/>
        <pt x="405" y="469" on="1"/>
        <pt x="405" y="509" on="0"/>
        <pt x="396" y="560" on="0"/>
        <pt x="376" y="590" on="0"/>
        <pt x="347" y="602" on="0"/>
        <pt x="326" y="602" on="1"/>
        <pt x="299" y="602" on="0"/>
        <pt x="261" y="582" on="0"/>
        <pt x="234" y="527" on="0"/>
        <pt x="216" y="430" on="0"/>
        <pt x="209" y="353" on="1"/>
        <pt x="203" y="286" on="0"/>
        <pt x="203" y="238" on="1"/>
        <pt x="203" y="157" on="0"/>
        <pt x="241" y="98" on="0"/>
        <pt x="282" y="98" on="1"/>
        <pt x="309" y="98" on="0"/>
        <pt x="347" y="121" on="0"/>
        <pt x="374" y="179" on="0"/>
        <pt x="393" y="277" on="0"/>
      </contour>
      <contour>
        <pt x="539" y="358" on="1"/>
        <pt x="531" y="266" on="0"/>
        <pt x="504" y="128" on="0"/>
        <pt x="447" y="36" on="0"/>
        <pt x="351" y="-10" on="0"/>
        <pt x="273" y="-10" on="1"/>
        <pt x="214" y="-10" on="0"/>
        <pt x="134" y="22" on="0"/>
        <pt x="86" y="85" on="0"/>
        <pt x="65" y="179" on="0"/>
        <pt x="65" y="242" on="1"/>
        <pt x="65" y="295" on="0"/>
        <pt x="71" y="358" on="1"/>
        <pt x="79" y="446" on="0"/>
        <pt x="106" y="578" on="0"/>
        <pt x="164" y="666" on="0"/>
        <pt x="260" y="710" on="0"/>
        <pt x="336" y="710" on="1"/>
        <pt x="395" y="710" on="0"/>
        <pt x="474" y="679" on="0"/>
        <pt x="523" y="616" on="0"/>
        <pt x="544" y="521" on="0"/>
        <pt x="544" y="458" on="1"/>
        <pt x="544" y="435" on="0"/>
        <pt x="541" y="385" on="0"/>
      </contour>
      <contour>
        <pt x="178" y="828" on="1"/>
        <pt x="202" y="847" on="0"/>
        <pt x="256" y="860" on="0"/>
        <pt x="276" y="860" on="1"/>
        <pt x="294" y="860" on="0"/>
        <pt x="331" y="848" on="0"/>
        <pt x="368" y="833" on="0"/>
        <pt x="402" y="821" on="0"/>
        <pt x="417" y="821" on="1"/>
        <pt x="443" y="821" on="0"/>
        <pt x="489" y="840" on="0"/>
        <pt x="510" y="857" on="1"/>
        <pt x="501" y="752" on="1"/>
        <pt x="480" y="733" on="0"/>
        <pt x="428" y="720" on="0"/>
        <pt x="402" y="720" on="1"/>
        <pt x="383" y="720" on="0"/>
        <pt x="347" y="732" on="0"/>
        <pt x="312" y="747" on="0"/>
        <pt x="278" y="759" on="0"/>
        <pt x="262" y="759" on="1"/>
        <pt x="236" y="759" on="0"/>
        <pt x="186" y="737" on="0"/>
        <pt x="169" y="723" on="1"/>
      </contour>
    </TTGlyph>
    <TTGlyph name="P" xMin="60" yMin="0" xMax="518" yMax="710">
      <contour>
        <pt x="377" y="470" on="1"/>
        <pt x="378" y="478" on="0"/>
        <pt x="378" y="493" on="0"/>
        <pt x="378" y="501" on="1"/>
        <pt x="378" y="545" on="0"/>
        <pt x="350" y="590" on="0"/>
        <pt x="313" y="590" on="1"/>
        <pt x="281" y="590" on="0"/>
        <pt x="264" y="587" on="1"/>
        <pt x="254" y="585" on="0"/>
        <pt x="248" y="584" on="1"/>
        <pt x="228" y="359" on="1"/>
        <pt x="291" y="359" on="1"/>
        <pt x="326" y="359" on="0"/>
        <pt x="372" y="419" on="0"/>
      </contour>
      <contour>
        <pt x="516" y="477" on="1"/>
        <pt x="510" y="411" on="0"/>
        <pt x="477" y="321" on="0"/>
        <pt x="419" y="265" on="0"/>
        <pt x="333" y="241" on="0"/>
        <pt x="275" y="241" on="1"/>
        <pt x="218" y="241" on="1"/>
        <pt x="197" y="0" on="1"/>
        <pt x="60" y="0" on="1"/>
        <pt x="121" y="700" on="1"/>
        <pt x="150" y="702" on="0"/>
        <pt x="182" y="705" on="1"/>
        <pt x="209" y="707" on="0"/>
        <pt x="275" y="710" on="0"/>
        <pt x="306" y="710" on="1"/>
        <pt x="364" y="710" on="0"/>
        <pt x="445" y="685" on="0"/>
        <pt x="495" y="636" on="0"/>
        <pt x="518" y="564" on="0"/>
        <pt x="518" y="518" on="1"/>
        <pt x="518" y="508" on="0"/>
        <pt x="517" y="488" on="0"/>
      </contour>
    </TTGlyph>
    <TTGlyph name="Q" xMin="65" yMin="-124" xMax="544" yMax="710">
      <contour>
        <pt x="539" y="358" on="1"/>
        <pt x="533" y="291" on="0"/>
        <pt x="516" y="179" on="0"/>
        <pt x="484" y="93" on="0"/>
        <pt x="436" y="31" on="0"/>
        <pt x="398" y="13" on="1"/>
        <pt x="491" y="0" on="1"/>
        <pt x="480" y="-124" on="1"/>
        <pt x="233" y="-8" on="1"/>
        <pt x="185" y="-3" on="0"/>
        <pt x="121" y="34" on="0"/>
        <pt x="82" y="96" on="0"/>
        <pt x="65" y="185" on="0"/>
        <pt x="65" y="242" on="1"/>
        <pt x="65" y="295" on="0"/>
        <pt x="71" y="358" on="1"/>
        <pt x="79" y="446" on="0"/>
        <pt x="106" y="578" on="0"/>
        <pt x="164" y="666" on="0"/>
        <pt x="260" y="710" on="0"/>
        <pt x="336" y="710" on="1"/>
        <pt x="395" y="710" on="0"/>
        <pt x="474" y="679" on="0"/>
        <pt x="523" y="616" on="0"/>
        <pt x="544" y="521" on="0"/>
        <pt x="544" y="458" on="1"/>
        <pt x="544" y="435" on="0"/>
        <pt x="541" y="385" on="0"/>
      </contour>
      <contour>
        <pt x="399" y="353" on="1"/>
        <pt x="405" y="424" on="0"/>
        <pt x="405" y="469" on="1"/>
        <pt x="405" y="509" on="0"/>
        <pt x="396" y="560" on="0"/>
        <pt x="376" y="590" on="0"/>
        <pt x="347" y="602" on="0"/>
        <pt x="326" y="602" on="1"/>
        <pt x="299" y="602" on="0"/>
        <pt x="261" y="582" on="0"/>
        <pt x="234" y="527" on="0"/>
        <pt x="216" y="430" on="0"/>
        <pt x="209" y="353" on="1"/>
        <pt x="203" y="286" on="0"/>
        <pt x="203" y="238" on="1"/>
        <pt x="203" y="157" on="0"/>
        <pt x="241" y="98" on="0"/>
        <pt x="282" y="98" on="1"/>
        <pt x="309" y="98" on="0"/>
        <pt x="347" y="121" on="0"/>
        <pt x="374" y="179" on="0"/>
        <pt x="393" y="277" on="0"/>
      </contour>
    </TTGlyph>
    <TTGlyph name="R" xMin="60" yMin="0" xMax="512" yMax="710">
      <contour>
        <pt x="510" y="488" on="1"/>
        <pt x="502" y="403" on="0"/>
        <pt x="447" y="307" on="0"/>
        <pt x="399" y="285" on="1"/>
        <pt x="498" y="0" on="1"/>
        <pt x="347" y="0" on="1"/>
        <pt x="265" y="264" on="1"/>
        <pt x="220" y="264" on="1"/>
        <pt x="197" y="0" on="1"/>
        <pt x="60" y="0" on="1"/>
        <pt x="121" y="700" on="1"/>
        <pt x="150" y="702" on="0"/>
        <pt x="182" y="705" on="1"/>
        <pt x="209" y="707" on="0"/>
        <pt x="275" y="710" on="0"/>
        <pt x="306" y="710" on="1"/>
        <pt x="417" y="710" on="0"/>
        <pt x="512" y="620" on="0"/>
        <pt x="512" y="528" on="1"/>
        <pt x="512" y="518" on="0"/>
        <pt x="511" y="499" on="0"/>
      </contour>
      <contour>
        <pt x="371" y="481" on="1"/>
        <pt x="372" y="490" on="0"/>
        <pt x="372" y="506" on="0"/>
        <pt x="372" y="514" on="1"/>
        <pt x="372" y="555" on="0"/>
        <pt x="345" y="590" on="0"/>
        <pt x="309" y="590" on="1"/>
        <pt x="285" y="590" on="0"/>
        <pt x="267" y="587" on="1"/>
        <pt x="256" y="585" on="0"/>
        <pt x="248" y="584" on="1"/>
        <pt x="230" y="382" on="1"/>
        <pt x="293" y="382" on="1"/>
        <pt x="324" y="382" on="0"/>
        <pt x="366" y="432" on="0"/>
      </contour>
    </TTGlyph>
    <TTGlyph name="S" xMin="21" yMin="-7" xMax="437" yMax="707">
      <contour>
        <pt x="414" y="252" on="1"/>
        <pt x="414" y="244" on="0"/>
        <pt x="413" y="226" on="0"/>
        <pt x="412" y="217" on="1"/>
        <pt x="405" y="145" on="0"/>
        <pt x="366" y="57" on="0"/>
        <pt x="302" y="9" on="0"/>
        <pt x="216" y="-7" on="0"/>
        <pt x="162" y="-7" on="1"/>
        <pt x="146" y="-7" on="0"/>
        <pt x="107" y="-5" on="0"/>
        <pt x="68" y="-1" on="0"/>
        <pt x="33" y="5" on="0"/>
        <pt x="21" y="8" on="1"/>
        <pt x="32" y="127" on="1"/>
        <pt x="43" y="124" on="0"/>
        <pt x="76" y="118" on="0"/>
        <pt x="112" y="114" on="0"/>
        <pt x="148" y="111" on="0"/>
        <pt x="162" y="111" on="1"/>
        <pt x="212" y="111" on="0"/>
        <pt x="273" y="162" on="0"/>
        <pt x="273" y="225" on="1"/>
        <pt x="273" y="266" on="0"/>
        <pt x="233" y="298" on="0"/>
        <pt x="196" y="307" on="1"/>
        <pt x="121" y="325" on="0"/>
        <pt x="58" y="409" on="0"/>
        <pt x="58" y="472" on="1"/>
        <pt x="58" y="594" on="0"/>
        <pt x="179" y="707" on="0"/>
        <pt x="312" y="707" on="1"/>
        <pt x="326" y="707" on="0"/>
        <pt x="361" y="705" on="0"/>
        <pt x="395" y="701" on="0"/>
        <pt x="427" y="696" on="0"/>
        <pt x="437" y="693" on="1"/>
        <pt x="427" y="574" on="1"/>
        <pt x="401" y="582" on="0"/>
        <pt x="332" y="589" on="0"/>
        <pt x="294" y="589" on="1"/>
        <pt x="246" y="589" on="0"/>
        <pt x="198" y="541" on="0"/>
        <pt x="198" y="487" on="1"/>
        <pt x="198" y="458" on="0"/>
        <pt x="229" y="433" on="0"/>
        <pt x="270" y="424" on="1"/>
        <pt x="302" y="417" on="0"/>
        <pt x="355" y="391" on="0"/>
        <pt x="393" y="350" on="0"/>
        <pt x="414" y="292" on="0"/>
      </contour>
    </TTGlyph>
    <TTGlyph name="Scaron" xMin="21" yMin="-7" xMax="473" yMax="845">
      <contour>
        <pt x="247" y="845" on="1"/>
        <pt x="282" y="784" on="1"/>
        <pt x="327" y="845" on="1"/>
        <pt x="473" y="845" on="1"/>
        <pt x="353" y="730" on="1"/>
        <pt x="201" y="730" on="1"/>
        <pt x="100" y="845" on="1"/>
      </contour>
      <contour>
        <pt x="414" y="252" on="1"/>
        <pt x="414" y="244" on="0"/>
        <pt x="413" y="226" on="0"/>
        <pt x="412" y="217" on="1"/>
        <pt x="405" y="145" on="0"/>
        <pt x="366" y="57" on="0"/>
        <pt x="302" y="9" on="0"/>
        <pt x="216" y="-7" on="0"/>
        <pt x="162" y="-7" on="1"/>
        <pt x="146" y="-7" on="0"/>
        <pt x="107" y="-5" on="0"/>
        <pt x="68" y="-1" on="0"/>
        <pt x="33" y="5" on="0"/>
        <pt x="21" y="8" on="1"/>
        <pt x="32" y="127" on="1"/>
        <pt x="43" y="124" on="0"/>
        <pt x="76" y="118" on="0"/>
        <pt x="112" y="114" on="0"/>
        <pt x="148" y="111" on="0"/>
        <pt x="162" y="111" on="1"/>
        <pt x="212" y="111" on="0"/>
        <pt x="273" y="162" on="0"/>
        <pt x="273" y="225" on="1"/>
        <pt x="273" y="266" on="0"/>
        <pt x="233" y="298" on="0"/>
        <pt x="196" y="307" on="1"/>
        <pt x="121" y="325" on="0"/>
        <pt x="58" y="409" on="0"/>
        <pt x="58" y="472" on="1"/>
        <pt x="58" y="594" on="0"/>
        <pt x="179" y="707" on="0"/>
        <pt x="312" y="707" on="1"/>
        <pt x="326" y="707" on="0"/>
        <pt x="361" y="705" on="0"/>
        <pt x="395" y="701" on="0"/>
        <pt x="427" y="696" on="0"/>
        <pt x="437" y="693" on="1"/>
        <pt x="427" y="574" on="1"/>
        <pt x="401" y="582" on="0"/>
        <pt x="332" y="589" on="0"/>
        <pt x="294" y="589" on="1"/>
        <pt x="246" y="589" on="0"/>
        <pt x="198" y="541" on="0"/>
        <pt x="198" y="487" on="1"/>
        <pt x="198" y="458" on="0"/>
        <pt x="229" y="433" on="0"/>
        <pt x="270" y="424" on="1"/>
        <pt x="302" y="417" on="0"/>
        <pt x="355" y="391" on="0"/>
        <pt x="393" y="350" on="0"/>
        <pt x="414" y="292" on="0"/>
      </contour>
    </TTGlyph>
    <TTGlyph name="T" xMin="50" yMin="0" xMax="486" yMax="700">
      <contour>
        <pt x="331" y="579" on="1"/>
        <pt x="281" y="0" on="1"/>
        <pt x="144" y="0" on="1"/>
        <pt x="194" y="579" on="1"/>
        <pt x="50" y="579" on="1"/>
        <pt x="61" y="700" on="1"/>
        <pt x="486" y="700" on="1"/>
        <pt x="475" y="579" on="1"/>
      </contour>
    </TTGlyph>
    <TTGlyph name="Thorn" xMin="60" yMin="0" xMax="508" yMax="700">
      <contour>
        <pt x="506" y="360" on="1"/>
        <pt x="500" y="294" on="0"/>
        <pt x="467" y="204" on="0"/>
        <pt x="408" y="148" on="0"/>
        <pt x="322" y="124" on="0"/>
        <pt x="264" y="124" on="1"/>
        <pt x="207" y="124" on="1"/>
        <pt x="197" y="0" on="1"/>
        <pt x="60" y="0" on="1"/>
        <pt x="121" y="700" on="1"/>
        <pt x="258" y="700" on="1"/>
        <pt x="248" y="592" on="1"/>
        <pt x="260" y="592" on="0"/>
        <pt x="283" y="593" on="0"/>
        <pt x="295" y="593" on="1"/>
        <pt x="411" y="593" on="0"/>
        <pt x="508" y="494" on="0"/>
        <pt x="508" y="401" on="1"/>
        <pt x="508" y="391" on="0"/>
        <pt x="507" y="371" on="0"/>
      </contour>
      <contour>
        <pt x="366" y="353" on="1"/>
        <pt x="367" y="362" on="0"/>
        <pt x="368" y="380" on="0"/>
        <pt x="368" y="388" on="1"/>
        <pt x="368" y="430" on="0"/>
        <pt x="339" y="473" on="0"/>
        <pt x="303" y="473" on="1"/>
        <pt x="271" y="473" on="0"/>
        <pt x="254" y="470" on="1"/>
        <pt x="244" y="468" on="0"/>
        <pt x="237" y="467" on="1"/>
        <pt x="218" y="242" on="1"/>
        <pt x="281" y="242" on="1"/>
        <pt x="316" y="242" on="0"/>
        <pt x="361" y="302" on="0"/>
      </contour>
    </TTGlyph>
    <TTGlyph name="U" xMin="71" yMin="-7" xMax="541" yMax="700">
      <contour>
        <pt x="498" y="215" on="1"/>
        <pt x="492" y="153" on="0"/>
        <pt x="460" y="68" on="0"/>
        <pt x="403" y="16" on="0"/>
        <pt x="322" y="-7" on="0"/>
        <pt x="267" y="-7" on="1"/>
        <pt x="224" y="-7" on="0"/>
        <pt x="151" y="12" on="0"/>
        <pt x="100" y="56" on="0"/>
        <pt x="71" y="128" on="0"/>
        <pt x="71" y="180" on="1"/>
        <pt x="71" y="188" on="0"/>
        <pt x="72" y="206" on="0"/>
        <pt x="73" y="215" on="1"/>
        <pt x="116" y="700" on="1"/>
        <pt x="253" y="700" on="1"/>
        <pt x="210" y="211" on="1"/>
        <pt x="209" y="200" on="0"/>
        <pt x="208" y="186" on="0"/>
        <pt x="208" y="181" on="1"/>
        <pt x="208" y="111" on="0"/>
        <pt x="277" y="111" on="1"/>
        <pt x="316" y="111" on="0"/>
        <pt x="356" y="154" on="0"/>
        <pt x="360" y="196" on="1"/>
        <pt x="404" y="700" on="1"/>
        <pt x="541" y="700" on="1"/>
      </contour>
    </TTGlyph>
    <TTGlyph name="Uacute" xMin="71" yMin="-7" xMax="541" yMax="841">
      <contour>
        <pt x="254" y="726" on="1"/>
        <pt x="368" y="841" on="1"/>
        <pt x="529" y="841" on="1"/>
        <pt x="372" y="726" on="1"/>
      </contour>
      <contour>
        <pt x="498" y="215" on="1"/>
        <pt x="492" y="153" on="0"/>
        <pt x="460" y="68" on="0"/>
        <pt x="403" y="16" on="0"/>
        <pt x="322" y="-7" on="0"/>
        <pt x="267" y="-7" on="1"/>
        <pt x="224" y="-7" on="0"/>
        <pt x="151" y="12" on="0"/>
        <pt x="100" y="56" on="0"/>
        <pt x="71" y="128" on="0"/>
        <pt x="71" y="180" on="1"/>
        <pt x="71" y="188" on="0"/>
        <pt x="72" y="206" on="0"/>
        <pt x="73" y="215" on="1"/>
        <pt x="116" y="700" on="1"/>
        <pt x="253" y="700" on="1"/>
        <pt x="210" y="211" on="1"/>
        <pt x="209" y="200" on="0"/>
        <pt x="208" y="186" on="0"/>
        <pt x="208" y="181" on="1"/>
        <pt x="208" y="111" on="0"/>
        <pt x="277" y="111" on="1"/>
        <pt x="316" y="111" on="0"/>
        <pt x="356" y="154" on="0"/>
        <pt x="360" y="196" on="1"/>
        <pt x="404" y="700" on="1"/>
        <pt x="541" y="700" on="1"/>
      </contour>
    </TTGlyph>
    <TTGlyph name="Ucircumflex" xMin="71" yMin="-7" xMax="541" yMax="845">
      <contour>
        <pt x="371" y="730" on="1"/>
        <pt x="337" y="791" on="1"/>
        <pt x="291" y="730" on="1"/>
        <pt x="143" y="730" on="1"/>
        <pt x="263" y="845" on="1"/>
        <pt x="415" y="845" on="1"/>
        <pt x="516" y="730" on="1"/>
      </contour>
      <contour>
        <pt x="498" y="215" on="1"/>
        <pt x="492" y="153" on="0"/>
        <pt x="460" y="68" on="0"/>
        <pt x="403" y="16" on="0"/>
        <pt x="322" y="-7" on="0"/>
        <pt x="267" y="-7" on="1"/>
        <pt x="224" y="-7" on="0"/>
        <pt x="151" y="12" on="0"/>
        <pt x="100" y="56" on="0"/>
        <pt x="71" y="128" on="0"/>
        <pt x="71" y="180" on="1"/>
        <pt x="71" y="188" on="0"/>
        <pt x="72" y="206" on="0"/>
        <pt x="73" y="215" on="1"/>
        <pt x="116" y="700" on="1"/>
        <pt x="253" y="700" on="1"/>
        <pt x="210" y="211" on="1"/>
        <pt x="209" y="200" on="0"/>
        <pt x="208" y="186" on="0"/>
        <pt x="208" y="181" on="1"/>
        <pt x="208" y="111" on="0"/>
        <pt x="277" y="111" on="1"/>
        <pt x="316" y="111" on="0"/>
        <pt x="356" y="154" on="0"/>
        <pt x="360" y="196" on="1"/>
        <pt x="404" y="700" on="1"/>
        <pt x="541" y="700" on="1"/>
      </contour>
    </TTGlyph>
    <TTGlyph name="Udieresis" xMin="71" yMin="-7" xMax="541" yMax="845">
      <contour>
        <pt x="369" y="730" on="1"/>
        <pt x="380" y="845" on="1"/>
        <pt x="510" y="845" on="1"/>
        <pt x="499" y="730" on="1"/>
      </contour>
      <contour>
        <pt x="169" y="730" on="1"/>
        <pt x="180" y="845" on="1"/>
        <pt x="310" y="845" on="1"/>
        <pt x="299" y="730" on="1"/>
      </contour>
      <contour>
        <pt x="498" y="215" on="1"/>
        <pt x="492" y="153" on="0"/>
        <pt x="460" y="68" on="0"/>
        <pt x="403" y="16" on="0"/>
        <pt x="322" y="-7" on="0"/>
        <pt x="267" y="-7" on="1"/>
        <pt x="224" y="-7" on="0"/>
        <pt x="151" y="12" on="0"/>
        <pt x="100" y="56" on="0"/>
        <pt x="71" y="128" on="0"/>
        <pt x="71" y="180" on="1"/>
        <pt x="71" y="188" on="0"/>
        <pt x="72" y="206" on="0"/>
        <pt x="73" y="215" on="1"/>
        <pt x="116" y="700" on="1"/>
        <pt x="253" y="700" on="1"/>
        <pt x="210" y="211" on="1"/>
        <pt x="209" y="200" on="0"/>
        <pt x="208" y="186" on="0"/>
        <pt x="208" y="181" on="1"/>
        <pt x="208" y="111" on="0"/>
        <pt x="277" y="111" on="1"/>
        <pt x="316" y="111" on="0"/>
        <pt x="356" y="154" on="0"/>
        <pt x="360" y="196" on="1"/>
        <pt x="404" y="700" on="1"/>
        <pt x="541" y="700" on="1"/>
      </contour>
    </TTGlyph>
    <TTGlyph name="Ugrave" xMin="71" yMin="-7" xMax="541" yMax="841">
      <contour>
        <pt x="301" y="726" on="1"/>
        <pt x="154" y="841" on="1"/>
        <pt x="315" y="841" on="1"/>
        <pt x="409" y="726" on="1"/>
      </contour>
      <contour>
        <pt x="498" y="215" on="1"/>
        <pt x="492" y="153" on="0"/>
        <pt x="460" y="68" on="0"/>
        <pt x="403" y="16" on="0"/>
        <pt x="322" y="-7" on="0"/>
        <pt x="267" y="-7" on="1"/>
        <pt x="224" y="-7" on="0"/>
        <pt x="151" y="12" on="0"/>
        <pt x="100" y="56" on="0"/>
        <pt x="71" y="128" on="0"/>
        <pt x="71" y="180" on="1"/>
        <pt x="71" y="188" on="0"/>
        <pt x="72" y="206" on="0"/>
        <pt x="73" y="215" on="1"/>
        <pt x="116" y="700" on="1"/>
        <pt x="253" y="700" on="1"/>
        <pt x="210" y="211" on="1"/>
        <pt x="209" y="200" on="0"/>
        <pt x="208" y="186" on="0"/>
        <pt x="208" y="181" on="1"/>
        <pt x="208" y="111" on="0"/>
        <pt x="277" y="111" on="1"/>
        <pt x="316" y="111" on="0"/>
        <pt x="356" y="154" on="0"/>
        <pt x="360" y="196" on="1"/>
        <pt x="404" y="700" on="1"/>
        <pt x="541" y="700" on="1"/>
      </contour>
    </TTGlyph>
    <TTGlyph name="V" xMin="76" yMin="0" xMax="568" yMax="700">
      <contour>
        <pt x="366" y="0" on="1"/>
        <pt x="155" y="0" on="1"/>
        <pt x="76" y="700" on="1"/>
        <pt x="217" y="700" on="1"/>
        <pt x="269" y="98" on="1"/>
        <pt x="431" y="700" on="1"/>
        <pt x="568" y="700" on="1"/>
      </contour>
    </TTGlyph>
    <TTGlyph name="W" xMin="69" yMin="0" xMax="634" yMax="700">
      <contour>
        <pt x="539" y="0" on="1"/>
        <pt x="346" y="0" on="1"/>
        <pt x="324" y="235" on="1"/>
        <pt x="254" y="0" on="1"/>
        <pt x="69" y="0" on="1"/>
        <pt x="96" y="700" on="1"/>
        <pt x="216" y="700" on="1"/>
        <pt x="191" y="107" on="1"/>
        <pt x="288" y="405" on="1"/>
        <pt x="402" y="405" on="1"/>
        <pt x="439" y="107" on="1"/>
        <pt x="519" y="700" on="1"/>
        <pt x="634" y="700" on="1"/>
      </contour>
    </TTGlyph>
    <TTGlyph name="X" xMin="5" yMin="0" xMax="554" yMax="700">
      <contour>
        <pt x="347" y="0" on="1"/>
        <pt x="275" y="232" on="1"/>
        <pt x="156" y="0" on="1"/>
        <pt x="5" y="0" on="1"/>
        <pt x="216" y="363" on="1"/>
        <pt x="86" y="700" on="1"/>
        <pt x="238" y="700" on="1"/>
        <pt x="302" y="493" on="1"/>
        <pt x="405" y="700" on="1"/>
        <pt x="554" y="700" on="1"/>
        <pt x="357" y="364" on="1"/>
        <pt x="500" y="0" on="1"/>
      </contour>
    </TTGlyph>
    <TTGlyph name="Y" xMin="61" yMin="0" xMax="572" yMax="700">
      <contour>
        <pt x="350" y="308" on="1"/>
        <pt x="324" y="0" on="1"/>
        <pt x="184" y="0" on="1"/>
        <pt x="210" y="308" on="1"/>
        <pt x="61" y="700" on="1"/>
        <pt x="206" y="700" on="1"/>
        <pt x="293" y="430" on="1"/>
        <pt x="428" y="700" on="1"/>
        <pt x="572" y="700" on="1"/>
      </contour>
    </TTGlyph>
    <TTGlyph name="Yacute" xMin="61" yMin="0" xMax="572" yMax="841">
      <contour>
        <pt x="249" y="726" on="1"/>
        <pt x="363" y="841" on="1"/>
        <pt x="524" y="841" on="1"/>
        <pt x="362" y="726" on="1"/>
      </contour>
      <contour>
        <pt x="350" y="308" on="1"/>
        <pt x="324" y="0" on="1"/>
        <pt x="184" y="0" on="1"/>
        <pt x="210" y="308" on="1"/>
        <pt x="61" y="700" on="1"/>
        <pt x="206" y="700" on="1"/>
        <pt x="293" y="430" on="1"/>
        <pt x="428" y="700" on="1"/>
        <pt x="572" y="700" on="1"/>
      </contour>
    </TTGlyph>
    <TTGlyph name="Ydieresis" xMin="61" yMin="0" xMax="572" yMax="835">
      <contour>
        <pt x="350" y="308" on="1"/>
        <pt x="324" y="0" on="1"/>
        <pt x="184" y="0" on="1"/>
        <pt x="210" y="308" on="1"/>
        <pt x="61" y="700" on="1"/>
        <pt x="206" y="700" on="1"/>
        <pt x="293" y="430" on="1"/>
        <pt x="428" y="700" on="1"/>
        <pt x="572" y="700" on="1"/>
      </contour>
      <contour>
        <pt x="352" y="720" on="1"/>
        <pt x="363" y="835" on="1"/>
        <pt x="493" y="835" on="1"/>
        <pt x="482" y="720" on="1"/>
      </contour>
      <contour>
        <pt x="152" y="720" on="1"/>
        <pt x="163" y="835" on="1"/>
        <pt x="293" y="835" on="1"/>
        <pt x="282" y="720" on="1"/>
      </contour>
    </TTGlyph>
    <TTGlyph name="Z" xMin="25" yMin="0" xMax="482" yMax="700">
      <contour>
        <pt x="187" y="119" on="1"/>
        <pt x="421" y="119" on="1"/>
        <pt x="411" y="0" on="1"/>
        <pt x="25" y="0" on="1"/>
        <pt x="36" y="133" on="1"/>
        <pt x="320" y="581" on="1"/>
        <pt x="98" y="581" on="1"/>
        <pt x="109" y="700" on="1"/>
        <pt x="482" y="700" on="1"/>
        <pt x="470" y="567" on="1"/>
      </contour>
    </TTGlyph>
    <TTGlyph name="Zcaron" xMin="25" yMin="0" xMax="496" yMax="845">
      <contour>
        <pt x="270" y="845" on="1"/>
        <pt x="305" y="784" on="1"/>
        <pt x="350" y="845" on="1"/>
        <pt x="496" y="845" on="1"/>
        <pt x="376" y="730" on="1"/>
        <pt x="224" y="730" on="1"/>
        <pt x="123" y="845" on="1"/>
      </contour>
      <contour>
        <pt x="187" y="119" on="1"/>
        <pt x="421" y="119" on="1"/>
        <pt x="411" y="0" on="1"/>
        <pt x="25" y="0" on="1"/>
        <pt x="36" y="133" on="1"/>
        <pt x="320" y="581" on="1"/>
        <pt x="98" y="581" on="1"/>
        <pt x="109" y="700" on="1"/>
        <pt x="482" y="700" on="1"/>
        <pt x="470" y="567" on="1"/>
      </contour>
    </TTGlyph>
    <TTGlyph name="a" xMin="57" yMin="-9" xMax="484" yMax="509">
      <contour>
        <pt x="60" y="237" on="1"/>
        <pt x="67" y="314" on="0"/>
        <pt x="101" y="418" on="0"/>
        <pt x="162" y="482" on="0"/>
        <pt x="252" y="509" on="0"/>
        <pt x="314" y="509" on="1"/>
        <pt x="354" y="509" on="0"/>
        <pt x="445" y="494" on="0"/>
        <pt x="478" y="485" on="1"/>
        <pt x="448" y="127" on="1"/>
        <pt x="448" y="114" on="0"/>
        <pt x="462" y="100" on="0"/>
        <pt x="484" y="100" on="1"/>
        <pt x="476" y="0" on="1"/>
        <pt x="418" y="0" on="1"/>
        <pt x="407" y="0" on="0"/>
        <pt x="380" y="4" on="0"/>
        <pt x="354" y="17" on="0"/>
        <pt x="335" y="39" on="0"/>
        <pt x="331" y="57" on="1"/>
        <pt x="306" y="26" on="0"/>
        <pt x="241" y="-9" on="0"/>
        <pt x="196" y="-9" on="1"/>
        <pt x="124" y="-9" on="0"/>
        <pt x="57" y="70" on="0"/>
        <pt x="57" y="167" on="1"/>
        <pt x="57" y="200" on="0"/>
      </contour>
      <contour>
        <pt x="241" y="105" on="1"/>
        <pt x="261" y="105" on="0"/>
        <pt x="290" y="127" on="0"/>
        <pt x="310" y="162" on="0"/>
        <pt x="322" y="203" on="0"/>
        <pt x="323" y="221" on="1"/>
        <pt x="337" y="393" on="1"/>
        <pt x="326" y="394" on="0"/>
        <pt x="304" y="395" on="0"/>
        <pt x="295" y="395" on="1"/>
        <pt x="275" y="395" on="0"/>
        <pt x="238" y="378" on="0"/>
        <pt x="209" y="330" on="0"/>
        <pt x="192" y="245" on="0"/>
        <pt x="192" y="177" on="1"/>
        <pt x="192" y="133" on="0"/>
        <pt x="215" y="105" on="0"/>
      </contour>
    </TTGlyph>
    <TTGlyph name="aacute" xMin="57" yMin="-9" xMax="503" yMax="715">
      <contour>
        <pt x="60" y="237" on="1"/>
        <pt x="67" y="314" on="0"/>
        <pt x="101" y="418" on="0"/>
        <pt x="162" y="482" on="0"/>
        <pt x="252" y="509" on="0"/>
        <pt x="314" y="509" on="1"/>
        <pt x="354" y="509" on="0"/>
        <pt x="445" y="494" on="0"/>
        <pt x="478" y="485" on="1"/>
        <pt x="448" y="127" on="1"/>
        <pt x="448" y="114" on="0"/>
        <pt x="462" y="100" on="0"/>
        <pt x="484" y="100" on="1"/>
        <pt x="476" y="0" on="1"/>
        <pt x="418" y="0" on="1"/>
        <pt x="407" y="0" on="0"/>
        <pt x="380" y="4" on="0"/>
        <pt x="354" y="17" on="0"/>
        <pt x="335" y="39" on="0"/>
        <pt x="331" y="57" on="1"/>
        <pt x="306" y="26" on="0"/>
        <pt x="241" y="-9" on="0"/>
        <pt x="196" y="-9" on="1"/>
        <pt x="124" y="-9" on="0"/>
        <pt x="57" y="70" on="0"/>
        <pt x="57" y="167" on="1"/>
        <pt x="57" y="200" on="0"/>
      </contour>
      <contour>
        <pt x="241" y="105" on="1"/>
        <pt x="261" y="105" on="0"/>
        <pt x="290" y="127" on="0"/>
        <pt x="310" y="162" on="0"/>
        <pt x="322" y="203" on="0"/>
        <pt x="323" y="221" on="1"/>
        <pt x="337" y="393" on="1"/>
        <pt x="326" y="394" on="0"/>
        <pt x="304" y="395" on="0"/>
        <pt x="295" y="395" on="1"/>
        <pt x="275" y="395" on="0"/>
        <pt x="238" y="378" on="0"/>
        <pt x="209" y="330" on="0"/>
        <pt x="192" y="245" on="0"/>
        <pt x="192" y="177" on="1"/>
        <pt x="192" y="133" on="0"/>
        <pt x="215" y="105" on="0"/>
      </contour>
      <contour>
        <pt x="228" y="580" on="1"/>
        <pt x="339" y="715" on="1"/>
        <pt x="503" y="715" on="1"/>
        <pt x="339" y="580" on="1"/>
      </contour>
    </TTGlyph>
    <TTGlyph name="acircumflex" xMin="57" yMin="-9" xMax="511" yMax="715">
      <contour>
        <pt x="60" y="237" on="1"/>
        <pt x="67" y="314" on="0"/>
        <pt x="101" y="418" on="0"/>
        <pt x="162" y="482" on="0"/>
        <pt x="252" y="509" on="0"/>
        <pt x="314" y="509" on="1"/>
        <pt x="354" y="509" on="0"/>
        <pt x="445" y="494" on="0"/>
        <pt x="478" y="485" on="1"/>
        <pt x="448" y="127" on="1"/>
        <pt x="448" y="114" on="0"/>
        <pt x="462" y="100" on="0"/>
        <pt x="484" y="100" on="1"/>
        <pt x="476" y="0" on="1"/>
        <pt x="418" y="0" on="1"/>
        <pt x="407" y="0" on="0"/>
        <pt x="380" y="4" on="0"/>
        <pt x="354" y="17" on="0"/>
        <pt x="335" y="39" on="0"/>
        <pt x="331" y="57" on="1"/>
        <pt x="306" y="26" on="0"/>
        <pt x="241" y="-9" on="0"/>
        <pt x="196" y="-9" on="1"/>
        <pt x="124" y="-9" on="0"/>
        <pt x="57" y="70" on="0"/>
        <pt x="57" y="167" on="1"/>
        <pt x="57" y="200" on="0"/>
      </contour>
      <contour>
        <pt x="241" y="105" on="1"/>
        <pt x="261" y="105" on="0"/>
        <pt x="290" y="127" on="0"/>
        <pt x="310" y="162" on="0"/>
        <pt x="322" y="203" on="0"/>
        <pt x="323" y="221" on="1"/>
        <pt x="337" y="393" on="1"/>
        <pt x="326" y="394" on="0"/>
        <pt x="304" y="395" on="0"/>
        <pt x="295" y="395" on="1"/>
        <pt x="275" y="395" on="0"/>
        <pt x="238" y="378" on="0"/>
        <pt x="209" y="330" on="0"/>
        <pt x="192" y="245" on="0"/>
        <pt x="192" y="177" on="1"/>
        <pt x="192" y="133" on="0"/>
        <pt x="215" y="105" on="0"/>
      </contour>
      <contour>
        <pt x="367" y="580" on="1"/>
        <pt x="324" y="654" on="1"/>
        <pt x="267" y="580" on="1"/>
        <pt x="118" y="580" on="1"/>
        <pt x="252" y="715" on="1"/>
        <pt x="400" y="715" on="1"/>
        <pt x="511" y="580" on="1"/>
      </contour>
    </TTGlyph>
    <TTGlyph name="acute" xMin="65" yMin="580" xMax="340" yMax="715">
      <contour>
        <pt x="65" y="580" on="1"/>
        <pt x="176" y="715" on="1"/>
        <pt x="340" y="715" on="1"/>
        <pt x="176" y="580" on="1"/>
      </contour>
    </TTGlyph>
    <TTGlyph name="adieresis" xMin="57" yMin="-9" xMax="484" yMax="675">
      <contour>
        <pt x="60" y="237" on="1"/>
        <pt x="67" y="314" on="0"/>
        <pt x="101" y="418" on="0"/>
        <pt x="162" y="482" on="0"/>
        <pt x="252" y="509" on="0"/>
        <pt x="314" y="509" on="1"/>
        <pt x="354" y="509" on="0"/>
        <pt x="445" y="494" on="0"/>
        <pt x="478" y="485" on="1"/>
        <pt x="448" y="127" on="1"/>
        <pt x="448" y="114" on="0"/>
        <pt x="462" y="100" on="0"/>
        <pt x="484" y="100" on="1"/>
        <pt x="476" y="0" on="1"/>
        <pt x="418" y="0" on="1"/>
        <pt x="407" y="0" on="0"/>
        <pt x="380" y="4" on="0"/>
        <pt x="354" y="17" on="0"/>
        <pt x="335" y="39" on="0"/>
        <pt x="331" y="57" on="1"/>
        <pt x="306" y="26" on="0"/>
        <pt x="241" y="-9" on="0"/>
        <pt x="196" y="-9" on="1"/>
        <pt x="124" y="-9" on="0"/>
        <pt x="57" y="70" on="0"/>
        <pt x="57" y="167" on="1"/>
        <pt x="57" y="200" on="0"/>
      </contour>
      <contour>
        <pt x="241" y="105" on="1"/>
        <pt x="261" y="105" on="0"/>
        <pt x="290" y="127" on="0"/>
        <pt x="310" y="162" on="0"/>
        <pt x="322" y="203" on="0"/>
        <pt x="323" y="221" on="1"/>
        <pt x="337" y="393" on="1"/>
        <pt x="326" y="394" on="0"/>
        <pt x="304" y="395" on="0"/>
        <pt x="295" y="395" on="1"/>
        <pt x="275" y="395" on="0"/>
        <pt x="238" y="378" on="0"/>
        <pt x="209" y="330" on="0"/>
        <pt x="192" y="245" on="0"/>
        <pt x="192" y="177" on="1"/>
        <pt x="192" y="133" on="0"/>
        <pt x="215" y="105" on="0"/>
      </contour>
      <contour>
        <pt x="343" y="560" on="1"/>
        <pt x="354" y="675" on="1"/>
        <pt x="484" y="675" on="1"/>
        <pt x="473" y="560" on="1"/>
      </contour>
      <contour>
        <pt x="143" y="560" on="1"/>
        <pt x="154" y="675" on="1"/>
        <pt x="284" y="675" on="1"/>
        <pt x="273" y="560" on="1"/>
      </contour>
    </TTGlyph>
    <TTGlyph name="ae" xMin="51" yMin="-9" xMax="715" yMax="509">
      <contour>
        <pt x="715" y="364" on="1"/>
        <pt x="715" y="281" on="0"/>
        <pt x="625" y="190" on="0"/>
        <pt x="516" y="190" on="1"/>
        <pt x="500" y="190" on="0"/>
        <pt x="467" y="192" on="0"/>
        <pt x="448" y="194" on="1"/>
        <pt x="448" y="142" on="0"/>
        <pt x="478" y="105" on="0"/>
        <pt x="524" y="105" on="1"/>
        <pt x="558" y="105" on="0"/>
        <pt x="630" y="115" on="0"/>
        <pt x="653" y="120" on="1"/>
        <pt x="643" y="8" on="1"/>
        <pt x="631" y="5" on="0"/>
        <pt x="597" y="-2" on="0"/>
        <pt x="562" y="-6" on="0"/>
        <pt x="528" y="-9" on="0"/>
        <pt x="514" y="-9" on="1"/>
        <pt x="459" y="-9" on="0"/>
        <pt x="378" y="16" on="0"/>
        <pt x="353" y="52" on="1"/>
        <pt x="330" y="25" on="0"/>
        <pt x="247" y="-9" on="0"/>
        <pt x="192" y="-9" on="1"/>
        <pt x="164" y="-9" on="0"/>
        <pt x="113" y="4" on="0"/>
        <pt x="74" y="35" on="0"/>
        <pt x="51" y="87" on="0"/>
        <pt x="51" y="126" on="1"/>
        <pt x="51" y="229" on="0"/>
        <pt x="164" y="316" on="0"/>
        <pt x="273" y="316" on="1"/>
        <pt x="282" y="316" on="0"/>
        <pt x="309" y="314" on="0"/>
        <pt x="323" y="312" on="1"/>
        <pt x="326" y="339" on="1"/>
        <pt x="327" y="343" on="0"/>
        <pt x="327" y="350" on="1"/>
        <pt x="327" y="373" on="0"/>
        <pt x="298" y="399" on="0"/>
        <pt x="264" y="399" on="1"/>
        <pt x="221" y="399" on="0"/>
        <pt x="147" y="386" on="0"/>
        <pt x="108" y="375" on="1"/>
        <pt x="118" y="489" on="1"/>
        <pt x="132" y="493" on="0"/>
        <pt x="171" y="500" on="0"/>
        <pt x="213" y="506" on="0"/>
        <pt x="256" y="509" on="0"/>
        <pt x="274" y="509" on="1"/>
        <pt x="330" y="509" on="0"/>
        <pt x="399" y="491" on="0"/>
        <pt x="419" y="474" on="1"/>
        <pt x="469" y="509" on="0"/>
        <pt x="546" y="509" on="1"/>
        <pt x="599" y="509" on="0"/>
        <pt x="665" y="479" on="0"/>
        <pt x="702" y="435" on="0"/>
        <pt x="715" y="384" on="0"/>
      </contour>
      <contour>
        <pt x="240" y="103" on="1"/>
        <pt x="261" y="103" on="0"/>
        <pt x="288" y="118" on="0"/>
        <pt x="304" y="140" on="0"/>
        <pt x="311" y="165" on="0"/>
        <pt x="312" y="175" on="1"/>
        <pt x="315" y="214" on="1"/>
        <pt x="290" y="219" on="0"/>
        <pt x="265" y="219" on="1"/>
        <pt x="231" y="219" on="0"/>
        <pt x="188" y="182" on="0"/>
        <pt x="188" y="147" on="1"/>
        <pt x="188" y="127" on="0"/>
        <pt x="212" y="103" on="0"/>
      </contour>
      <contour>
        <pt x="534" y="399" on="1"/>
        <pt x="505" y="399" on="0"/>
        <pt x="469" y="354" on="0"/>
        <pt x="458" y="297" on="1"/>
        <pt x="481" y="294" on="0"/>
        <pt x="501" y="294" on="1"/>
        <pt x="538" y="294" on="0"/>
        <pt x="584" y="318" on="0"/>
        <pt x="584" y="348" on="1"/>
        <pt x="584" y="369" on="0"/>
        <pt x="567" y="399" on="0"/>
      </contour>
    </TTGlyph>
    <TTGlyph name="agrave" xMin="57" yMin="-9" xMax="484" yMax="715">
      <contour>
        <pt x="60" y="237" on="1"/>
        <pt x="67" y="314" on="0"/>
        <pt x="101" y="418" on="0"/>
        <pt x="162" y="482" on="0"/>
        <pt x="252" y="509" on="0"/>
        <pt x="314" y="509" on="1"/>
        <pt x="354" y="509" on="0"/>
        <pt x="445" y="494" on="0"/>
        <pt x="478" y="485" on="1"/>
        <pt x="448" y="127" on="1"/>
        <pt x="448" y="114" on="0"/>
        <pt x="462" y="100" on="0"/>
        <pt x="484" y="100" on="1"/>
        <pt x="476" y="0" on="1"/>
        <pt x="418" y="0" on="1"/>
        <pt x="407" y="0" on="0"/>
        <pt x="380" y="4" on="0"/>
        <pt x="354" y="17" on="0"/>
        <pt x="335" y="39" on="0"/>
        <pt x="331" y="57" on="1"/>
        <pt x="306" y="26" on="0"/>
        <pt x="241" y="-9" on="0"/>
        <pt x="196" y="-9" on="1"/>
        <pt x="124" y="-9" on="0"/>
        <pt x="57" y="70" on="0"/>
        <pt x="57" y="167" on="1"/>
        <pt x="57" y="200" on="0"/>
      </contour>
      <contour>
        <pt x="241" y="105" on="1"/>
        <pt x="261" y="105" on="0"/>
        <pt x="290" y="127" on="0"/>
        <pt x="310" y="162" on="0"/>
        <pt x="322" y="203" on="0"/>
        <pt x="323" y="221" on="1"/>
        <pt x="337" y="393" on="1"/>
        <pt x="326" y="394" on="0"/>
        <pt x="304" y="395" on="0"/>
        <pt x="295" y="395" on="1"/>
        <pt x="275" y="395" on="0"/>
        <pt x="238" y="378" on="0"/>
        <pt x="209" y="330" on="0"/>
        <pt x="192" y="245" on="0"/>
        <pt x="192" y="177" on="1"/>
        <pt x="192" y="133" on="0"/>
        <pt x="215" y="105" on="0"/>
      </contour>
      <contour>
        <pt x="315" y="580" on="1"/>
        <pt x="170" y="715" on="1"/>
        <pt x="329" y="715" on="1"/>
        <pt x="421" y="580" on="1"/>
      </contour>
    </TTGlyph>
    <TTGlyph name="ampersand" xMin="51" yMin="-10" xMax="529" yMax="708">
      <contour>
        <pt x="54" y="224" on="1"/>
        <pt x="58" y="266" on="0"/>
        <pt x="72" y="324" on="0"/>
        <pt x="95" y="365" on="0"/>
        <pt x="128" y="391" on="0"/>
        <pt x="150" y="401" on="1"/>
        <pt x="135" y="410" on="0"/>
        <pt x="113" y="436" on="0"/>
        <pt x="100" y="467" on="0"/>
        <pt x="93" y="501" on="0"/>
        <pt x="93" y="516" on="1"/>
        <pt x="93" y="525" on="1"/>
        <pt x="98" y="581" on="0"/>
        <pt x="127" y="652" on="0"/>
        <pt x="176" y="693" on="0"/>
        <pt x="245" y="708" on="0"/>
        <pt x="291" y="708" on="1"/>
        <pt x="310" y="708" on="0"/>
        <pt x="350" y="706" on="0"/>
        <pt x="387" y="702" on="0"/>
        <pt x="419" y="697" on="0"/>
        <pt x="430" y="695" on="1"/>
        <pt x="420" y="581" on="1"/>
        <pt x="416" y="582" on="0"/>
        <pt x="389" y="587" on="0"/>
        <pt x="355" y="591" on="0"/>
        <pt x="321" y="595" on="0"/>
        <pt x="310" y="595" on="1"/>
        <pt x="286" y="595" on="0"/>
        <pt x="254" y="588" on="0"/>
        <pt x="235" y="568" on="0"/>
        <pt x="228" y="534" on="0"/>
        <pt x="228" y="508" on="1"/>
        <pt x="228" y="474" on="0"/>
        <pt x="259" y="449" on="0"/>
        <pt x="301" y="449" on="1"/>
        <pt x="529" y="449" on="1"/>
        <pt x="519" y="336" on="1"/>
        <pt x="446" y="336" on="1"/>
        <pt x="417" y="13" on="1"/>
        <pt x="376" y="4" on="0"/>
        <pt x="279" y="-10" on="0"/>
        <pt x="219" y="-10" on="1"/>
        <pt x="131" y="-10" on="0"/>
        <pt x="51" y="76" on="0"/>
        <pt x="51" y="167" on="1"/>
        <pt x="51" y="178" on="0"/>
        <pt x="52" y="211" on="0"/>
      </contour>
      <contour>
        <pt x="276" y="336" on="1"/>
        <pt x="255" y="336" on="0"/>
        <pt x="221" y="323" on="0"/>
        <pt x="199" y="287" on="0"/>
        <pt x="187" y="225" on="0"/>
        <pt x="187" y="177" on="1"/>
        <pt x="187" y="140" on="0"/>
        <pt x="214" y="103" on="0"/>
        <pt x="246" y="103" on="1"/>
        <pt x="263" y="103" on="0"/>
        <pt x="290" y="107" on="0"/>
        <pt x="299" y="110" on="1"/>
        <pt x="319" y="336" on="1"/>
        <pt x="276" y="336" on="1"/>
      </contour>
    </TTGlyph>
    <TTGlyph name="approxequal" xMin="76" yMin="139" xMax="464" yMax="466">
      <contour>
        <pt x="101" y="433" on="1"/>
        <pt x="138" y="454" on="0"/>
        <pt x="187" y="466" on="0"/>
        <pt x="209" y="466" on="1"/>
        <pt x="231" y="466" on="0"/>
        <pt x="271" y="454" on="0"/>
        <pt x="309" y="439" on="0"/>
        <pt x="347" y="427" on="0"/>
        <pt x="366" y="427" on="1"/>
        <pt x="392" y="427" on="0"/>
        <pt x="441" y="447" on="0"/>
        <pt x="464" y="461" on="1"/>
        <pt x="454" y="341" on="1"/>
        <pt x="430" y="326" on="0"/>
        <pt x="375" y="308" on="0"/>
        <pt x="347" y="308" on="1"/>
        <pt x="324" y="308" on="0"/>
        <pt x="285" y="321" on="0"/>
        <pt x="249" y="336" on="0"/>
        <pt x="212" y="349" on="0"/>
        <pt x="191" y="349" on="1"/>
        <pt x="165" y="349" on="0"/>
        <pt x="114" y="327" on="0"/>
        <pt x="91" y="313" on="1"/>
      </contour>
      <contour>
        <pt x="86" y="264" on="1"/>
        <pt x="123" y="285" on="0"/>
        <pt x="172" y="297" on="0"/>
        <pt x="194" y="297" on="1"/>
        <pt x="216" y="297" on="0"/>
        <pt x="256" y="285" on="0"/>
        <pt x="294" y="270" on="0"/>
        <pt x="332" y="258" on="0"/>
        <pt x="351" y="258" on="1"/>
        <pt x="377" y="258" on="0"/>
        <pt x="426" y="278" on="0"/>
        <pt x="449" y="292" on="1"/>
        <pt x="439" y="172" on="1"/>
        <pt x="415" y="157" on="0"/>
        <pt x="360" y="139" on="0"/>
        <pt x="332" y="139" on="1"/>
        <pt x="309" y="139" on="0"/>
        <pt x="270" y="152" on="0"/>
        <pt x="234" y="167" on="0"/>
        <pt x="197" y="180" on="0"/>
        <pt x="176" y="180" on="1"/>
        <pt x="150" y="180" on="0"/>
        <pt x="99" y="158" on="0"/>
        <pt x="76" y="144" on="1"/>
      </contour>
    </TTGlyph>
    <TTGlyph name="aring" xMin="57" yMin="-9" xMax="484" yMax="767">
      <contour>
        <pt x="348" y="646" on="1"/>
        <pt x="349" y="651" on="0"/>
        <pt x="349" y="660" on="0"/>
        <pt x="349" y="664" on="1"/>
        <pt x="349" y="680" on="0"/>
        <pt x="338" y="695" on="0"/>
        <pt x="324" y="695" on="1"/>
        <pt x="304" y="695" on="0"/>
        <pt x="291" y="662" on="0"/>
        <pt x="291" y="628" on="1"/>
        <pt x="291" y="612" on="0"/>
        <pt x="302" y="597" on="0"/>
        <pt x="316" y="597" on="1"/>
        <pt x="333" y="597" on="0"/>
        <pt x="346" y="621" on="0"/>
      </contour>
      <contour>
        <pt x="436" y="645" on="1"/>
        <pt x="431" y="587" on="0"/>
        <pt x="374" y="523" on="0"/>
        <pt x="309" y="523" on="1"/>
        <pt x="257" y="523" on="0"/>
        <pt x="203" y="577" on="0"/>
        <pt x="203" y="627" on="1"/>
        <pt x="203" y="693" on="0"/>
        <pt x="263" y="767" on="0"/>
        <pt x="331" y="767" on="1"/>
        <pt x="382" y="767" on="0"/>
        <pt x="437" y="713" on="0"/>
        <pt x="437" y="663" on="1"/>
        <pt x="437" y="658" on="0"/>
        <pt x="437" y="650" on="0"/>
      </contour>
      <contour>
        <pt x="60" y="237" on="1"/>
        <pt x="67" y="314" on="0"/>
        <pt x="101" y="418" on="0"/>
        <pt x="162" y="482" on="0"/>
        <pt x="252" y="509" on="0"/>
        <pt x="314" y="509" on="1"/>
        <pt x="354" y="509" on="0"/>
        <pt x="445" y="494" on="0"/>
        <pt x="478" y="485" on="1"/>
        <pt x="448" y="127" on="1"/>
        <pt x="448" y="114" on="0"/>
        <pt x="462" y="100" on="0"/>
        <pt x="484" y="100" on="1"/>
        <pt x="476" y="0" on="1"/>
        <pt x="418" y="0" on="1"/>
        <pt x="407" y="0" on="0"/>
        <pt x="380" y="4" on="0"/>
        <pt x="354" y="17" on="0"/>
        <pt x="335" y="39" on="0"/>
        <pt x="331" y="57" on="1"/>
        <pt x="306" y="26" on="0"/>
        <pt x="241" y="-9" on="0"/>
        <pt x="196" y="-9" on="1"/>
        <pt x="124" y="-9" on="0"/>
        <pt x="57" y="70" on="0"/>
        <pt x="57" y="167" on="1"/>
        <pt x="57" y="200" on="0"/>
      </contour>
      <contour>
        <pt x="241" y="105" on="1"/>
        <pt x="261" y="105" on="0"/>
        <pt x="290" y="127" on="0"/>
        <pt x="310" y="162" on="0"/>
        <pt x="322" y="203" on="0"/>
        <pt x="323" y="221" on="1"/>
        <pt x="337" y="393" on="1"/>
        <pt x="326" y="394" on="0"/>
        <pt x="304" y="395" on="0"/>
        <pt x="295" y="395" on="1"/>
        <pt x="275" y="395" on="0"/>
        <pt x="238" y="378" on="0"/>
        <pt x="209" y="330" on="0"/>
        <pt x="192" y="245" on="0"/>
        <pt x="192" y="177" on="1"/>
        <pt x="192" y="133" on="0"/>
        <pt x="215" y="105" on="0"/>
      </contour>
    </TTGlyph>
    <TTGlyph name="asciicircum" xMin="56" yMin="420" xMax="493" yMax="760">
      <contour>
        <pt x="345" y="420" on="1"/>
        <pt x="301" y="660" on="1"/>
        <pt x="197" y="420" on="1"/>
        <pt x="56" y="420" on="1"/>
        <pt x="220" y="760" on="1"/>
        <pt x="394" y="760" on="1"/>
        <pt x="493" y="420" on="1"/>
      </contour>
    </TTGlyph>
    <TTGlyph name="asciitilde" xMin="85" yMin="231" xMax="458" yMax="389">
      <contour>
        <pt x="95" y="356" on="1"/>
        <pt x="132" y="377" on="0"/>
        <pt x="181" y="389" on="0"/>
        <pt x="203" y="389" on="1"/>
        <pt x="225" y="389" on="0"/>
        <pt x="265" y="377" on="0"/>
        <pt x="303" y="362" on="0"/>
        <pt x="341" y="350" on="0"/>
        <pt x="360" y="350" on="1"/>
        <pt x="386" y="350" on="0"/>
        <pt x="435" y="370" on="0"/>
        <pt x="458" y="384" on="1"/>
        <pt x="448" y="264" on="1"/>
        <pt x="424" y="249" on="0"/>
        <pt x="369" y="231" on="0"/>
        <pt x="341" y="231" on="1"/>
        <pt x="318" y="231" on="0"/>
        <pt x="279" y="244" on="0"/>
        <pt x="243" y="259" on="0"/>
        <pt x="206" y="272" on="0"/>
        <pt x="185" y="272" on="1"/>
        <pt x="159" y="272" on="0"/>
        <pt x="108" y="250" on="0"/>
        <pt x="85" y="236" on="1"/>
      </contour>
    </TTGlyph>
    <TTGlyph name="asterisk" xMin="60" yMin="302" xMax="505" yMax="730">
      <contour>
        <pt x="371" y="496" on="1"/>
        <pt x="394" y="468" on="0"/>
        <pt x="448" y="402" on="0"/>
        <pt x="468" y="378" on="1"/>
        <pt x="362" y="304" on="1"/>
        <pt x="282" y="441" on="1"/>
        <pt x="272" y="425" on="0"/>
        <pt x="250" y="388" on="0"/>
        <pt x="229" y="351" on="0"/>
        <pt x="209" y="316" on="0"/>
        <pt x="200" y="302" on="1"/>
        <pt x="96" y="380" on="1"/>
        <pt x="195" y="494" on="1"/>
        <pt x="161" y="502" on="0"/>
        <pt x="90" y="514" on="0"/>
        <pt x="60" y="520" on="1"/>
        <pt x="102" y="642" on="1"/>
        <pt x="232" y="585" on="1"/>
        <pt x="229" y="620" on="0"/>
        <pt x="218" y="700" on="0"/>
        <pt x="216" y="730" on="1"/>
        <pt x="350" y="730" on="1"/>
        <pt x="335" y="585" on="1"/>
        <pt x="367" y="597" on="0"/>
        <pt x="438" y="628" on="0"/>
        <pt x="467" y="639" on="1"/>
        <pt x="505" y="518" on="1"/>
      </contour>
    </TTGlyph>
    <TTGlyph name="at" xMin="91" yMin="-9" xMax="796" yMax="709">
      <contour>
        <pt x="490" y="441" on="1"/>
        <pt x="484" y="443" on="0"/>
        <pt x="459" y="446" on="0"/>
        <pt x="444" y="446" on="1"/>
        <pt x="417" y="446" on="0"/>
        <pt x="387" y="376" on="0"/>
        <pt x="387" y="302" on="1"/>
        <pt x="387" y="270" on="0"/>
        <pt x="404" y="245" on="0"/>
        <pt x="425" y="245" on="1"/>
        <pt x="443" y="245" on="0"/>
        <pt x="463" y="258" on="0"/>
        <pt x="474" y="277" on="0"/>
        <pt x="478" y="301" on="0"/>
        <pt x="479" y="312" on="1"/>
      </contour>
      <contour>
        <pt x="793" y="401" on="1"/>
        <pt x="788" y="344" on="0"/>
        <pt x="770" y="241" on="0"/>
        <pt x="731" y="162" on="0"/>
        <pt x="662" y="116" on="0"/>
        <pt x="605" y="116" on="1"/>
        <pt x="591" y="116" on="0"/>
        <pt x="559" y="125" on="0"/>
        <pt x="529" y="145" on="0"/>
        <pt x="506" y="178" on="0"/>
        <pt x="501" y="201" on="1"/>
        <pt x="494" y="192" on="0"/>
        <pt x="477" y="171" on="0"/>
        <pt x="450" y="155" on="0"/>
        <pt x="412" y="144" on="0"/>
        <pt x="385" y="144" on="1"/>
        <pt x="363" y="144" on="0"/>
        <pt x="320" y="155" on="0"/>
        <pt x="287" y="188" on="0"/>
        <pt x="266" y="247" on="0"/>
        <pt x="266" y="294" on="1"/>
        <pt x="266" y="377" on="0"/>
        <pt x="300" y="475" on="0"/>
        <pt x="359" y="528" on="0"/>
        <pt x="439" y="544" on="0"/>
        <pt x="485" y="544" on="1"/>
        <pt x="496" y="544" on="0"/>
        <pt x="531" y="542" on="0"/>
        <pt x="567" y="538" on="0"/>
        <pt x="602" y="533" on="0"/>
        <pt x="613" y="530" on="1"/>
        <pt x="588" y="237" on="1"/>
        <pt x="588" y="224" on="0"/>
        <pt x="601" y="211" on="0"/>
        <pt x="611" y="211" on="1"/>
        <pt x="623" y="211" on="0"/>
        <pt x="637" y="220" on="0"/>
        <pt x="648" y="257" on="0"/>
        <pt x="656" y="334" on="0"/>
        <pt x="662" y="401" on="1"/>
        <pt x="664" y="424" on="0"/>
        <pt x="666" y="461" on="0"/>
        <pt x="666" y="478" on="1"/>
        <pt x="666" y="519" on="0"/>
        <pt x="649" y="566" on="0"/>
        <pt x="604" y="591" on="0"/>
        <pt x="526" y="598" on="0"/>
        <pt x="465" y="598" on="1"/>
        <pt x="397" y="598" on="0"/>
        <pt x="311" y="578" on="0"/>
        <pt x="258" y="523" on="0"/>
        <pt x="233" y="424" on="0"/>
        <pt x="226" y="345" on="1"/>
        <pt x="224" y="319" on="0"/>
        <pt x="221" y="276" on="0"/>
        <pt x="221" y="257" on="1"/>
        <pt x="221" y="208" on="0"/>
        <pt x="240" y="147" on="0"/>
        <pt x="283" y="114" on="0"/>
        <pt x="355" y="102" on="0"/>
        <pt x="407" y="102" on="1"/>
        <pt x="444" y="102" on="0"/>
        <pt x="519" y="107" on="0"/>
        <pt x="540" y="109" on="1"/>
        <pt x="530" y="-1" on="1"/>
        <pt x="517" y="-3" on="0"/>
        <pt x="483" y="-5" on="0"/>
        <pt x="447" y="-8" on="0"/>
        <pt x="412" y="-9" on="0"/>
        <pt x="398" y="-9" on="1"/>
        <pt x="315" y="-9" on="0"/>
        <pt x="198" y="17" on="0"/>
        <pt x="125" y="78" on="0"/>
        <pt x="91" y="181" on="0"/>
        <pt x="91" y="258" on="1"/>
        <pt x="91" y="278" on="0"/>
        <pt x="93" y="321" on="0"/>
        <pt x="95" y="345" on="1"/>
        <pt x="104" y="451" on="0"/>
        <pt x="151" y="591" on="0"/>
        <pt x="238" y="675" on="0"/>
        <pt x="371" y="709" on="0"/>
        <pt x="465" y="709" on="1"/>
        <pt x="551" y="709" on="0"/>
        <pt x="675" y="689" on="0"/>
        <pt x="757" y="635" on="0"/>
        <pt x="796" y="540" on="0"/>
        <pt x="796" y="465" on="1"/>
        <pt x="796" y="436" on="0"/>
      </contour>
    </TTGlyph>
    <TTGlyph name="atilde" xMin="57" yMin="-9" xMax="488" yMax="720">
      <contour>
        <pt x="60" y="237" on="1"/>
        <pt x="67" y="314" on="0"/>
        <pt x="101" y="418" on="0"/>
        <pt x="162" y="482" on="0"/>
        <pt x="252" y="509" on="0"/>
        <pt x="314" y="509" on="1"/>
        <pt x="354" y="509" on="0"/>
        <pt x="445" y="494" on="0"/>
        <pt x="478" y="485" on="1"/>
        <pt x="448" y="127" on="1"/>
        <pt x="448" y="114" on="0"/>
        <pt x="462" y="100" on="0"/>
        <pt x="484" y="100" on="1"/>
        <pt x="476" y="0" on="1"/>
        <pt x="418" y="0" on="1"/>
        <pt x="407" y="0" on="0"/>
        <pt x="380" y="4" on="0"/>
        <pt x="354" y="17" on="0"/>
        <pt x="335" y="39" on="0"/>
        <pt x="331" y="57" on="1"/>
        <pt x="306" y="26" on="0"/>
        <pt x="241" y="-9" on="0"/>
        <pt x="196" y="-9" on="1"/>
        <pt x="124" y="-9" on="0"/>
        <pt x="57" y="70" on="0"/>
        <pt x="57" y="167" on="1"/>
        <pt x="57" y="200" on="0"/>
      </contour>
      <contour>
        <pt x="241" y="105" on="1"/>
        <pt x="261" y="105" on="0"/>
        <pt x="290" y="127" on="0"/>
        <pt x="310" y="162" on="0"/>
        <pt x="322" y="203" on="0"/>
        <pt x="323" y="221" on="1"/>
        <pt x="337" y="393" on="1"/>
        <pt x="326" y="394" on="0"/>
        <pt x="304" y="395" on="0"/>
        <pt x="295" y="395" on="1"/>
        <pt x="275" y="395" on="0"/>
        <pt x="238" y="378" on="0"/>
        <pt x="209" y="330" on="0"/>
        <pt x="192" y="245" on="0"/>
        <pt x="192" y="177" on="1"/>
        <pt x="192" y="133" on="0"/>
        <pt x="215" y="105" on="0"/>
      </contour>
      <contour>
        <pt x="156" y="688" on="1"/>
        <pt x="180" y="707" on="0"/>
        <pt x="234" y="720" on="0"/>
        <pt x="254" y="720" on="1"/>
        <pt x="272" y="720" on="0"/>
        <pt x="309" y="708" on="0"/>
        <pt x="346" y="693" on="0"/>
        <pt x="380" y="681" on="0"/>
        <pt x="395" y="681" on="1"/>
        <pt x="421" y="681" on="0"/>
        <pt x="467" y="700" on="0"/>
        <pt x="488" y="717" on="1"/>
        <pt x="479" y="612" on="1"/>
        <pt x="458" y="593" on="0"/>
        <pt x="406" y="580" on="0"/>
        <pt x="380" y="580" on="1"/>
        <pt x="361" y="580" on="0"/>
        <pt x="325" y="592" on="0"/>
        <pt x="290" y="607" on="0"/>
        <pt x="256" y="619" on="0"/>
        <pt x="240" y="619" on="1"/>
        <pt x="214" y="619" on="0"/>
        <pt x="164" y="597" on="0"/>
        <pt x="147" y="583" on="1"/>
      </contour>
    </TTGlyph>
    <TTGlyph name="b" xMin="55" yMin="-9" xMax="485" yMax="700">
      <contour>
        <pt x="482" y="272" on="1"/>
        <pt x="475" y="188" on="0"/>
        <pt x="436" y="79" on="0"/>
        <pt x="372" y="16" on="0"/>
        <pt x="283" y="-9" on="0"/>
        <pt x="225" y="-9" on="1"/>
        <pt x="179" y="-9" on="0"/>
        <pt x="103" y="-1" on="0"/>
        <pt x="55" y="5" on="1"/>
        <pt x="116" y="700" on="1"/>
        <pt x="249" y="700" on="1"/>
        <pt x="228" y="462" on="1"/>
        <pt x="251" y="484" on="0"/>
        <pt x="309" y="509" on="0"/>
        <pt x="347" y="509" on="1"/>
        <pt x="418" y="509" on="0"/>
        <pt x="485" y="420" on="0"/>
        <pt x="485" y="332" on="1"/>
        <pt x="485" y="321" on="0"/>
        <pt x="484" y="285" on="0"/>
      </contour>
      <contour>
        <pt x="302" y="395" on="1"/>
        <pt x="283" y="395" on="0"/>
        <pt x="251" y="375" on="0"/>
        <pt x="229" y="343" on="0"/>
        <pt x="215" y="304" on="0"/>
        <pt x="213" y="286" on="1"/>
        <pt x="197" y="107" on="1"/>
        <pt x="209" y="106" on="0"/>
        <pt x="233" y="105" on="0"/>
        <pt x="244" y="105" on="1"/>
        <pt x="262" y="105" on="0"/>
        <pt x="294" y="116" on="0"/>
        <pt x="321" y="149" on="0"/>
        <pt x="342" y="212" on="0"/>
        <pt x="348" y="263" on="1"/>
        <pt x="351" y="289" on="0"/>
        <pt x="351" y="316" on="1"/>
        <pt x="351" y="363" on="0"/>
        <pt x="326" y="395" on="0"/>
      </contour>
    </TTGlyph>
    <TTGlyph name="backslash" xMin="35" yMin="-110" xMax="330" yMax="810">
      <contour>
        <pt x="35" y="810" on="1"/>
        <pt x="164" y="810" on="1"/>
        <pt x="330" y="-110" on="1"/>
        <pt x="201" y="-110" on="1"/>
      </contour>
    </TTGlyph>
    <TTGlyph name="bar" xMin="70" yMin="-110" xMax="280" yMax="810">
      <contour>
        <pt x="70" y="-110" on="1"/>
        <pt x="150" y="810" on="1"/>
        <pt x="280" y="810" on="1"/>
        <pt x="200" y="-110" on="1"/>
      </contour>
    </TTGlyph>
    <TTGlyph name="braceleft" xMin="44" yMin="-127" xMax="361" yMax="827">
      <contour>
        <pt x="114" y="207" on="1"/>
        <pt x="114" y="248" on="0"/>
        <pt x="70" y="280" on="0"/>
        <pt x="44" y="280" on="1"/>
        <pt x="56" y="420" on="1"/>
        <pt x="84" y="420" on="0"/>
        <pt x="136" y="458" on="0"/>
        <pt x="140" y="504" on="1"/>
        <pt x="154" y="670" on="1"/>
        <pt x="162" y="754" on="0"/>
        <pt x="242" y="827" on="0"/>
        <pt x="307" y="827" on="1"/>
        <pt x="317" y="827" on="0"/>
        <pt x="354" y="824" on="0"/>
        <pt x="361" y="822" on="1"/>
        <pt x="352" y="714" on="1"/>
        <pt x="347" y="715" on="0"/>
        <pt x="332" y="717" on="0"/>
        <pt x="324" y="717" on="1"/>
        <pt x="286" y="717" on="0"/>
        <pt x="283" y="680" on="1"/>
        <pt x="266" y="484" on="1"/>
        <pt x="263" y="450" on="0"/>
        <pt x="242" y="400" on="0"/>
        <pt x="212" y="367" on="0"/>
        <pt x="176" y="350" on="0"/>
        <pt x="159" y="347" on="1"/>
        <pt x="175" y="345" on="0"/>
        <pt x="205" y="328" on="0"/>
        <pt x="229" y="300" on="0"/>
        <pt x="243" y="258" on="0"/>
        <pt x="243" y="230" on="1"/>
        <pt x="243" y="225" on="0"/>
        <pt x="242" y="208" on="0"/>
        <pt x="241" y="201" on="1"/>
        <pt x="227" y="40" on="1"/>
        <pt x="226" y="31" on="0"/>
        <pt x="225" y="17" on="0"/>
        <pt x="225" y="15" on="1"/>
        <pt x="225" y="-17" on="0"/>
        <pt x="260" y="-17" on="1"/>
        <pt x="268" y="-17" on="0"/>
        <pt x="283" y="-15" on="0"/>
        <pt x="288" y="-14" on="1"/>
        <pt x="279" y="-122" on="1"/>
        <pt x="271" y="-124" on="0"/>
        <pt x="233" y="-127" on="0"/>
        <pt x="223" y="-127" on="1"/>
        <pt x="199" y="-127" on="0"/>
        <pt x="154" y="-112" on="0"/>
        <pt x="118" y="-79" on="0"/>
        <pt x="97" y="-28" on="0"/>
        <pt x="97" y="8" on="1"/>
        <pt x="97" y="13" on="0"/>
        <pt x="98" y="32" on="0"/>
        <pt x="99" y="40" on="1"/>
        <pt x="110" y="161" on="1"/>
        <pt x="110" y="166" on="0"/>
        <pt x="112" y="180" on="0"/>
        <pt x="113" y="195" on="0"/>
        <pt x="114" y="206" on="0"/>
      </contour>
    </TTGlyph>
    <TTGlyph name="braceright" xMin="24" yMin="-127" xMax="341" yMax="827">
      <contour>
        <pt x="226" y="353" on="1"/>
        <pt x="211" y="356" on="0"/>
        <pt x="181" y="372" on="0"/>
        <pt x="157" y="401" on="0"/>
        <pt x="142" y="442" on="0"/>
        <pt x="142" y="470" on="1"/>
        <pt x="142" y="475" on="0"/>
        <pt x="143" y="491" on="0"/>
        <pt x="144" y="499" on="1"/>
        <pt x="159" y="660" on="1"/>
        <pt x="160" y="669" on="0"/>
        <pt x="160" y="684" on="0"/>
        <pt x="160" y="685" on="1"/>
        <pt x="160" y="717" on="0"/>
        <pt x="125" y="717" on="1"/>
        <pt x="117" y="717" on="0"/>
        <pt x="102" y="715" on="0"/>
        <pt x="97" y="714" on="1"/>
        <pt x="106" y="822" on="1"/>
        <pt x="110" y="823" on="0"/>
        <pt x="125" y="825" on="0"/>
        <pt x="142" y="826" on="0"/>
        <pt x="157" y="827" on="0"/>
        <pt x="162" y="827" on="1"/>
        <pt x="186" y="827" on="0"/>
        <pt x="231" y="812" on="0"/>
        <pt x="267" y="779" on="0"/>
        <pt x="288" y="728" on="0"/>
        <pt x="288" y="692" on="1"/>
        <pt x="288" y="687" on="0"/>
        <pt x="287" y="668" on="0"/>
        <pt x="286" y="660" on="1"/>
        <pt x="274" y="514" on="1"/>
        <pt x="273" y="506" on="0"/>
        <pt x="272" y="494" on="0"/>
        <pt x="272" y="491" on="1"/>
        <pt x="272" y="452" on="0"/>
        <pt x="315" y="420" on="0"/>
        <pt x="341" y="420" on="1"/>
        <pt x="329" y="280" on="1"/>
        <pt x="301" y="280" on="0"/>
        <pt x="251" y="243" on="0"/>
        <pt x="246" y="196" on="1"/>
        <pt x="231" y="30" on="1"/>
        <pt x="224" y="-54" on="0"/>
        <pt x="145" y="-127" on="0"/>
        <pt x="78" y="-127" on="1"/>
        <pt x="68" y="-127" on="0"/>
        <pt x="32" y="-124" on="0"/>
        <pt x="24" y="-122" on="1"/>
        <pt x="33" y="-14" on="1"/>
        <pt x="38" y="-15" on="0"/>
        <pt x="53" y="-17" on="0"/>
        <pt x="61" y="-17" on="1"/>
        <pt x="99" y="-17" on="0"/>
        <pt x="102" y="20" on="1"/>
        <pt x="119" y="216" on="1"/>
        <pt x="122" y="251" on="0"/>
        <pt x="144" y="300" on="0"/>
        <pt x="174" y="333" on="0"/>
        <pt x="209" y="350" on="0"/>
      </contour>
    </TTGlyph>
    <TTGlyph name="bracketleft" xMin="49" yMin="-120" xMax="351" yMax="820">
      <contour>
        <pt x="49" y="-120" on="1"/>
        <pt x="131" y="820" on="1"/>
        <pt x="351" y="820" on="1"/>
        <pt x="341" y="705" on="1"/>
        <pt x="251" y="705" on="1"/>
        <pt x="190" y="0" on="1"/>
        <pt x="280" y="0" on="1"/>
        <pt x="269" y="-120" on="1"/>
      </contour>
    </TTGlyph>
    <TTGlyph name="bracketright" xMin="19" yMin="-120" xMax="321" yMax="820">
      <contour>
        <pt x="19" y="-120" on="1"/>
        <pt x="30" y="0" on="1"/>
        <pt x="120" y="0" on="1"/>
        <pt x="181" y="705" on="1"/>
        <pt x="91" y="705" on="1"/>
        <pt x="101" y="820" on="1"/>
        <pt x="321" y="820" on="1"/>
        <pt x="239" y="-120" on="1"/>
      </contour>
    </TTGlyph>
    <TTGlyph name="breve" xMin="77" yMin="571" xMax="401" yMax="716">
      <contour>
        <pt x="194" y="716" on="1"/>
        <pt x="194" y="692" on="0"/>
        <pt x="215" y="665" on="0"/>
        <pt x="235" y="665" on="1"/>
        <pt x="255" y="665" on="0"/>
        <pt x="281" y="693" on="0"/>
        <pt x="284" y="716" on="1"/>
        <pt x="401" y="716" on="1"/>
        <pt x="398" y="695" on="0"/>
        <pt x="378" y="645" on="0"/>
        <pt x="338" y="601" on="0"/>
        <pt x="272" y="571" on="0"/>
        <pt x="224" y="571" on="1"/>
        <pt x="181" y="571" on="0"/>
        <pt x="124" y="601" on="0"/>
        <pt x="90" y="645" on="0"/>
        <pt x="77" y="695" on="0"/>
        <pt x="77" y="716" on="1"/>
      </contour>
    </TTGlyph>
    <TTGlyph name="brokenbar" xMin="70" yMin="-110" xMax="280" yMax="810">
      <contour>
        <pt x="70" y="-110" on="1"/>
        <pt x="101" y="250" on="1"/>
        <pt x="231" y="250" on="1"/>
        <pt x="200" y="-110" on="1"/>
      </contour>
      <contour>
        <pt x="119" y="450" on="1"/>
        <pt x="150" y="810" on="1"/>
        <pt x="280" y="810" on="1"/>
        <pt x="249" y="450" on="1"/>
      </contour>
    </TTGlyph>
    <TTGlyph name="bullet" xMin="58" yMin="215" xMax="280" yMax="410">
      <contour>
        <pt x="58" y="215" on="1"/>
        <pt x="75" y="410" on="1"/>
        <pt x="280" y="410" on="1"/>
        <pt x="263" y="215" on="1"/>
      </contour>
    </TTGlyph>
    <TTGlyph name="c" xMin="60" yMin="-9" xMax="401" yMax="509">
      <contour>
        <pt x="358" y="6" on="1"/>
        <pt x="333" y="-1" on="0"/>
        <pt x="269" y="-9" on="0"/>
        <pt x="242" y="-9" on="1"/>
        <pt x="201" y="-9" on="0"/>
        <pt x="134" y="6" on="0"/>
        <pt x="86" y="50" on="0"/>
        <pt x="60" y="129" on="0"/>
        <pt x="60" y="193" on="1"/>
        <pt x="60" y="279" on="0"/>
        <pt x="88" y="399" on="0"/>
        <pt x="144" y="475" on="0"/>
        <pt x="230" y="509" on="0"/>
        <pt x="288" y="509" on="1"/>
        <pt x="313" y="509" on="0"/>
        <pt x="379" y="500" on="0"/>
        <pt x="401" y="495" on="1"/>
        <pt x="391" y="378" on="1"/>
        <pt x="377" y="381" on="0"/>
        <pt x="355" y="386" on="0"/>
        <pt x="331" y="390" on="0"/>
        <pt x="303" y="392" on="0"/>
        <pt x="284" y="392" on="1"/>
        <pt x="267" y="392" on="0"/>
        <pt x="239" y="380" on="0"/>
        <pt x="218" y="347" on="0"/>
        <pt x="203" y="288" on="0"/>
        <pt x="198" y="240" on="1"/>
        <pt x="197" y="229" on="0"/>
        <pt x="196" y="210" on="0"/>
        <pt x="196" y="201" on="1"/>
        <pt x="196" y="148" on="0"/>
        <pt x="227" y="108" on="0"/>
        <pt x="257" y="108" on="1"/>
        <pt x="295" y="108" on="0"/>
        <pt x="346" y="118" on="0"/>
        <pt x="368" y="122" on="1"/>
      </contour>
    </TTGlyph>
    <TTGlyph name="caron" xMin="72" yMin="581" xMax="465" yMax="716">
      <contour>
        <pt x="216" y="716" on="1"/>
        <pt x="260" y="642" on="1"/>
        <pt x="316" y="716" on="1"/>
        <pt x="465" y="716" on="1"/>
        <pt x="331" y="581" on="1"/>
        <pt x="183" y="581" on="1"/>
        <pt x="72" y="716" on="1"/>
      </contour>
    </TTGlyph>
    <TTGlyph name="ccedilla" xMin="60" yMin="-222" xMax="401" yMax="509">
      <contour>
        <pt x="140" y="-127" on="1"/>
        <pt x="154" y="-129" on="0"/>
        <pt x="183" y="-132" on="0"/>
        <pt x="194" y="-132" on="1"/>
        <pt x="216" y="-132" on="0"/>
        <pt x="236" y="-123" on="0"/>
        <pt x="236" y="-109" on="1"/>
        <pt x="236" y="-103" on="0"/>
        <pt x="229" y="-94" on="0"/>
        <pt x="211" y="-88" on="0"/>
        <pt x="180" y="-86" on="0"/>
        <pt x="155" y="-86" on="1"/>
        <pt x="175" y="-3" on="1"/>
        <pt x="148" y="2" on="0"/>
        <pt x="106" y="27" on="0"/>
        <pt x="76" y="73" on="0"/>
        <pt x="60" y="143" on="0"/>
        <pt x="60" y="193" on="1"/>
        <pt x="60" y="279" on="0"/>
        <pt x="88" y="399" on="0"/>
        <pt x="144" y="475" on="0"/>
        <pt x="230" y="509" on="0"/>
        <pt x="288" y="509" on="1"/>
        <pt x="313" y="509" on="0"/>
        <pt x="379" y="500" on="0"/>
        <pt x="401" y="495" on="1"/>
        <pt x="391" y="378" on="1"/>
        <pt x="377" y="381" on="0"/>
        <pt x="355" y="386" on="0"/>
        <pt x="331" y="390" on="0"/>
        <pt x="303" y="392" on="0"/>
        <pt x="284" y="392" on="1"/>
        <pt x="267" y="392" on="0"/>
        <pt x="239" y="380" on="0"/>
        <pt x="218" y="347" on="0"/>
        <pt x="203" y="288" on="0"/>
        <pt x="198" y="240" on="1"/>
        <pt x="197" y="229" on="0"/>
        <pt x="196" y="210" on="0"/>
        <pt x="196" y="201" on="1"/>
        <pt x="196" y="148" on="0"/>
        <pt x="227" y="108" on="0"/>
        <pt x="257" y="108" on="1"/>
        <pt x="295" y="108" on="0"/>
        <pt x="346" y="118" on="0"/>
        <pt x="368" y="122" on="1"/>
        <pt x="358" y="6" on="1"/>
        <pt x="339" y="1" on="0"/>
        <pt x="293" y="-6" on="0"/>
        <pt x="270" y="-8" on="1"/>
        <pt x="268" y="-19" on="1"/>
        <pt x="310" y="-24" on="0"/>
        <pt x="347" y="-70" on="0"/>
        <pt x="347" y="-103" on="1"/>
        <pt x="347" y="-154" on="0"/>
        <pt x="282" y="-222" on="0"/>
        <pt x="208" y="-222" on="1"/>
        <pt x="191" y="-222" on="0"/>
        <pt x="147" y="-217" on="0"/>
        <pt x="133" y="-214" on="1"/>
      </contour>
    </TTGlyph>
    <TTGlyph name="cedilla" xMin="36" yMin="-222" xMax="250" yMax="50">
      <contour>
        <pt x="43" y="-127" on="1"/>
        <pt x="57" y="-129" on="0"/>
        <pt x="86" y="-132" on="0"/>
        <pt x="97" y="-132" on="1"/>
        <pt x="119" y="-132" on="0"/>
        <pt x="139" y="-123" on="0"/>
        <pt x="139" y="-109" on="1"/>
        <pt x="139" y="-103" on="0"/>
        <pt x="132" y="-94" on="0"/>
        <pt x="114" y="-88" on="0"/>
        <pt x="83" y="-86" on="0"/>
        <pt x="58" y="-86" on="1"/>
        <pt x="92" y="50" on="1"/>
        <pt x="188" y="50" on="1"/>
        <pt x="171" y="-19" on="1"/>
        <pt x="213" y="-24" on="0"/>
        <pt x="250" y="-70" on="0"/>
        <pt x="250" y="-103" on="1"/>
        <pt x="250" y="-154" on="0"/>
        <pt x="185" y="-222" on="0"/>
        <pt x="111" y="-222" on="1"/>
        <pt x="94" y="-222" on="0"/>
        <pt x="50" y="-217" on="0"/>
        <pt x="36" y="-214" on="1"/>
      </contour>
    </TTGlyph>
    <TTGlyph name="cent" xMin="83" yMin="-110" xMax="424" yMax="600">
      <contour>
        <pt x="197" y="-110" on="1"/>
        <pt x="206" y="-6" on="1"/>
        <pt x="178" y="-1" on="0"/>
        <pt x="132" y="23" on="0"/>
        <pt x="100" y="70" on="0"/>
        <pt x="83" y="141" on="0"/>
        <pt x="83" y="192" on="1"/>
        <pt x="83" y="339" on="0"/>
        <pt x="165" y="486" on="0"/>
        <pt x="250" y="502" on="1"/>
        <pt x="259" y="600" on="1"/>
        <pt x="384" y="600" on="1"/>
        <pt x="375" y="503" on="1"/>
        <pt x="389" y="501" on="0"/>
        <pt x="414" y="496" on="0"/>
        <pt x="424" y="494" on="1"/>
        <pt x="414" y="377" on="1"/>
        <pt x="400" y="380" on="0"/>
        <pt x="378" y="385" on="0"/>
        <pt x="354" y="389" on="0"/>
        <pt x="326" y="391" on="0"/>
        <pt x="307" y="391" on="1"/>
        <pt x="290" y="391" on="0"/>
        <pt x="262" y="379" on="0"/>
        <pt x="241" y="346" on="0"/>
        <pt x="226" y="287" on="0"/>
        <pt x="221" y="239" on="1"/>
        <pt x="220" y="228" on="0"/>
        <pt x="219" y="209" on="0"/>
        <pt x="219" y="200" on="1"/>
        <pt x="219" y="147" on="0"/>
        <pt x="250" y="107" on="0"/>
        <pt x="280" y="107" on="1"/>
        <pt x="318" y="107" on="0"/>
        <pt x="369" y="117" on="0"/>
        <pt x="391" y="121" on="1"/>
        <pt x="381" y="5" on="1"/>
        <pt x="370" y="2" on="0"/>
        <pt x="345" y="-3" on="0"/>
        <pt x="331" y="-5" on="1"/>
        <pt x="322" y="-110" on="1"/>
      </contour>
    </TTGlyph>
    <TTGlyph name="circumflex" xMin="60" yMin="580" xMax="453" yMax="715">
      <contour>
        <pt x="309" y="580" on="1"/>
        <pt x="266" y="654" on="1"/>
        <pt x="209" y="580" on="1"/>
        <pt x="60" y="580" on="1"/>
        <pt x="194" y="715" on="1"/>
        <pt x="342" y="715" on="1"/>
        <pt x="453" y="580" on="1"/>
      </contour>
    </TTGlyph>
    <TTGlyph name="colon" xMin="40" yMin="0" xMax="233" yMax="500">
      <contour>
        <pt x="40" y="0" on="1"/>
        <pt x="51" y="130" on="1"/>
        <pt x="201" y="130" on="1"/>
        <pt x="190" y="0" on="1"/>
      </contour>
      <contour>
        <pt x="72" y="370" on="1"/>
        <pt x="83" y="500" on="1"/>
        <pt x="233" y="500" on="1"/>
        <pt x="222" y="370" on="1"/>
      </contour>
    </TTGlyph>
    <TTGlyph name="comma" xMin="-13" yMin="-150" xMax="201" yMax="130">
      <contour>
        <pt x="84" y="-150" on="1"/>
        <pt x="-13" y="-150" on="1"/>
        <pt x="40" y="0" on="1"/>
        <pt x="51" y="130" on="1"/>
        <pt x="201" y="130" on="1"/>
        <pt x="190" y="0" on="1"/>
      </contour>
    </TTGlyph>
    <TTGlyph name="copyright" xMin="90" yMin="-9" xMax="760" yMax="709">
      <contour>
        <pt x="509" y="162" on="1"/>
        <pt x="505" y="161" on="0"/>
        <pt x="485" y="158" on="0"/>
        <pt x="462" y="156" on="0"/>
        <pt x="440" y="154" on="0"/>
        <pt x="433" y="154" on="1"/>
        <pt x="401" y="154" on="0"/>
        <pt x="356" y="171" on="0"/>
        <pt x="327" y="216" on="0"/>
        <pt x="314" y="295" on="0"/>
        <pt x="314" y="356" on="1"/>
        <pt x="314" y="417" on="0"/>
        <pt x="328" y="491" on="0"/>
        <pt x="359" y="532" on="0"/>
        <pt x="406" y="546" on="0"/>
        <pt x="439" y="546" on="1"/>
        <pt x="445" y="546" on="0"/>
        <pt x="465" y="544" on="0"/>
        <pt x="486" y="542" on="0"/>
        <pt x="505" y="539" on="0"/>
        <pt x="509" y="538" on="1"/>
        <pt x="509" y="465" on="1"/>
        <pt x="495" y="468" on="0"/>
        <pt x="467" y="471" on="0"/>
        <pt x="456" y="471" on="1"/>
        <pt x="440" y="471" on="0"/>
        <pt x="419" y="466" on="0"/>
        <pt x="407" y="444" on="0"/>
        <pt x="403" y="396" on="0"/>
        <pt x="403" y="352" on="1"/>
        <pt x="403" y="307" on="0"/>
        <pt x="408" y="258" on="0"/>
        <pt x="420" y="234" on="0"/>
        <pt x="441" y="229" on="0"/>
        <pt x="457" y="229" on="1"/>
        <pt x="470" y="229" on="0"/>
        <pt x="498" y="233" on="0"/>
        <pt x="509" y="235" on="1"/>
      </contour>
      <contour>
        <pt x="760" y="350" on="1"/>
        <pt x="760" y="267" on="0"/>
        <pt x="728" y="134" on="0"/>
        <pt x="652" y="41" on="0"/>
        <pt x="525" y="-9" on="0"/>
        <pt x="430" y="-9" on="1"/>
        <pt x="335" y="-9" on="0"/>
        <pt x="205" y="40" on="0"/>
        <pt x="125" y="132" on="0"/>
        <pt x="90" y="265" on="0"/>
        <pt x="90" y="350" on="1"/>
        <pt x="90" y="433" on="0"/>
        <pt x="125" y="566" on="0"/>
        <pt x="206" y="659" on="0"/>
        <pt x="336" y="709" on="0"/>
        <pt x="430" y="709" on="1"/>
        <pt x="525" y="709" on="0"/>
        <pt x="651" y="659" on="0"/>
        <pt x="728" y="565" on="0"/>
        <pt x="760" y="433" on="0"/>
      </contour>
      <contour>
        <pt x="643" y="350" on="1"/>
        <pt x="643" y="416" on="0"/>
        <pt x="630" y="514" on="0"/>
        <pt x="586" y="579" on="0"/>
        <pt x="501" y="611" on="0"/>
        <pt x="430" y="611" on="1"/>
        <pt x="359" y="611" on="0"/>
        <pt x="271" y="580" on="0"/>
        <pt x="223" y="515" on="0"/>
        <pt x="207" y="417" on="0"/>
        <pt x="207" y="350" on="1"/>
        <pt x="207" y="284" on="0"/>
        <pt x="223" y="185" on="0"/>
        <pt x="271" y="121" on="0"/>
        <pt x="359" y="89" on="0"/>
        <pt x="430" y="89" on="1"/>
        <pt x="501" y="89" on="0"/>
        <pt x="586" y="121" on="0"/>
        <pt x="630" y="186" on="0"/>
        <pt x="643" y="284" on="0"/>
      </contour>
    </TTGlyph>
    <TTGlyph name="currency" xMin="33" yMin="28" xMax="577" yMax="572">
      <contour>
        <pt x="105" y="185" on="1"/>
        <pt x="94" y="210" on="0"/>
        <pt x="85" y="268" on="0"/>
        <pt x="85" y="300" on="1"/>
        <pt x="85" y="365" on="0"/>
        <pt x="106" y="414" on="1"/>
        <pt x="33" y="487" on="1"/>
        <pt x="118" y="572" on="1"/>
        <pt x="184" y="506" on="1"/>
        <pt x="235" y="537" on="0"/>
        <pt x="305" y="537" on="1"/>
        <pt x="373" y="537" on="0"/>
        <pt x="426" y="506" on="1"/>
        <pt x="492" y="572" on="1"/>
        <pt x="577" y="487" on="1"/>
        <pt x="509" y="419" on="1"/>
        <pt x="535" y="367" on="0"/>
        <pt x="535" y="300" on="1"/>
        <pt x="535" y="234" on="0"/>
        <pt x="509" y="180" on="1"/>
        <pt x="577" y="113" on="1"/>
        <pt x="492" y="28" on="1"/>
        <pt x="427" y="92" on="1"/>
        <pt x="377" y="63" on="0"/>
        <pt x="305" y="63" on="1"/>
        <pt x="232" y="63" on="0"/>
        <pt x="182" y="92" on="1"/>
        <pt x="118" y="28" on="1"/>
        <pt x="33" y="113" on="1"/>
      </contour>
      <contour>
        <pt x="403" y="300" on="1"/>
        <pt x="403" y="356" on="0"/>
        <pt x="355" y="430" on="0"/>
        <pt x="305" y="430" on="1"/>
        <pt x="255" y="430" on="0"/>
        <pt x="207" y="356" on="0"/>
        <pt x="207" y="300" on="1"/>
        <pt x="207" y="244" on="0"/>
        <pt x="255" y="170" on="0"/>
        <pt x="305" y="170" on="1"/>
        <pt x="330" y="170" on="0"/>
        <pt x="367" y="190" on="0"/>
        <pt x="391" y="225" on="0"/>
        <pt x="403" y="272" on="0"/>
      </contour>
    </TTGlyph>
    <TTGlyph name="d" xMin="59" yMin="-9" xMax="513" yMax="700">
      <contour>
        <pt x="63" y="242" on="1"/>
        <pt x="69" y="316" on="0"/>
        <pt x="104" y="418" on="0"/>
        <pt x="167" y="481" on="0"/>
        <pt x="259" y="509" on="0"/>
        <pt x="323" y="509" on="1"/>
        <pt x="334" y="509" on="0"/>
        <pt x="353" y="508" on="0"/>
        <pt x="363" y="507" on="1"/>
        <pt x="380" y="700" on="1"/>
        <pt x="513" y="700" on="1"/>
        <pt x="452" y="0" on="1"/>
        <pt x="344" y="0" on="1"/>
        <pt x="338" y="57" on="1"/>
        <pt x="312" y="26" on="0"/>
        <pt x="245" y="-9" on="0"/>
        <pt x="201" y="-9" on="1"/>
        <pt x="125" y="-9" on="0"/>
        <pt x="59" y="70" on="0"/>
        <pt x="59" y="164" on="1"/>
        <pt x="59" y="181" on="0"/>
        <pt x="61" y="222" on="0"/>
      </contour>
      <contour>
        <pt x="246" y="105" on="1"/>
        <pt x="268" y="105" on="0"/>
        <pt x="302" y="130" on="0"/>
        <pt x="325" y="168" on="0"/>
        <pt x="338" y="212" on="0"/>
        <pt x="339" y="230" on="1"/>
        <pt x="353" y="392" on="1"/>
        <pt x="340" y="394" on="0"/>
        <pt x="315" y="395" on="0"/>
        <pt x="304" y="395" on="1"/>
        <pt x="282" y="395" on="0"/>
        <pt x="242" y="378" on="0"/>
        <pt x="212" y="331" on="0"/>
        <pt x="195" y="247" on="0"/>
        <pt x="195" y="180" on="1"/>
        <pt x="195" y="134" on="0"/>
        <pt x="219" y="105" on="0"/>
      </contour>
    </TTGlyph>
    <TTGlyph name="dagger" xMin="73" yMin="0" xMax="454" yMax="700">
      <contour>
        <pt x="161" y="0" on="1"/>
        <pt x="194" y="385" on="1"/>
        <pt x="73" y="385" on="1"/>
        <pt x="83" y="500" on="1"/>
        <pt x="204" y="500" on="1"/>
        <pt x="222" y="700" on="1"/>
        <pt x="352" y="700" on="1"/>
        <pt x="334" y="500" on="1"/>
        <pt x="454" y="500" on="1"/>
        <pt x="444" y="385" on="1"/>
        <pt x="324" y="385" on="1"/>
        <pt x="291" y="0" on="1"/>
      </contour>
    </TTGlyph>
    <TTGlyph name="daggerdbl" xMin="57" yMin="0" xMax="455" yMax="700">
      <contour>
        <pt x="161" y="0" on="1"/>
        <pt x="178" y="200" on="1"/>
        <pt x="57" y="200" on="1"/>
        <pt x="67" y="315" on="1"/>
        <pt x="188" y="315" on="1"/>
        <pt x="195" y="395" on="1"/>
        <pt x="74" y="395" on="1"/>
        <pt x="84" y="510" on="1"/>
        <pt x="205" y="510" on="1"/>
        <pt x="222" y="700" on="1"/>
        <pt x="352" y="700" on="1"/>
        <pt x="335" y="510" on="1"/>
        <pt x="455" y="510" on="1"/>
        <pt x="445" y="395" on="1"/>
        <pt x="325" y="395" on="1"/>
        <pt x="318" y="315" on="1"/>
        <pt x="438" y="315" on="1"/>
        <pt x="428" y="200" on="1"/>
        <pt x="308" y="200" on="1"/>
        <pt x="291" y="0" on="1"/>
      </contour>
    </TTGlyph>
    <TTGlyph name="degree" xMin="56" yMin="370" xMax="401" yMax="707">
      <contour>
        <pt x="286" y="542" on="1"/>
        <pt x="287" y="547" on="0"/>
        <pt x="287" y="557" on="1"/>
        <pt x="287" y="584" on="0"/>
        <pt x="263" y="615" on="0"/>
        <pt x="234" y="615" on="1"/>
        <pt x="199" y="615" on="0"/>
        <pt x="169" y="568" on="0"/>
        <pt x="169" y="527" on="1"/>
        <pt x="169" y="499" on="0"/>
        <pt x="192" y="464" on="0"/>
        <pt x="221" y="464" on="1"/>
        <pt x="253" y="464" on="0"/>
        <pt x="283" y="508" on="0"/>
      </contour>
      <contour>
        <pt x="400" y="541" on="1"/>
        <pt x="392" y="457" on="0"/>
        <pt x="304" y="370" on="0"/>
        <pt x="213" y="370" on="1"/>
        <pt x="138" y="370" on="0"/>
        <pt x="56" y="446" on="0"/>
        <pt x="56" y="518" on="1"/>
        <pt x="56" y="613" on="0"/>
        <pt x="147" y="707" on="0"/>
        <pt x="242" y="707" on="1"/>
        <pt x="317" y="707" on="0"/>
        <pt x="401" y="636" on="0"/>
        <pt x="401" y="564" on="1"/>
        <pt x="401" y="559" on="0"/>
        <pt x="401" y="547" on="0"/>
      </contour>
    </TTGlyph>
    <TTGlyph name="dieresis" xMin="63" yMin="560" xMax="404" yMax="675">
      <contour>
        <pt x="263" y="560" on="1"/>
        <pt x="274" y="675" on="1"/>
        <pt x="404" y="675" on="1"/>
        <pt x="393" y="560" on="1"/>
      </contour>
      <contour>
        <pt x="63" y="560" on="1"/>
        <pt x="74" y="675" on="1"/>
        <pt x="204" y="675" on="1"/>
        <pt x="193" y="560" on="1"/>
      </contour>
    </TTGlyph>
    <TTGlyph name="divide" xMin="81" yMin="45" xMax="501" yMax="560">
      <contour>
        <pt x="81" y="245" on="1"/>
        <pt x="91" y="360" on="1"/>
        <pt x="501" y="360" on="1"/>
        <pt x="491" y="245" on="1"/>
      </contour>
      <contour>
        <pt x="193" y="45" on="1"/>
        <pt x="205" y="175" on="1"/>
        <pt x="355" y="175" on="1"/>
        <pt x="343" y="45" on="1"/>
      </contour>
      <contour>
        <pt x="227" y="430" on="1"/>
        <pt x="238" y="560" on="1"/>
        <pt x="388" y="560" on="1"/>
        <pt x="377" y="430" on="1"/>
      </contour>
    </TTGlyph>
    <TTGlyph name="dollar" xMin="53" yMin="-110" xMax="443" yMax="780">
      <contour>
        <pt x="157" y="-110" on="1"/>
        <pt x="166" y="-7" on="1"/>
        <pt x="135" y="-6" on="0"/>
        <pt x="75" y="1" on="0"/>
        <pt x="53" y="7" on="1"/>
        <pt x="64" y="126" on="1"/>
        <pt x="87" y="120" on="0"/>
        <pt x="152" y="111" on="0"/>
        <pt x="181" y="111" on="1"/>
        <pt x="238" y="111" on="0"/>
        <pt x="287" y="159" on="0"/>
        <pt x="287" y="212" on="1"/>
        <pt x="287" y="281" on="0"/>
        <pt x="214" y="296" on="1"/>
        <pt x="150" y="310" on="0"/>
        <pt x="83" y="386" on="0"/>
        <pt x="83" y="455" on="1"/>
        <pt x="83" y="537" on="0"/>
        <pt x="152" y="643" on="0"/>
        <pt x="224" y="664" on="1"/>
        <pt x="235" y="780" on="1"/>
        <pt x="360" y="780" on="1"/>
        <pt x="350" y="676" on="1"/>
        <pt x="373" y="674" on="0"/>
        <pt x="426" y="667" on="0"/>
        <pt x="443" y="662" on="1"/>
        <pt x="433" y="544" on="1"/>
        <pt x="421" y="547" on="0"/>
        <pt x="389" y="552" on="0"/>
        <pt x="356" y="557" on="0"/>
        <pt x="323" y="559" on="0"/>
        <pt x="310" y="559" on="1"/>
        <pt x="291" y="559" on="0"/>
        <pt x="259" y="553" on="0"/>
        <pt x="236" y="537" on="0"/>
        <pt x="224" y="506" on="0"/>
        <pt x="224" y="480" on="1"/>
        <pt x="224" y="451" on="0"/>
        <pt x="252" y="417" on="0"/>
        <pt x="287" y="409" on="1"/>
        <pt x="320" y="402" on="0"/>
        <pt x="372" y="378" on="0"/>
        <pt x="408" y="338" on="0"/>
        <pt x="427" y="281" on="0"/>
        <pt x="427" y="240" on="1"/>
        <pt x="427" y="185" on="0"/>
        <pt x="407" y="104" on="0"/>
        <pt x="371" y="48" on="0"/>
        <pt x="321" y="14" on="0"/>
        <pt x="292" y="5" on="1"/>
        <pt x="282" y="-110" on="1"/>
      </contour>
    </TTGlyph>
    <TTGlyph name="dotaccent" xMin="66" yMin="585" xMax="219" yMax="700">
      <contour>
        <pt x="66" y="585" on="1"/>
        <pt x="76" y="700" on="1"/>
        <pt x="219" y="700" on="1"/>
        <pt x="209" y="585" on="1"/>
      </contour>
    </TTGlyph>
    <TTGlyph name="dotlessi" xMin="55" yMin="0" xMax="231" yMax="500">
      <contour>
        <pt x="55" y="0" on="1"/>
        <pt x="98" y="500" on="1"/>
        <pt x="231" y="500" on="1"/>
        <pt x="188" y="0" on="1"/>
      </contour>
    </TTGlyph>
    <TTGlyph name="dotmath" xMin="61" yMin="244" xMax="222" yMax="374">
      <contour>
        <pt x="61" y="244" on="1"/>
        <pt x="72" y="374" on="1"/>
        <pt x="222" y="374" on="1"/>
        <pt x="211" y="244" on="1"/>
      </contour>
    </TTGlyph>
    <TTGlyph name="e" xMin="59" yMin="-9" xMax="459" yMax="509">
      <contour>
        <pt x="459" y="364" on="1"/>
        <pt x="459" y="323" on="0"/>
        <pt x="438" y="259" on="0"/>
        <pt x="392" y="215" on="0"/>
        <pt x="316" y="192" on="0"/>
        <pt x="262" y="192" on="1"/>
        <pt x="246" y="192" on="0"/>
        <pt x="211" y="193" on="0"/>
        <pt x="192" y="195" on="1"/>
        <pt x="192" y="187" on="1"/>
        <pt x="192" y="140" on="0"/>
        <pt x="225" y="105" on="0"/>
        <pt x="268" y="105" on="1"/>
        <pt x="302" y="105" on="0"/>
        <pt x="374" y="115" on="0"/>
        <pt x="397" y="120" on="1"/>
        <pt x="387" y="8" on="1"/>
        <pt x="375" y="5" on="0"/>
        <pt x="341" y="-2" on="0"/>
        <pt x="306" y="-6" on="0"/>
        <pt x="272" y="-9" on="0"/>
        <pt x="258" y="-9" on="1"/>
        <pt x="213" y="-9" on="0"/>
        <pt x="140" y="6" on="0"/>
        <pt x="88" y="49" on="0"/>
        <pt x="59" y="128" on="0"/>
        <pt x="59" y="192" on="1"/>
        <pt x="59" y="219" on="0"/>
        <pt x="62" y="250" on="1"/>
        <pt x="68" y="319" on="0"/>
        <pt x="102" y="418" on="0"/>
        <pt x="158" y="480" on="0"/>
        <pt x="238" y="509" on="0"/>
        <pt x="290" y="509" on="1"/>
        <pt x="343" y="509" on="0"/>
        <pt x="409" y="479" on="0"/>
        <pt x="446" y="435" on="0"/>
        <pt x="459" y="384" on="0"/>
      </contour>
      <contour>
        <pt x="278" y="399" on="1"/>
        <pt x="249" y="399" on="0"/>
        <pt x="213" y="355" on="0"/>
        <pt x="202" y="299" on="1"/>
        <pt x="228" y="296" on="0"/>
        <pt x="249" y="296" on="1"/>
        <pt x="285" y="296" on="0"/>
        <pt x="328" y="319" on="0"/>
        <pt x="328" y="348" on="1"/>
        <pt x="328" y="369" on="0"/>
        <pt x="311" y="399" on="0"/>
      </contour>
    </TTGlyph>
    <TTGlyph name="eacute" xMin="59" yMin="-9" xMax="478" yMax="715">
      <contour>
        <pt x="459" y="364" on="1"/>
        <pt x="459" y="323" on="0"/>
        <pt x="438" y="259" on="0"/>
        <pt x="392" y="215" on="0"/>
        <pt x="316" y="192" on="0"/>
        <pt x="262" y="192" on="1"/>
        <pt x="246" y="192" on="0"/>
        <pt x="211" y="193" on="0"/>
        <pt x="192" y="195" on="1"/>
        <pt x="192" y="187" on="1"/>
        <pt x="192" y="140" on="0"/>
        <pt x="225" y="105" on="0"/>
        <pt x="268" y="105" on="1"/>
        <pt x="302" y="105" on="0"/>
        <pt x="374" y="115" on="0"/>
        <pt x="397" y="120" on="1"/>
        <pt x="387" y="8" on="1"/>
        <pt x="375" y="5" on="0"/>
        <pt x="341" y="-2" on="0"/>
        <pt x="306" y="-6" on="0"/>
        <pt x="272" y="-9" on="0"/>
        <pt x="258" y="-9" on="1"/>
        <pt x="213" y="-9" on="0"/>
        <pt x="140" y="6" on="0"/>
        <pt x="88" y="49" on="0"/>
        <pt x="59" y="128" on="0"/>
        <pt x="59" y="192" on="1"/>
        <pt x="59" y="219" on="0"/>
        <pt x="62" y="250" on="1"/>
        <pt x="68" y="319" on="0"/>
        <pt x="102" y="418" on="0"/>
        <pt x="158" y="480" on="0"/>
        <pt x="238" y="509" on="0"/>
        <pt x="290" y="509" on="1"/>
        <pt x="343" y="509" on="0"/>
        <pt x="409" y="479" on="0"/>
        <pt x="446" y="435" on="0"/>
        <pt x="459" y="384" on="0"/>
      </contour>
      <contour>
        <pt x="278" y="399" on="1"/>
        <pt x="249" y="399" on="0"/>
        <pt x="213" y="355" on="0"/>
        <pt x="202" y="299" on="1"/>
        <pt x="228" y="296" on="0"/>
        <pt x="249" y="296" on="1"/>
        <pt x="285" y="296" on="0"/>
        <pt x="328" y="319" on="0"/>
        <pt x="328" y="348" on="1"/>
        <pt x="328" y="369" on="0"/>
        <pt x="311" y="399" on="0"/>
      </contour>
      <contour>
        <pt x="203" y="580" on="1"/>
        <pt x="314" y="715" on="1"/>
        <pt x="478" y="715" on="1"/>
        <pt x="314" y="580" on="1"/>
      </contour>
    </TTGlyph>
    <TTGlyph name="ecircumflex" xMin="59" yMin="-9" xMax="485" yMax="715">
      <contour>
        <pt x="459" y="364" on="1"/>
        <pt x="459" y="323" on="0"/>
        <pt x="438" y="259" on="0"/>
        <pt x="392" y="215" on="0"/>
        <pt x="316" y="192" on="0"/>
        <pt x="262" y="192" on="1"/>
        <pt x="246" y="192" on="0"/>
        <pt x="211" y="193" on="0"/>
        <pt x="192" y="195" on="1"/>
        <pt x="192" y="187" on="1"/>
        <pt x="192" y="140" on="0"/>
        <pt x="225" y="105" on="0"/>
        <pt x="268" y="105" on="1"/>
        <pt x="302" y="105" on="0"/>
        <pt x="374" y="115" on="0"/>
        <pt x="397" y="120" on="1"/>
        <pt x="387" y="8" on="1"/>
        <pt x="375" y="5" on="0"/>
        <pt x="341" y="-2" on="0"/>
        <pt x="306" y="-6" on="0"/>
        <pt x="272" y="-9" on="0"/>
        <pt x="258" y="-9" on="1"/>
        <pt x="213" y="-9" on="0"/>
        <pt x="140" y="6" on="0"/>
        <pt x="88" y="49" on="0"/>
        <pt x="59" y="128" on="0"/>
        <pt x="59" y="192" on="1"/>
        <pt x="59" y="219" on="0"/>
        <pt x="62" y="250" on="1"/>
        <pt x="68" y="319" on="0"/>
        <pt x="102" y="418" on="0"/>
        <pt x="158" y="480" on="0"/>
        <pt x="238" y="509" on="0"/>
        <pt x="290" y="509" on="1"/>
        <pt x="343" y="509" on="0"/>
        <pt x="409" y="479" on="0"/>
        <pt x="446" y="435" on="0"/>
        <pt x="459" y="384" on="0"/>
      </contour>
      <contour>
        <pt x="278" y="399" on="1"/>
        <pt x="249" y="399" on="0"/>
        <pt x="213" y="355" on="0"/>
        <pt x="202" y="299" on="1"/>
        <pt x="228" y="296" on="0"/>
        <pt x="249" y="296" on="1"/>
        <pt x="285" y="296" on="0"/>
        <pt x="328" y="319" on="0"/>
        <pt x="328" y="348" on="1"/>
        <pt x="328" y="369" on="0"/>
        <pt x="311" y="399" on="0"/>
      </contour>
      <contour>
        <pt x="341" y="580" on="1"/>
        <pt x="298" y="654" on="1"/>
        <pt x="241" y="580" on="1"/>
        <pt x="92" y="580" on="1"/>
        <pt x="226" y="715" on="1"/>
        <pt x="374" y="715" on="1"/>
        <pt x="485" y="580" on="1"/>
      </contour>
    </TTGlyph>
    <TTGlyph name="edieresis" xMin="59" yMin="-9" xMax="469" yMax="675">
      <contour>
        <pt x="459" y="364" on="1"/>
        <pt x="459" y="323" on="0"/>
        <pt x="438" y="259" on="0"/>
        <pt x="392" y="215" on="0"/>
        <pt x="316" y="192" on="0"/>
        <pt x="262" y="192" on="1"/>
        <pt x="246" y="192" on="0"/>
        <pt x="211" y="193" on="0"/>
        <pt x="192" y="195" on="1"/>
        <pt x="192" y="187" on="1"/>
        <pt x="192" y="140" on="0"/>
        <pt x="225" y="105" on="0"/>
        <pt x="268" y="105" on="1"/>
        <pt x="302" y="105" on="0"/>
        <pt x="374" y="115" on="0"/>
        <pt x="397" y="120" on="1"/>
        <pt x="387" y="8" on="1"/>
        <pt x="375" y="5" on="0"/>
        <pt x="341" y="-2" on="0"/>
        <pt x="306" y="-6" on="0"/>
        <pt x="272" y="-9" on="0"/>
        <pt x="258" y="-9" on="1"/>
        <pt x="213" y="-9" on="0"/>
        <pt x="140" y="6" on="0"/>
        <pt x="88" y="49" on="0"/>
        <pt x="59" y="128" on="0"/>
        <pt x="59" y="192" on="1"/>
        <pt x="59" y="219" on="0"/>
        <pt x="62" y="250" on="1"/>
        <pt x="68" y="319" on="0"/>
        <pt x="102" y="418" on="0"/>
        <pt x="158" y="480" on="0"/>
        <pt x="238" y="509" on="0"/>
        <pt x="290" y="509" on="1"/>
        <pt x="343" y="509" on="0"/>
        <pt x="409" y="479" on="0"/>
        <pt x="446" y="435" on="0"/>
        <pt x="459" y="384" on="0"/>
      </contour>
      <contour>
        <pt x="278" y="399" on="1"/>
        <pt x="249" y="399" on="0"/>
        <pt x="213" y="355" on="0"/>
        <pt x="202" y="299" on="1"/>
        <pt x="228" y="296" on="0"/>
        <pt x="249" y="296" on="1"/>
        <pt x="285" y="296" on="0"/>
        <pt x="328" y="319" on="0"/>
        <pt x="328" y="348" on="1"/>
        <pt x="328" y="369" on="0"/>
        <pt x="311" y="399" on="0"/>
      </contour>
      <contour>
        <pt x="328" y="560" on="1"/>
        <pt x="339" y="675" on="1"/>
        <pt x="469" y="675" on="1"/>
        <pt x="458" y="560" on="1"/>
      </contour>
      <contour>
        <pt x="128" y="560" on="1"/>
        <pt x="139" y="675" on="1"/>
        <pt x="269" y="675" on="1"/>
        <pt x="258" y="560" on="1"/>
      </contour>
    </TTGlyph>
    <TTGlyph name="egrave" xMin="59" yMin="-9" xMax="459" yMax="715">
      <contour>
        <pt x="459" y="364" on="1"/>
        <pt x="459" y="323" on="0"/>
        <pt x="438" y="259" on="0"/>
        <pt x="392" y="215" on="0"/>
        <pt x="316" y="192" on="0"/>
        <pt x="262" y="192" on="1"/>
        <pt x="246" y="192" on="0"/>
        <pt x="211" y="193" on="0"/>
        <pt x="192" y="195" on="1"/>
        <pt x="192" y="187" on="1"/>
        <pt x="192" y="140" on="0"/>
        <pt x="225" y="105" on="0"/>
        <pt x="268" y="105" on="1"/>
        <pt x="302" y="105" on="0"/>
        <pt x="374" y="115" on="0"/>
        <pt x="397" y="120" on="1"/>
        <pt x="387" y="8" on="1"/>
        <pt x="375" y="5" on="0"/>
        <pt x="341" y="-2" on="0"/>
        <pt x="306" y="-6" on="0"/>
        <pt x="272" y="-9" on="0"/>
        <pt x="258" y="-9" on="1"/>
        <pt x="213" y="-9" on="0"/>
        <pt x="140" y="6" on="0"/>
        <pt x="88" y="49" on="0"/>
        <pt x="59" y="128" on="0"/>
        <pt x="59" y="192" on="1"/>
        <pt x="59" y="219" on="0"/>
        <pt x="62" y="250" on="1"/>
        <pt x="68" y="319" on="0"/>
        <pt x="102" y="418" on="0"/>
        <pt x="158" y="480" on="0"/>
        <pt x="238" y="509" on="0"/>
        <pt x="290" y="509" on="1"/>
        <pt x="343" y="509" on="0"/>
        <pt x="409" y="479" on="0"/>
        <pt x="446" y="435" on="0"/>
        <pt x="459" y="384" on="0"/>
      </contour>
      <contour>
        <pt x="278" y="399" on="1"/>
        <pt x="249" y="399" on="0"/>
        <pt x="213" y="355" on="0"/>
        <pt x="202" y="299" on="1"/>
        <pt x="228" y="296" on="0"/>
        <pt x="249" y="296" on="1"/>
        <pt x="285" y="296" on="0"/>
        <pt x="328" y="319" on="0"/>
        <pt x="328" y="348" on="1"/>
        <pt x="328" y="369" on="0"/>
        <pt x="311" y="399" on="0"/>
      </contour>
      <contour>
        <pt x="294" y="580" on="1"/>
        <pt x="149" y="715" on="1"/>
        <pt x="308" y="715" on="1"/>
        <pt x="400" y="580" on="1"/>
      </contour>
    </TTGlyph>
    <TTGlyph name="eight" xMin="34" yMin="-9" xMax="465" yMax="709">
      <contour>
        <pt x="319" y="235" on="1"/>
        <pt x="319" y="255" on="0"/>
        <pt x="311" y="285" on="0"/>
        <pt x="288" y="306" on="0"/>
        <pt x="249" y="316" on="0"/>
        <pt x="218" y="316" on="1"/>
        <pt x="205" y="308" on="0"/>
        <pt x="185" y="288" on="0"/>
        <pt x="172" y="255" on="0"/>
        <pt x="166" y="206" on="0"/>
        <pt x="166" y="170" on="1"/>
        <pt x="166" y="130" on="0"/>
        <pt x="198" y="100" on="0"/>
        <pt x="231" y="100" on="1"/>
        <pt x="259" y="100" on="0"/>
        <pt x="293" y="118" on="0"/>
        <pt x="312" y="153" on="0"/>
        <pt x="319" y="203" on="0"/>
      </contour>
      <contour>
        <pt x="334" y="541" on="1"/>
        <pt x="334" y="575" on="0"/>
        <pt x="311" y="602" on="0"/>
        <pt x="279" y="602" on="1"/>
        <pt x="243" y="602" on="0"/>
        <pt x="205" y="551" on="0"/>
        <pt x="205" y="484" on="1"/>
        <pt x="205" y="451" on="0"/>
        <pt x="238" y="415" on="0"/>
        <pt x="290" y="415" on="1"/>
        <pt x="304" y="423" on="0"/>
        <pt x="321" y="451" on="0"/>
        <pt x="330" y="485" on="0"/>
        <pt x="334" y="523" on="0"/>
      </contour>
      <contour>
        <pt x="452" y="234" on="1"/>
        <pt x="452" y="178" on="0"/>
        <pt x="429" y="88" on="0"/>
        <pt x="375" y="25" on="0"/>
        <pt x="288" y="-9" on="0"/>
        <pt x="224" y="-9" on="1"/>
        <pt x="127" y="-9" on="0"/>
        <pt x="34" y="85" on="0"/>
        <pt x="34" y="175" on="1"/>
        <pt x="34" y="218" on="0"/>
        <pt x="50" y="281" on="0"/>
        <pt x="77" y="325" on="0"/>
        <pt x="115" y="352" on="0"/>
        <pt x="137" y="358" on="1"/>
        <pt x="122" y="366" on="0"/>
        <pt x="98" y="395" on="0"/>
        <pt x="82" y="433" on="0"/>
        <pt x="74" y="474" on="0"/>
        <pt x="74" y="494" on="1"/>
        <pt x="74" y="552" on="0"/>
        <pt x="104" y="634" on="0"/>
        <pt x="160" y="685" on="0"/>
        <pt x="239" y="709" on="0"/>
        <pt x="287" y="709" on="1"/>
        <pt x="325" y="709" on="0"/>
        <pt x="390" y="693" on="0"/>
        <pt x="438" y="654" on="0"/>
        <pt x="465" y="589" on="0"/>
        <pt x="465" y="540" on="1"/>
        <pt x="465" y="529" on="0"/>
        <pt x="460" y="483" on="0"/>
        <pt x="441" y="432" on="0"/>
        <pt x="405" y="385" on="0"/>
        <pt x="373" y="374" on="1"/>
        <pt x="416" y="361" on="0"/>
        <pt x="452" y="282" on="0"/>
      </contour>
    </TTGlyph>
    <TTGlyph name="ellipsis" xMin="40" yMin="0" xMax="701" yMax="130">
      <contour>
        <pt x="40" y="0" on="1"/>
        <pt x="51" y="130" on="1"/>
        <pt x="201" y="130" on="1"/>
        <pt x="190" y="0" on="1"/>
      </contour>
      <contour>
        <pt x="290" y="0" on="1"/>
        <pt x="301" y="130" on="1"/>
        <pt x="451" y="130" on="1"/>
        <pt x="440" y="0" on="1"/>
      </contour>
      <contour>
        <pt x="540" y="0" on="1"/>
        <pt x="551" y="130" on="1"/>
        <pt x="701" y="130" on="1"/>
        <pt x="690" y="0" on="1"/>
      </contour>
    </TTGlyph>
    <TTGlyph name="emdash" xMin="66" yMin="245" xMax="571" yMax="360">
      <contour>
        <pt x="66" y="245" on="1"/>
        <pt x="76" y="360" on="1"/>
        <pt x="571" y="360" on="1"/>
        <pt x="561" y="245" on="1"/>
      </contour>
    </TTGlyph>
    <TTGlyph name="endash" xMin="86" yMin="245" xMax="496" yMax="360">
      <contour>
        <pt x="86" y="245" on="1"/>
        <pt x="96" y="360" on="1"/>
        <pt x="496" y="360" on="1"/>
        <pt x="486" y="245" on="1"/>
      </contour>
    </TTGlyph>
    <TTGlyph name="equal" xMin="77" yMin="145" xMax="505" yMax="460">
      <contour>
        <pt x="77" y="145" on="1"/>
        <pt x="87" y="260" on="1"/>
        <pt x="487" y="260" on="1"/>
        <pt x="477" y="145" on="1"/>
      </contour>
      <contour>
        <pt x="95" y="345" on="1"/>
        <pt x="105" y="460" on="1"/>
        <pt x="505" y="460" on="1"/>
        <pt x="495" y="345" on="1"/>
      </contour>
    </TTGlyph>
    <TTGlyph name="eth" xMin="57" yMin="-9" xMax="478" yMax="750">
      <contour>
        <pt x="58" y="210" on="1"/>
        <pt x="63" y="269" on="0"/>
        <pt x="87" y="365" on="0"/>
        <pt x="132" y="433" on="0"/>
        <pt x="202" y="469" on="0"/>
        <pt x="254" y="469" on="1"/>
        <pt x="279" y="469" on="0"/>
        <pt x="323" y="458" on="0"/>
        <pt x="342" y="448" on="1"/>
        <pt x="340" y="489" on="0"/>
        <pt x="322" y="541" on="0"/>
        <pt x="308" y="558" on="1"/>
        <pt x="282" y="516" on="1"/>
        <pt x="175" y="516" on="1"/>
        <pt x="225" y="595" on="1"/>
        <pt x="205" y="597" on="0"/>
        <pt x="162" y="596" on="0"/>
        <pt x="139" y="597" on="1"/>
        <pt x="149" y="709" on="1"/>
        <pt x="188" y="709" on="0"/>
        <pt x="260" y="706" on="0"/>
        <pt x="292" y="701" on="1"/>
        <pt x="323" y="750" on="1"/>
        <pt x="430" y="750" on="1"/>
        <pt x="381" y="672" on="1"/>
        <pt x="404" y="659" on="0"/>
        <pt x="440" y="620" on="0"/>
        <pt x="465" y="564" on="0"/>
        <pt x="478" y="489" on="0"/>
        <pt x="478" y="440" on="1"/>
        <pt x="478" y="437" on="0"/>
        <pt x="477" y="414" on="0"/>
        <pt x="476" y="388" on="0"/>
        <pt x="474" y="365" on="0"/>
        <pt x="474" y="361" on="1"/>
        <pt x="465" y="253" on="0"/>
        <pt x="431" y="110" on="0"/>
        <pt x="373" y="26" on="0"/>
        <pt x="287" y="-9" on="0"/>
        <pt x="225" y="-9" on="1"/>
        <pt x="201" y="-9" on="0"/>
        <pt x="143" y="7" on="0"/>
        <pt x="92" y="48" on="0"/>
        <pt x="57" y="121" on="0"/>
        <pt x="57" y="178" on="1"/>
        <pt x="57" y="186" on="0"/>
        <pt x="57" y="202" on="0"/>
      </contour>
      <contour>
        <pt x="268" y="361" on="1"/>
        <pt x="231" y="361" on="0"/>
        <pt x="190" y="263" on="0"/>
        <pt x="190" y="179" on="1"/>
        <pt x="190" y="132" on="0"/>
        <pt x="219" y="101" on="0"/>
        <pt x="247" y="101" on="1"/>
        <pt x="264" y="101" on="0"/>
        <pt x="292" y="117" on="0"/>
        <pt x="314" y="168" on="0"/>
        <pt x="332" y="265" on="0"/>
        <pt x="339" y="346" on="1"/>
        <pt x="325" y="352" on="0"/>
        <pt x="288" y="361" on="0"/>
      </contour>
    </TTGlyph>
    <TTGlyph name="exclam" xMin="50" yMin="0" xMax="253" yMax="700">
      <contour>
        <pt x="50" y="0" on="1"/>
        <pt x="61" y="130" on="1"/>
        <pt x="211" y="130" on="1"/>
        <pt x="200" y="0" on="1"/>
      </contour>
      <contour>
        <pt x="76" y="228" on="1"/>
        <pt x="118" y="700" on="1"/>
        <pt x="253" y="700" on="1"/>
        <pt x="211" y="228" on="1"/>
      </contour>
    </TTGlyph>
    <TTGlyph name="exclamdown" xMin="40" yMin="-200" xMax="243" yMax="500">
      <contour>
        <pt x="243" y="500" on="1"/>
        <pt x="232" y="370" on="1"/>
        <pt x="82" y="370" on="1"/>
        <pt x="93" y="500" on="1"/>
      </contour>
      <contour>
        <pt x="216" y="272" on="1"/>
        <pt x="175" y="-200" on="1"/>
        <pt x="40" y="-200" on="1"/>
        <pt x="81" y="272" on="1"/>
      </contour>
    </TTGlyph>
    <TTGlyph name="f" xMin="-45" yMin="-177" xMax="401" yMax="709">
      <contour>
        <pt x="113" y="387" on="1"/>
        <pt x="48" y="387" on="1"/>
        <pt x="58" y="500" on="1"/>
        <pt x="123" y="500" on="1"/>
        <pt x="127" y="540" on="1"/>
        <pt x="132" y="591" on="0"/>
        <pt x="156" y="657" on="0"/>
        <pt x="195" y="695" on="0"/>
        <pt x="253" y="709" on="0"/>
        <pt x="293" y="709" on="1"/>
        <pt x="325" y="709" on="0"/>
        <pt x="387" y="700" on="0"/>
        <pt x="401" y="697" on="1"/>
        <pt x="392" y="584" on="1"/>
        <pt x="376" y="588" on="0"/>
        <pt x="335" y="595" on="0"/>
        <pt x="308" y="595" on="1"/>
        <pt x="283" y="595" on="0"/>
        <pt x="263" y="570" on="0"/>
        <pt x="261" y="549" on="1"/>
        <pt x="257" y="500" on="1"/>
        <pt x="365" y="500" on="1"/>
        <pt x="355" y="387" on="1"/>
        <pt x="247" y="387" on="1"/>
        <pt x="212" y="-13" on="1"/>
        <pt x="208" y="-63" on="0"/>
        <pt x="185" y="-126" on="0"/>
        <pt x="143" y="-163" on="0"/>
        <pt x="81" y="-177" on="0"/>
        <pt x="39" y="-177" on="1"/>
        <pt x="16" y="-177" on="0"/>
        <pt x="-25" y="-174" on="0"/>
        <pt x="-45" y="-172" on="1"/>
        <pt x="-35" y="-59" on="1"/>
        <pt x="-22" y="-61" on="0"/>
        <pt x="16" y="-63" on="0"/>
        <pt x="27" y="-63" on="1"/>
        <pt x="54" y="-63" on="0"/>
        <pt x="76" y="-44" on="0"/>
        <pt x="78" y="-18" on="1"/>
      </contour>
    </TTGlyph>
    <TTGlyph name="fi" xMin="-45" yMin="-177" xMax="511" yMax="709">
      <contour>
        <pt x="113" y="387" on="1"/>
        <pt x="48" y="387" on="1"/>
        <pt x="58" y="500" on="1"/>
        <pt x="123" y="500" on="1"/>
        <pt x="127" y="540" on="1"/>
        <pt x="132" y="591" on="0"/>
        <pt x="157" y="657" on="0"/>
        <pt x="202" y="695" on="0"/>
        <pt x="267" y="709" on="0"/>
        <pt x="313" y="709" on="1"/>
        <pt x="343" y="709" on="0"/>
        <pt x="400" y="705" on="0"/>
        <pt x="449" y="699" on="0"/>
        <pt x="484" y="693" on="0"/>
        <pt x="491" y="691" on="1"/>
        <pt x="481" y="578" on="1"/>
        <pt x="465" y="582" on="0"/>
        <pt x="382" y="595" on="0"/>
        <pt x="328" y="595" on="1"/>
        <pt x="306" y="595" on="0"/>
        <pt x="280" y="589" on="0"/>
        <pt x="266" y="578" on="0"/>
        <pt x="262" y="561" on="0"/>
        <pt x="261" y="549" on="1"/>
        <pt x="257" y="500" on="1"/>
        <pt x="511" y="500" on="1"/>
        <pt x="468" y="0" on="1"/>
        <pt x="335" y="0" on="1"/>
        <pt x="368" y="387" on="1"/>
        <pt x="247" y="387" on="1"/>
        <pt x="212" y="-13" on="1"/>
        <pt x="208" y="-63" on="0"/>
        <pt x="185" y="-126" on="0"/>
        <pt x="143" y="-163" on="0"/>
        <pt x="81" y="-177" on="0"/>
        <pt x="39" y="-177" on="1"/>
        <pt x="16" y="-177" on="0"/>
        <pt x="-25" y="-174" on="0"/>
        <pt x="-45" y="-172" on="1"/>
        <pt x="-35" y="-59" on="1"/>
        <pt x="-22" y="-61" on="0"/>
        <pt x="16" y="-63" on="0"/>
        <pt x="27" y="-63" on="1"/>
        <pt x="54" y="-63" on="0"/>
        <pt x="76" y="-44" on="0"/>
        <pt x="78" y="-18" on="1"/>
      </contour>
    </TTGlyph>
    <TTGlyph name="five" xMin="50" yMin="-9" xMax="434" yMax="700">
      <contour>
        <pt x="244" y="587" on="1"/>
        <pt x="231" y="441" on="1"/>
        <pt x="236" y="441" on="1"/>
        <pt x="281" y="441" on="0"/>
        <pt x="348" y="423" on="0"/>
        <pt x="392" y="383" on="0"/>
        <pt x="414" y="316" on="0"/>
        <pt x="414" y="268" on="1"/>
        <pt x="414" y="187" on="0"/>
        <pt x="382" y="80" on="0"/>
        <pt x="325" y="17" on="0"/>
        <pt x="246" y="-9" on="0"/>
        <pt x="199" y="-9" on="1"/>
        <pt x="180" y="-9" on="0"/>
        <pt x="137" y="-6" on="0"/>
        <pt x="96" y="-1" on="0"/>
        <pt x="61" y="5" on="0"/>
        <pt x="50" y="7" on="1"/>
        <pt x="60" y="121" on="1"/>
        <pt x="74" y="118" on="0"/>
        <pt x="146" y="103" on="0"/>
        <pt x="188" y="103" on="1"/>
        <pt x="236" y="103" on="0"/>
        <pt x="279" y="179" on="0"/>
        <pt x="279" y="248" on="1"/>
        <pt x="279" y="276" on="0"/>
        <pt x="269" y="310" on="0"/>
        <pt x="250" y="329" on="0"/>
        <pt x="222" y="335" on="0"/>
        <pt x="205" y="335" on="1"/>
        <pt x="89" y="335" on="1"/>
        <pt x="121" y="700" on="1"/>
        <pt x="434" y="700" on="1"/>
        <pt x="424" y="587" on="1"/>
      </contour>
    </TTGlyph>
    <TTGlyph name="fl" xMin="-45" yMin="-177" xMax="544" yMax="709">
      <contour>
        <pt x="535" y="3" on="1"/>
        <pt x="524" y="1" on="0"/>
        <pt x="472" y="-5" on="0"/>
        <pt x="443" y="-5" on="1"/>
        <pt x="386" y="-5" on="0"/>
        <pt x="345" y="47" on="0"/>
        <pt x="345" y="101" on="1"/>
        <pt x="345" y="112" on="0"/>
        <pt x="346" y="135" on="0"/>
        <pt x="347" y="148" on="1"/>
        <pt x="368" y="387" on="1"/>
        <pt x="247" y="387" on="1"/>
        <pt x="212" y="-13" on="1"/>
        <pt x="208" y="-63" on="0"/>
        <pt x="185" y="-126" on="0"/>
        <pt x="143" y="-163" on="0"/>
        <pt x="81" y="-177" on="0"/>
        <pt x="39" y="-177" on="1"/>
        <pt x="16" y="-177" on="0"/>
        <pt x="-25" y="-174" on="0"/>
        <pt x="-45" y="-172" on="1"/>
        <pt x="-35" y="-59" on="1"/>
        <pt x="-22" y="-61" on="0"/>
        <pt x="16" y="-63" on="0"/>
        <pt x="27" y="-63" on="1"/>
        <pt x="54" y="-63" on="0"/>
        <pt x="76" y="-44" on="0"/>
        <pt x="78" y="-18" on="1"/>
        <pt x="113" y="387" on="1"/>
        <pt x="48" y="387" on="1"/>
        <pt x="58" y="500" on="1"/>
        <pt x="123" y="500" on="1"/>
        <pt x="127" y="540" on="1"/>
        <pt x="132" y="591" on="0"/>
        <pt x="157" y="657" on="0"/>
        <pt x="202" y="695" on="0"/>
        <pt x="267" y="709" on="0"/>
        <pt x="313" y="709" on="1"/>
        <pt x="334" y="709" on="0"/>
        <pt x="380" y="704" on="0"/>
        <pt x="396" y="700" on="1"/>
        <pt x="529" y="700" on="1"/>
        <pt x="483" y="176" on="1"/>
        <pt x="480" y="146" on="0"/>
        <pt x="480" y="139" on="1"/>
        <pt x="480" y="123" on="0"/>
        <pt x="492" y="110" on="0"/>
        <pt x="508" y="110" on="1"/>
        <pt x="519" y="110" on="0"/>
        <pt x="540" y="113" on="0"/>
        <pt x="544" y="114" on="1"/>
      </contour>
      <contour>
        <pt x="257" y="500" on="1"/>
        <pt x="378" y="500" on="1"/>
        <pt x="386" y="592" on="1"/>
        <pt x="359" y="595" on="0"/>
        <pt x="328" y="595" on="1"/>
        <pt x="306" y="595" on="0"/>
        <pt x="280" y="589" on="0"/>
        <pt x="266" y="578" on="0"/>
        <pt x="262" y="561" on="0"/>
        <pt x="261" y="549" on="1"/>
      </contour>
    </TTGlyph>
    <TTGlyph name="florin" xMin="-45" yMin="-177" xMax="401" yMax="709">
      <contour>
        <pt x="113" y="387" on="1"/>
        <pt x="48" y="387" on="1"/>
        <pt x="58" y="500" on="1"/>
        <pt x="123" y="500" on="1"/>
        <pt x="127" y="540" on="1"/>
        <pt x="132" y="591" on="0"/>
        <pt x="156" y="657" on="0"/>
        <pt x="195" y="695" on="0"/>
        <pt x="253" y="709" on="0"/>
        <pt x="293" y="709" on="1"/>
        <pt x="325" y="709" on="0"/>
        <pt x="387" y="700" on="0"/>
        <pt x="401" y="697" on="1"/>
        <pt x="392" y="584" on="1"/>
        <pt x="376" y="588" on="0"/>
        <pt x="335" y="595" on="0"/>
        <pt x="308" y="595" on="1"/>
        <pt x="283" y="595" on="0"/>
        <pt x="263" y="570" on="0"/>
        <pt x="261" y="549" on="1"/>
        <pt x="257" y="500" on="1"/>
        <pt x="365" y="500" on="1"/>
        <pt x="355" y="387" on="1"/>
        <pt x="247" y="387" on="1"/>
        <pt x="212" y="-13" on="1"/>
        <pt x="208" y="-63" on="0"/>
        <pt x="185" y="-126" on="0"/>
        <pt x="143" y="-163" on="0"/>
        <pt x="81" y="-177" on="0"/>
        <pt x="39" y="-177" on="1"/>
        <pt x="16" y="-177" on="0"/>
        <pt x="-25" y="-174" on="0"/>
        <pt x="-45" y="-172" on="1"/>
        <pt x="-35" y="-59" on="1"/>
        <pt x="-22" y="-61" on="0"/>
        <pt x="16" y="-63" on="0"/>
        <pt x="27" y="-63" on="1"/>
        <pt x="54" y="-63" on="0"/>
        <pt x="76" y="-44" on="0"/>
        <pt x="78" y="-18" on="1"/>
      </contour>
    </TTGlyph>
    <TTGlyph name="four" xMin="53" yMin="0" xMax="451" yMax="700">
      <contour>
        <pt x="381" y="156" on="1"/>
        <pt x="368" y="0" on="1"/>
        <pt x="233" y="0" on="1"/>
        <pt x="246" y="156" on="1"/>
        <pt x="53" y="156" on="1"/>
        <pt x="64" y="282" on="1"/>
        <pt x="195" y="700" on="1"/>
        <pt x="325" y="700" on="1"/>
        <pt x="190" y="269" on="1"/>
        <pt x="256" y="269" on="1"/>
        <pt x="295" y="457" on="1"/>
        <pt x="407" y="457" on="1"/>
        <pt x="391" y="269" on="1"/>
        <pt x="451" y="269" on="1"/>
        <pt x="441" y="156" on="1"/>
      </contour>
    </TTGlyph>
    <TTGlyph name="fraction" xMin="-118" yMin="-100" xMax="389" yMax="810">
      <contour>
        <pt x="0" y="-100" on="1"/>
        <pt x="-118" y="-100" on="1"/>
        <pt x="270" y="810" on="1"/>
        <pt x="389" y="810" on="1"/>
      </contour>
    </TTGlyph>
    <TTGlyph name="g" xMin="60" yMin="-192" xMax="494" yMax="509">
      <contour>
        <pt x="453" y="20" on="1"/>
        <pt x="448" y="-40" on="0"/>
        <pt x="419" y="-121" on="0"/>
        <pt x="368" y="-171" on="0"/>
        <pt x="292" y="-192" on="0"/>
        <pt x="241" y="-192" on="1"/>
        <pt x="222" y="-192" on="0"/>
        <pt x="180" y="-189" on="0"/>
        <pt x="139" y="-184" on="0"/>
        <pt x="102" y="-178" on="0"/>
        <pt x="88" y="-175" on="1"/>
        <pt x="98" y="-67" on="1"/>
        <pt x="131" y="-74" on="0"/>
        <pt x="191" y="-84" on="0"/>
        <pt x="226" y="-84" on="1"/>
        <pt x="276" y="-84" on="0"/>
        <pt x="316" y="-41" on="0"/>
        <pt x="320" y="10" on="1"/>
        <pt x="323" y="49" on="1"/>
        <pt x="299" y="26" on="0"/>
        <pt x="239" y="1" on="0"/>
        <pt x="201" y="1" on="1"/>
        <pt x="128" y="1" on="0"/>
        <pt x="60" y="79" on="0"/>
        <pt x="60" y="175" on="1"/>
        <pt x="60" y="271" on="0"/>
        <pt x="92" y="399" on="0"/>
        <pt x="156" y="476" on="0"/>
        <pt x="256" y="509" on="0"/>
        <pt x="323" y="509" on="1"/>
        <pt x="370" y="509" on="0"/>
        <pt x="451" y="496" on="0"/>
        <pt x="494" y="485" on="1"/>
        <pt x="453" y="20" on="1"/>
      </contour>
      <contour>
        <pt x="246" y="115" on="1"/>
        <pt x="266" y="115" on="0"/>
        <pt x="299" y="135" on="0"/>
        <pt x="323" y="166" on="0"/>
        <pt x="337" y="204" on="0"/>
        <pt x="338" y="222" on="1"/>
        <pt x="352" y="392" on="1"/>
        <pt x="340" y="394" on="0"/>
        <pt x="315" y="395" on="0"/>
        <pt x="304" y="395" on="1"/>
        <pt x="282" y="395" on="0"/>
        <pt x="242" y="380" on="0"/>
        <pt x="212" y="335" on="0"/>
        <pt x="195" y="253" on="0"/>
        <pt x="195" y="187" on="1"/>
        <pt x="195" y="143" on="0"/>
        <pt x="219" y="115" on="0"/>
      </contour>
    </TTGlyph>
    <TTGlyph name="germandbls" xMin="55" yMin="-9" xMax="497" yMax="709">
      <contour>
        <pt x="497" y="187" on="1"/>
        <pt x="497" y="130" on="0"/>
        <pt x="469" y="55" on="0"/>
        <pt x="418" y="10" on="0"/>
        <pt x="347" y="-9" on="0"/>
        <pt x="304" y="-9" on="1"/>
        <pt x="295" y="-9" on="0"/>
        <pt x="272" y="-8" on="0"/>
        <pt x="246" y="-5" on="0"/>
        <pt x="222" y="-2" on="0"/>
        <pt x="213" y="0" on="1"/>
        <pt x="222" y="114" on="1"/>
        <pt x="236" y="109" on="0"/>
        <pt x="277" y="103" on="0"/>
        <pt x="287" y="103" on="1"/>
        <pt x="328" y="103" on="0"/>
        <pt x="359" y="139" on="0"/>
        <pt x="359" y="174" on="1"/>
        <pt x="359" y="200" on="0"/>
        <pt x="331" y="228" on="0"/>
        <pt x="302" y="239" on="1"/>
        <pt x="264" y="254" on="0"/>
        <pt x="232" y="312" on="0"/>
        <pt x="232" y="350" on="1"/>
        <pt x="232" y="378" on="0"/>
        <pt x="248" y="429" on="0"/>
        <pt x="279" y="469" on="0"/>
        <pt x="324" y="495" on="0"/>
        <pt x="352" y="496" on="1"/>
        <pt x="359" y="508" on="0"/>
        <pt x="365" y="541" on="0"/>
        <pt x="365" y="550" on="1"/>
        <pt x="365" y="572" on="0"/>
        <pt x="339" y="597" on="0"/>
        <pt x="304" y="597" on="1"/>
        <pt x="268" y="597" on="0"/>
        <pt x="237" y="556" on="0"/>
        <pt x="233" y="510" on="1"/>
        <pt x="189" y="0" on="1"/>
        <pt x="55" y="0" on="1"/>
        <pt x="99" y="503" on="1"/>
        <pt x="103" y="545" on="0"/>
        <pt x="125" y="619" on="0"/>
        <pt x="174" y="676" on="0"/>
        <pt x="253" y="709" on="0"/>
        <pt x="314" y="709" on="1"/>
        <pt x="351" y="709" on="0"/>
        <pt x="414" y="690" on="0"/>
        <pt x="461" y="655" on="0"/>
        <pt x="487" y="604" on="0"/>
        <pt x="487" y="572" on="1"/>
        <pt x="487" y="532" on="0"/>
        <pt x="469" y="454" on="0"/>
        <pt x="458" y="412" on="1"/>
        <pt x="404" y="412" on="0"/>
        <pt x="362" y="390" on="0"/>
        <pt x="362" y="363" on="1"/>
        <pt x="362" y="340" on="0"/>
        <pt x="393" y="329" on="1"/>
        <pt x="437" y="314" on="0"/>
        <pt x="497" y="249" on="0"/>
      </contour>
    </TTGlyph>
    <TTGlyph name="grave" xMin="77" yMin="580" xMax="328" yMax="715">
      <contour>
        <pt x="222" y="580" on="1"/>
        <pt x="77" y="715" on="1"/>
        <pt x="236" y="715" on="1"/>
        <pt x="328" y="580" on="1"/>
      </contour>
    </TTGlyph>
    <TTGlyph name="greater" xMin="72" yMin="86" xMax="501" yMax="583">
      <contour>
        <pt x="72" y="86" on="1"/>
        <pt x="84" y="220" on="1"/>
        <pt x="393" y="337" on="1"/>
        <pt x="104" y="453" on="1"/>
        <pt x="116" y="583" on="1"/>
        <pt x="501" y="414" on="1"/>
        <pt x="486" y="251" on="1"/>
      </contour>
    </TTGlyph>
    <TTGlyph name="greaterequal" xMin="65" yMin="0" xMax="502" yMax="583">
      <contour>
        <pt x="65" y="0" on="1"/>
        <pt x="75" y="115" on="1"/>
        <pt x="475" y="115" on="1"/>
        <pt x="465" y="0" on="1"/>
      </contour>
      <contour>
        <pt x="76" y="136" on="1"/>
        <pt x="88" y="271" on="1"/>
        <pt x="384" y="351" on="1"/>
        <pt x="104" y="454" on="1"/>
        <pt x="116" y="583" on="1"/>
        <pt x="502" y="427" on="1"/>
        <pt x="488" y="264" on="1"/>
      </contour>
    </TTGlyph>
    <TTGlyph name="guillemotleft" xMin="66" yMin="92" xMax="450" yMax="506">
      <contour>
        <pt x="135" y="92" on="1"/>
        <pt x="66" y="299" on="1"/>
        <pt x="171" y="506" on="1"/>
        <pt x="280" y="506" on="1"/>
        <pt x="200" y="299" on="1"/>
        <pt x="242" y="92" on="1"/>
      </contour>
      <contour>
        <pt x="305" y="92" on="1"/>
        <pt x="236" y="299" on="1"/>
        <pt x="341" y="506" on="1"/>
        <pt x="450" y="506" on="1"/>
        <pt x="370" y="299" on="1"/>
        <pt x="412" y="92" on="1"/>
      </contour>
    </TTGlyph>
    <TTGlyph name="guillemotright" xMin="47" yMin="92" xMax="431" yMax="506">
      <contour>
        <pt x="217" y="92" on="1"/>
        <pt x="297" y="299" on="1"/>
        <pt x="255" y="506" on="1"/>
        <pt x="362" y="506" on="1"/>
        <pt x="431" y="299" on="1"/>
        <pt x="326" y="92" on="1"/>
      </contour>
      <contour>
        <pt x="47" y="92" on="1"/>
        <pt x="127" y="299" on="1"/>
        <pt x="85" y="506" on="1"/>
        <pt x="192" y="506" on="1"/>
        <pt x="261" y="299" on="1"/>
        <pt x="156" y="92" on="1"/>
      </contour>
    </TTGlyph>
    <TTGlyph name="guilsinglleft" xMin="66" yMin="92" xMax="278" yMax="506">
      <contour>
        <pt x="135" y="92" on="1"/>
        <pt x="66" y="299" on="1"/>
        <pt x="171" y="506" on="1"/>
        <pt x="278" y="506" on="1"/>
        <pt x="200" y="299" on="1"/>
        <pt x="244" y="92" on="1"/>
      </contour>
    </TTGlyph>
    <TTGlyph name="guilsinglright" xMin="47" yMin="92" xMax="261" yMax="506">
      <contour>
        <pt x="47" y="92" on="1"/>
        <pt x="127" y="299" on="1"/>
        <pt x="85" y="506" on="1"/>
        <pt x="192" y="506" on="1"/>
        <pt x="261" y="299" on="1"/>
        <pt x="156" y="92" on="1"/>
      </contour>
    </TTGlyph>
    <TTGlyph name="h" xMin="55" yMin="0" xMax="483" yMax="700">
      <contour>
        <pt x="55" y="0" on="1"/>
        <pt x="116" y="700" on="1"/>
        <pt x="249" y="700" on="1"/>
        <pt x="228" y="463" on="1"/>
        <pt x="251" y="484" on="0"/>
        <pt x="311" y="509" on="0"/>
        <pt x="347" y="509" on="1"/>
        <pt x="423" y="509" on="0"/>
        <pt x="483" y="436" on="0"/>
        <pt x="483" y="358" on="1"/>
        <pt x="483" y="347" on="0"/>
        <pt x="482" y="326" on="0"/>
        <pt x="480" y="300" on="1"/>
        <pt x="454" y="0" on="1"/>
        <pt x="321" y="0" on="1"/>
        <pt x="347" y="303" on="1"/>
        <pt x="348" y="310" on="0"/>
        <pt x="349" y="331" on="0"/>
        <pt x="349" y="336" on="1"/>
        <pt x="349" y="371" on="0"/>
        <pt x="324" y="394" on="0"/>
        <pt x="300" y="394" on="1"/>
        <pt x="281" y="394" on="0"/>
        <pt x="251" y="374" on="0"/>
        <pt x="228" y="343" on="0"/>
        <pt x="215" y="305" on="0"/>
        <pt x="213" y="287" on="1"/>
        <pt x="188" y="0" on="1"/>
      </contour>
    </TTGlyph>
    <TTGlyph name="hungarumlaut" xMin="67" yMin="598" xMax="548" yMax="745">
      <contour>
        <pt x="173" y="598" on="1"/>
        <pt x="67" y="598" on="1"/>
        <pt x="183" y="745" on="1"/>
        <pt x="353" y="745" on="1"/>
      </contour>
      <contour>
        <pt x="368" y="598" on="1"/>
        <pt x="262" y="598" on="1"/>
        <pt x="378" y="745" on="1"/>
        <pt x="548" y="745" on="1"/>
      </contour>
    </TTGlyph>
    <TTGlyph name="hyphen" xMin="86" yMin="245" xMax="441" yMax="360">
      <contour>
        <pt x="86" y="245" on="1"/>
        <pt x="96" y="360" on="1"/>
        <pt x="441" y="360" on="1"/>
        <pt x="431" y="245" on="1"/>
      </contour>
    </TTGlyph>
    <TTGlyph name="i" xMin="55" yMin="0" xMax="254" yMax="700">
      <contour>
        <pt x="101" y="585" on="1"/>
        <pt x="111" y="700" on="1"/>
        <pt x="254" y="700" on="1"/>
        <pt x="244" y="585" on="1"/>
      </contour>
      <contour>
        <pt x="55" y="0" on="1"/>
        <pt x="98" y="500" on="1"/>
        <pt x="231" y="500" on="1"/>
        <pt x="188" y="0" on="1"/>
      </contour>
    </TTGlyph>
    <TTGlyph name="iacute" xMin="55" yMin="0" xMax="351" yMax="715">
      <contour>
        <pt x="55" y="0" on="1"/>
        <pt x="98" y="500" on="1"/>
        <pt x="231" y="500" on="1"/>
        <pt x="188" y="0" on="1"/>
      </contour>
      <contour>
        <pt x="76" y="580" on="1"/>
        <pt x="187" y="715" on="1"/>
        <pt x="351" y="715" on="1"/>
        <pt x="187" y="580" on="1"/>
      </contour>
    </TTGlyph>
    <TTGlyph name="icircumflex" xMin="-25" yMin="0" xMax="368" yMax="715">
      <contour>
        <pt x="55" y="0" on="1"/>
        <pt x="98" y="500" on="1"/>
        <pt x="231" y="500" on="1"/>
        <pt x="188" y="0" on="1"/>
      </contour>
      <contour>
        <pt x="224" y="580" on="1"/>
        <pt x="181" y="654" on="1"/>
        <pt x="124" y="580" on="1"/>
        <pt x="-25" y="580" on="1"/>
        <pt x="109" y="715" on="1"/>
        <pt x="257" y="715" on="1"/>
        <pt x="368" y="580" on="1"/>
      </contour>
    </TTGlyph>
    <TTGlyph name="idieresis" xMin="5" yMin="0" xMax="346" yMax="675">
      <contour>
        <pt x="55" y="0" on="1"/>
        <pt x="98" y="500" on="1"/>
        <pt x="231" y="500" on="1"/>
        <pt x="188" y="0" on="1"/>
      </contour>
      <contour>
        <pt x="205" y="560" on="1"/>
        <pt x="216" y="675" on="1"/>
        <pt x="346" y="675" on="1"/>
        <pt x="335" y="560" on="1"/>
      </contour>
      <contour>
        <pt x="5" y="560" on="1"/>
        <pt x="16" y="675" on="1"/>
        <pt x="146" y="675" on="1"/>
        <pt x="135" y="560" on="1"/>
      </contour>
    </TTGlyph>
    <TTGlyph name="igrave" xMin="13" yMin="0" xMax="264" yMax="715">
      <contour>
        <pt x="55" y="0" on="1"/>
        <pt x="98" y="500" on="1"/>
        <pt x="231" y="500" on="1"/>
        <pt x="188" y="0" on="1"/>
      </contour>
      <contour>
        <pt x="158" y="580" on="1"/>
        <pt x="13" y="715" on="1"/>
        <pt x="172" y="715" on="1"/>
        <pt x="264" y="580" on="1"/>
      </contour>
    </TTGlyph>
    <TTGlyph name="infinity" xMin="51" yMin="156" xMax="714" yMax="504">
      <contour>
        <pt x="255" y="504" on="1"/>
        <pt x="289" y="504" on="0"/>
        <pt x="364" y="473" on="0"/>
        <pt x="387" y="439" on="1"/>
        <pt x="411" y="467" on="0"/>
        <pt x="483" y="504" on="0"/>
        <pt x="542" y="504" on="1"/>
        <pt x="630" y="504" on="0"/>
        <pt x="714" y="421" on="0"/>
        <pt x="714" y="352" on="1"/>
        <pt x="714" y="309" on="0"/>
        <pt x="694" y="237" on="0"/>
        <pt x="646" y="185" on="0"/>
        <pt x="568" y="156" on="0"/>
        <pt x="511" y="156" on="1"/>
        <pt x="476" y="156" on="0"/>
        <pt x="401" y="187" on="0"/>
        <pt x="378" y="220" on="1"/>
        <pt x="354" y="193" on="0"/>
        <pt x="282" y="156" on="0"/>
        <pt x="224" y="156" on="1"/>
        <pt x="136" y="156" on="0"/>
        <pt x="51" y="240" on="0"/>
        <pt x="51" y="309" on="1"/>
        <pt x="51" y="352" on="0"/>
        <pt x="72" y="423" on="0"/>
        <pt x="120" y="475" on="0"/>
        <pt x="198" y="504" on="0"/>
      </contour>
      <contour>
        <pt x="522" y="259" on="1"/>
        <pt x="550" y="259" on="0"/>
        <pt x="595" y="299" on="0"/>
        <pt x="595" y="341" on="1"/>
        <pt x="595" y="372" on="0"/>
        <pt x="559" y="401" on="0"/>
        <pt x="535" y="401" on="1"/>
        <pt x="499" y="401" on="0"/>
        <pt x="447" y="369" on="0"/>
        <pt x="442" y="320" on="1"/>
        <pt x="445" y="301" on="0"/>
        <pt x="463" y="278" on="0"/>
        <pt x="485" y="264" on="0"/>
        <pt x="510" y="259" on="0"/>
      </contour>
      <contour>
        <pt x="244" y="401" on="1"/>
        <pt x="231" y="401" on="0"/>
        <pt x="205" y="391" on="0"/>
        <pt x="184" y="372" on="0"/>
        <pt x="171" y="342" on="0"/>
        <pt x="171" y="322" on="1"/>
        <pt x="171" y="290" on="0"/>
        <pt x="207" y="259" on="0"/>
        <pt x="231" y="259" on="1"/>
        <pt x="267" y="259" on="0"/>
        <pt x="319" y="291" on="0"/>
        <pt x="323" y="340" on="1"/>
        <pt x="320" y="359" on="0"/>
        <pt x="303" y="383" on="0"/>
        <pt x="281" y="396" on="0"/>
        <pt x="256" y="401" on="0"/>
      </contour>
    </TTGlyph>
    <TTGlyph name="integral" xMin="-55" yMin="-242" xMax="406" yMax="829">
      <contour>
        <pt x="396" y="704" on="1"/>
        <pt x="381" y="708" on="0"/>
        <pt x="340" y="715" on="0"/>
        <pt x="313" y="715" on="1"/>
        <pt x="290" y="715" on="0"/>
        <pt x="268" y="690" on="0"/>
        <pt x="266" y="669" on="1"/>
        <pt x="201" y="-78" on="1"/>
        <pt x="197" y="-126" on="0"/>
        <pt x="173" y="-189" on="0"/>
        <pt x="131" y="-226" on="0"/>
        <pt x="70" y="-242" on="0"/>
        <pt x="28" y="-242" on="1"/>
        <pt x="4" y="-242" on="0"/>
        <pt x="-35" y="-239" on="0"/>
        <pt x="-55" y="-237" on="1"/>
        <pt x="-45" y="-125" on="1"/>
        <pt x="-33" y="-127" on="0"/>
        <pt x="4" y="-128" on="0"/>
        <pt x="16" y="-128" on="1"/>
        <pt x="43" y="-128" on="0"/>
        <pt x="65" y="-109" on="0"/>
        <pt x="67" y="-83" on="1"/>
        <pt x="132" y="660" on="1"/>
        <pt x="137" y="711" on="0"/>
        <pt x="161" y="777" on="0"/>
        <pt x="203" y="815" on="0"/>
        <pt x="261" y="829" on="0"/>
        <pt x="298" y="829" on="1"/>
        <pt x="330" y="829" on="0"/>
        <pt x="391" y="820" on="0"/>
        <pt x="406" y="817" on="1"/>
      </contour>
    </TTGlyph>
    <TTGlyph name="j" xMin="-70" yMin="-177" xMax="254" yMax="700">
      <contour>
        <pt x="186" y="-13" on="1"/>
        <pt x="181" y="-63" on="0"/>
        <pt x="158" y="-127" on="0"/>
        <pt x="117" y="-163" on="0"/>
        <pt x="56" y="-177" on="0"/>
        <pt x="14" y="-177" on="1"/>
        <pt x="-9" y="-177" on="0"/>
        <pt x="-50" y="-174" on="0"/>
        <pt x="-70" y="-172" on="1"/>
        <pt x="-60" y="-60" on="1"/>
        <pt x="-47" y="-62" on="0"/>
        <pt x="-9" y="-63" on="0"/>
        <pt x="2" y="-63" on="1"/>
        <pt x="29" y="-63" on="0"/>
        <pt x="51" y="-44" on="0"/>
        <pt x="53" y="-18" on="1"/>
        <pt x="98" y="500" on="1"/>
        <pt x="231" y="500" on="1"/>
      </contour>
      <contour>
        <pt x="101" y="585" on="1"/>
        <pt x="111" y="700" on="1"/>
        <pt x="254" y="700" on="1"/>
        <pt x="244" y="585" on="1"/>
      </contour>
    </TTGlyph>
    <TTGlyph name="k" xMin="55" yMin="0" xMax="503" yMax="700">
      <contour>
        <pt x="322" y="0" on="1"/>
        <pt x="227" y="204" on="1"/>
        <pt x="203" y="175" on="1"/>
        <pt x="188" y="0" on="1"/>
        <pt x="55" y="0" on="1"/>
        <pt x="116" y="700" on="1"/>
        <pt x="249" y="700" on="1"/>
        <pt x="219" y="357" on="1"/>
        <pt x="347" y="500" on="1"/>
        <pt x="503" y="500" on="1"/>
        <pt x="318" y="299" on="1"/>
        <pt x="470" y="0" on="1"/>
      </contour>
    </TTGlyph>
    <TTGlyph name="l" xMin="65" yMin="-5" xMax="264" yMax="700">
      <contour>
        <pt x="255" y="3" on="1"/>
        <pt x="244" y="1" on="0"/>
        <pt x="192" y="-5" on="0"/>
        <pt x="163" y="-5" on="1"/>
        <pt x="106" y="-5" on="0"/>
        <pt x="65" y="47" on="0"/>
        <pt x="65" y="101" on="1"/>
        <pt x="65" y="112" on="0"/>
        <pt x="66" y="135" on="0"/>
        <pt x="67" y="148" on="1"/>
        <pt x="116" y="700" on="1"/>
        <pt x="249" y="700" on="1"/>
        <pt x="203" y="176" on="1"/>
        <pt x="200" y="146" on="0"/>
        <pt x="200" y="139" on="1"/>
        <pt x="200" y="123" on="0"/>
        <pt x="212" y="110" on="0"/>
        <pt x="228" y="110" on="1"/>
        <pt x="239" y="110" on="0"/>
        <pt x="260" y="113" on="0"/>
        <pt x="264" y="114" on="1"/>
      </contour>
    </TTGlyph>
    <TTGlyph name="less" xMin="86" yMin="86" xMax="516" yMax="583">
      <contour>
        <pt x="86" y="251" on="1"/>
        <pt x="101" y="414" on="1"/>
        <pt x="516" y="583" on="1"/>
        <pt x="504" y="451" on="1"/>
        <pt x="195" y="335" on="1"/>
        <pt x="484" y="218" on="1"/>
        <pt x="472" y="86" on="1"/>
      </contour>
    </TTGlyph>
    <TTGlyph name="lessequal" xMin="65" yMin="0" xMax="516" yMax="583">
      <contour>
        <pt x="65" y="0" on="1"/>
        <pt x="75" y="115" on="1"/>
        <pt x="475" y="115" on="1"/>
        <pt x="465" y="0" on="1"/>
      </contour>
      <contour>
        <pt x="88" y="264" on="1"/>
        <pt x="102" y="427" on="1"/>
        <pt x="516" y="583" on="1"/>
        <pt x="504" y="450" on="1"/>
        <pt x="206" y="347" on="1"/>
        <pt x="488" y="267" on="1"/>
        <pt x="476" y="136" on="1"/>
      </contour>
    </TTGlyph>
    <TTGlyph name="logicaland" xMin="61" yMin="244" xMax="222" yMax="374">
      <contour>
        <pt x="61" y="244" on="1"/>
        <pt x="72" y="374" on="1"/>
        <pt x="222" y="374" on="1"/>
        <pt x="211" y="244" on="1"/>
      </contour>
    </TTGlyph>
    <TTGlyph name="logicalnot" xMin="71" yMin="106" xMax="536" yMax="360">
      <contour>
        <pt x="394" y="106" on="1"/>
        <pt x="405" y="245" on="1"/>
        <pt x="71" y="245" on="1"/>
        <pt x="81" y="360" on="1"/>
        <pt x="536" y="360" on="1"/>
        <pt x="514" y="106" on="1"/>
      </contour>
    </TTGlyph>
    <TTGlyph name="lozenge" xMin="45" yMin="0" xMax="489" yMax="700">
      <contour>
        <pt x="330" y="0" on="1"/>
        <pt x="142" y="0" on="1"/>
        <pt x="45" y="350" on="1"/>
        <pt x="205" y="700" on="1"/>
        <pt x="391" y="700" on="1"/>
        <pt x="489" y="350" on="1"/>
      </contour>
      <contour>
        <pt x="291" y="597" on="1"/>
        <pt x="185" y="350" on="1"/>
        <pt x="244" y="103" on="1"/>
        <pt x="349" y="350" on="1"/>
      </contour>
    </TTGlyph>
    <TTGlyph name="lslash" xMin="40" yMin="-5" xMax="308" yMax="700">
      <contour>
        <pt x="265" y="3" on="1"/>
        <pt x="254" y="1" on="0"/>
        <pt x="202" y="-5" on="0"/>
        <pt x="173" y="-5" on="1"/>
        <pt x="116" y="-5" on="0"/>
        <pt x="75" y="47" on="0"/>
        <pt x="75" y="101" on="1"/>
        <pt x="75" y="112" on="0"/>
        <pt x="76" y="135" on="0"/>
        <pt x="77" y="148" on="1"/>
        <pt x="92" y="319" on="1"/>
        <pt x="40" y="290" on="1"/>
        <pt x="50" y="408" on="1"/>
        <pt x="102" y="438" on="1"/>
        <pt x="126" y="700" on="1"/>
        <pt x="259" y="700" on="1"/>
        <pt x="243" y="518" on="1"/>
        <pt x="308" y="555" on="1"/>
        <pt x="298" y="435" on="1"/>
        <pt x="232" y="398" on="1"/>
        <pt x="213" y="176" on="1"/>
        <pt x="210" y="146" on="0"/>
        <pt x="210" y="139" on="1"/>
        <pt x="210" y="123" on="0"/>
        <pt x="222" y="110" on="0"/>
        <pt x="238" y="110" on="1"/>
        <pt x="249" y="110" on="0"/>
        <pt x="270" y="113" on="0"/>
        <pt x="274" y="114" on="1"/>
      </contour>
    </TTGlyph>
    <TTGlyph name="m" xMin="55" yMin="0" xMax="709" yMax="509">
      <contour>
        <pt x="55" y="0" on="1"/>
        <pt x="98" y="500" on="1"/>
        <pt x="206" y="500" on="1"/>
        <pt x="211" y="449" on="1"/>
        <pt x="234" y="475" on="0"/>
        <pt x="297" y="509" on="0"/>
        <pt x="337" y="509" on="1"/>
        <pt x="382" y="509" on="0"/>
        <pt x="436" y="482" on="0"/>
        <pt x="449" y="451" on="1"/>
        <pt x="474" y="477" on="0"/>
        <pt x="539" y="509" on="0"/>
        <pt x="583" y="509" on="1"/>
        <pt x="652" y="509" on="0"/>
        <pt x="709" y="442" on="0"/>
        <pt x="709" y="364" on="1"/>
        <pt x="709" y="352" on="0"/>
        <pt x="708" y="315" on="0"/>
        <pt x="706" y="300" on="1"/>
        <pt x="680" y="0" on="1"/>
        <pt x="547" y="0" on="1"/>
        <pt x="573" y="303" on="1"/>
        <pt x="574" y="311" on="0"/>
        <pt x="575" y="336" on="0"/>
        <pt x="575" y="343" on="1"/>
        <pt x="575" y="372" on="0"/>
        <pt x="558" y="394" on="0"/>
        <pt x="536" y="394" on="1"/>
        <pt x="520" y="394" on="0"/>
        <pt x="492" y="375" on="0"/>
        <pt x="473" y="346" on="0"/>
        <pt x="461" y="309" on="0"/>
        <pt x="459" y="291" on="1"/>
        <pt x="434" y="0" on="1"/>
        <pt x="301" y="0" on="1"/>
        <pt x="327" y="303" on="1"/>
        <pt x="328" y="311" on="0"/>
        <pt x="329" y="336" on="0"/>
        <pt x="329" y="343" on="1"/>
        <pt x="329" y="372" on="0"/>
        <pt x="312" y="394" on="0"/>
        <pt x="290" y="394" on="1"/>
        <pt x="271" y="394" on="0"/>
        <pt x="243" y="368" on="0"/>
        <pt x="223" y="331" on="0"/>
        <pt x="213" y="287" on="0"/>
        <pt x="211" y="269" on="1"/>
        <pt x="188" y="0" on="1"/>
      </contour>
    </TTGlyph>
    <TTGlyph name="macron" xMin="66" yMin="591" xMax="371" yMax="700">
      <contour>
        <pt x="66" y="591" on="1"/>
        <pt x="76" y="700" on="1"/>
        <pt x="371" y="700" on="1"/>
        <pt x="361" y="591" on="1"/>
      </contour>
    </TTGlyph>
    <TTGlyph name="minus" xMin="81" yMin="245" xMax="501" yMax="360">
      <contour>
        <pt x="81" y="245" on="1"/>
        <pt x="91" y="360" on="1"/>
        <pt x="501" y="360" on="1"/>
        <pt x="491" y="245" on="1"/>
      </contour>
    </TTGlyph>
    <TTGlyph name="mu" xMin="34" yMin="-170" xMax="486" yMax="500">
      <contour>
        <pt x="226" y="500" on="1"/>
        <pt x="198" y="189" on="1"/>
        <pt x="197" y="182" on="0"/>
        <pt x="197" y="172" on="0"/>
        <pt x="197" y="168" on="1"/>
        <pt x="197" y="159" on="1"/>
        <pt x="197" y="127" on="0"/>
        <pt x="224" y="106" on="0"/>
        <pt x="245" y="106" on="1"/>
        <pt x="266" y="106" on="0"/>
        <pt x="297" y="132" on="0"/>
        <pt x="317" y="169" on="0"/>
        <pt x="329" y="213" on="0"/>
        <pt x="330" y="231" on="1"/>
        <pt x="353" y="500" on="1"/>
        <pt x="486" y="500" on="1"/>
        <pt x="443" y="0" on="1"/>
        <pt x="335" y="0" on="1"/>
        <pt x="330" y="50" on="1"/>
        <pt x="306" y="24" on="0"/>
        <pt x="241" y="-9" on="0"/>
        <pt x="198" y="-9" on="1"/>
        <pt x="193" y="-9" on="0"/>
        <pt x="185" y="-9" on="0"/>
        <pt x="181" y="-8" on="1"/>
        <pt x="167" y="-170" on="1"/>
        <pt x="34" y="-170" on="1"/>
        <pt x="65" y="181" on="1"/>
        <pt x="65" y="189" on="0"/>
        <pt x="66" y="193" on="1"/>
        <pt x="93" y="500" on="1"/>
      </contour>
    </TTGlyph>
    <TTGlyph name="multiply" xMin="103" yMin="98" xMax="507" yMax="502">
      <contour>
        <pt x="220" y="300" on="1"/>
        <pt x="103" y="417" on="1"/>
        <pt x="188" y="502" on="1"/>
        <pt x="305" y="385" on="1"/>
        <pt x="422" y="502" on="1"/>
        <pt x="507" y="417" on="1"/>
        <pt x="390" y="300" on="1"/>
        <pt x="507" y="183" on="1"/>
        <pt x="422" y="98" on="1"/>
        <pt x="305" y="215" on="1"/>
        <pt x="188" y="98" on="1"/>
        <pt x="103" y="183" on="1"/>
      </contour>
    </TTGlyph>
    <TTGlyph name="n" xMin="55" yMin="0" xMax="483" yMax="509">
      <contour>
        <pt x="55" y="0" on="1"/>
        <pt x="98" y="500" on="1"/>
        <pt x="206" y="500" on="1"/>
        <pt x="211" y="447" on="1"/>
        <pt x="236" y="475" on="0"/>
        <pt x="303" y="509" on="0"/>
        <pt x="347" y="509" on="1"/>
        <pt x="423" y="509" on="0"/>
        <pt x="483" y="436" on="0"/>
        <pt x="483" y="358" on="1"/>
        <pt x="483" y="338" on="0"/>
        <pt x="480" y="300" on="1"/>
        <pt x="454" y="0" on="1"/>
        <pt x="321" y="0" on="1"/>
        <pt x="347" y="297" on="1"/>
        <pt x="348" y="305" on="0"/>
        <pt x="349" y="327" on="0"/>
        <pt x="349" y="336" on="1"/>
        <pt x="349" y="371" on="0"/>
        <pt x="324" y="394" on="0"/>
        <pt x="300" y="394" on="1"/>
        <pt x="279" y="394" on="0"/>
        <pt x="247" y="368" on="0"/>
        <pt x="225" y="331" on="0"/>
        <pt x="213" y="287" on="0"/>
        <pt x="211" y="269" on="1"/>
        <pt x="188" y="0" on="1"/>
      </contour>
    </TTGlyph>
    <TTGlyph name="nine" xMin="58" yMin="-9" xMax="450" yMax="709">
      <contour>
        <pt x="60" y="485" on="1"/>
        <pt x="66" y="551" on="0"/>
        <pt x="103" y="637" on="0"/>
        <pt x="162" y="688" on="0"/>
        <pt x="238" y="709" on="0"/>
        <pt x="283" y="709" on="1"/>
        <pt x="321" y="709" on="0"/>
        <pt x="382" y="689" on="0"/>
        <pt x="426" y="634" on="0"/>
        <pt x="450" y="539" on="0"/>
        <pt x="450" y="464" on="1"/>
        <pt x="450" y="460" on="0"/>
        <pt x="449" y="430" on="0"/>
        <pt x="447" y="394" on="0"/>
        <pt x="445" y="363" on="0"/>
        <pt x="445" y="358" on="1"/>
        <pt x="435" y="240" on="0"/>
        <pt x="395" y="96" on="0"/>
        <pt x="331" y="17" on="0"/>
        <pt x="240" y="-9" on="0"/>
        <pt x="178" y="-9" on="1"/>
        <pt x="166" y="-9" on="0"/>
        <pt x="135" y="-7" on="0"/>
        <pt x="105" y="-3" on="0"/>
        <pt x="79" y="1" on="0"/>
        <pt x="72" y="3" on="1"/>
        <pt x="82" y="116" on="1"/>
        <pt x="101" y="111" on="0"/>
        <pt x="156" y="101" on="0"/>
        <pt x="191" y="101" on="1"/>
        <pt x="216" y="101" on="0"/>
        <pt x="252" y="113" on="0"/>
        <pt x="278" y="149" on="0"/>
        <pt x="295" y="214" on="0"/>
        <pt x="302" y="267" on="1"/>
        <pt x="282" y="255" on="0"/>
        <pt x="235" y="241" on="0"/>
        <pt x="209" y="241" on="1"/>
        <pt x="127" y="241" on="0"/>
        <pt x="58" y="341" on="0"/>
        <pt x="58" y="432" on="1"/>
        <pt x="58" y="445" on="0"/>
        <pt x="58" y="471" on="0"/>
      </contour>
      <contour>
        <pt x="242" y="349" on="1"/>
        <pt x="262" y="349" on="0"/>
        <pt x="297" y="358" on="0"/>
        <pt x="312" y="366" on="1"/>
        <pt x="316" y="408" on="0"/>
        <pt x="319" y="473" on="0"/>
        <pt x="319" y="498" on="1"/>
        <pt x="319" y="534" on="0"/>
        <pt x="312" y="575" on="0"/>
        <pt x="299" y="595" on="0"/>
        <pt x="279" y="599" on="0"/>
        <pt x="266" y="599" on="1"/>
        <pt x="250" y="599" on="0"/>
        <pt x="222" y="585" on="0"/>
        <pt x="202" y="547" on="0"/>
        <pt x="190" y="483" on="0"/>
        <pt x="190" y="433" on="1"/>
        <pt x="190" y="389" on="0"/>
        <pt x="215" y="349" on="0"/>
      </contour>
    </TTGlyph>
    <TTGlyph name="notequal" xMin="69" yMin="50" xMax="513" yMax="555">
      <contour>
        <pt x="254" y="145" on="1"/>
        <pt x="194" y="50" on="1"/>
        <pt x="69" y="50" on="1"/>
        <pt x="129" y="145" on="1"/>
        <pt x="77" y="145" on="1"/>
        <pt x="87" y="260" on="1"/>
        <pt x="201" y="260" on="1"/>
        <pt x="255" y="345" on="1"/>
        <pt x="95" y="345" on="1"/>
        <pt x="105" y="460" on="1"/>
        <pt x="328" y="460" on="1"/>
        <pt x="388" y="555" on="1"/>
        <pt x="513" y="555" on="1"/>
        <pt x="453" y="460" on="1"/>
        <pt x="505" y="460" on="1"/>
        <pt x="495" y="345" on="1"/>
        <pt x="380" y="345" on="1"/>
        <pt x="326" y="260" on="1"/>
        <pt x="487" y="260" on="1"/>
        <pt x="477" y="145" on="1"/>
      </contour>
    </TTGlyph>
    <TTGlyph name="ntilde" xMin="55" yMin="0" xMax="499" yMax="720">
      <contour>
        <pt x="55" y="0" on="1"/>
        <pt x="98" y="500" on="1"/>
        <pt x="206" y="500" on="1"/>
        <pt x="211" y="447" on="1"/>
        <pt x="236" y="475" on="0"/>
        <pt x="303" y="509" on="0"/>
        <pt x="347" y="509" on="1"/>
        <pt x="423" y="509" on="0"/>
        <pt x="483" y="436" on="0"/>
        <pt x="483" y="358" on="1"/>
        <pt x="483" y="338" on="0"/>
        <pt x="480" y="300" on="1"/>
        <pt x="454" y="0" on="1"/>
        <pt x="321" y="0" on="1"/>
        <pt x="347" y="297" on="1"/>
        <pt x="348" y="305" on="0"/>
        <pt x="349" y="327" on="0"/>
        <pt x="349" y="336" on="1"/>
        <pt x="349" y="371" on="0"/>
        <pt x="324" y="394" on="0"/>
        <pt x="300" y="394" on="1"/>
        <pt x="279" y="394" on="0"/>
        <pt x="247" y="368" on="0"/>
        <pt x="225" y="331" on="0"/>
        <pt x="213" y="287" on="0"/>
        <pt x="211" y="269" on="1"/>
        <pt x="188" y="0" on="1"/>
      </contour>
      <contour>
        <pt x="167" y="688" on="1"/>
        <pt x="191" y="707" on="0"/>
        <pt x="245" y="720" on="0"/>
        <pt x="265" y="720" on="1"/>
        <pt x="283" y="720" on="0"/>
        <pt x="320" y="708" on="0"/>
        <pt x="357" y="693" on="0"/>
        <pt x="391" y="681" on="0"/>
        <pt x="406" y="681" on="1"/>
        <pt x="432" y="681" on="0"/>
        <pt x="478" y="700" on="0"/>
        <pt x="499" y="717" on="1"/>
        <pt x="490" y="612" on="1"/>
        <pt x="469" y="593" on="0"/>
        <pt x="417" y="580" on="0"/>
        <pt x="391" y="580" on="1"/>
        <pt x="372" y="580" on="0"/>
        <pt x="336" y="592" on="0"/>
        <pt x="301" y="607" on="0"/>
        <pt x="267" y="619" on="0"/>
        <pt x="251" y="619" on="1"/>
        <pt x="225" y="619" on="0"/>
        <pt x="175" y="597" on="0"/>
        <pt x="158" y="583" on="1"/>
      </contour>
    </TTGlyph>
    <TTGlyph name="numbersign" xMin="24" yMin="0" xMax="490" yMax="700">
      <contour>
        <pt x="293" y="425" on="1"/>
        <pt x="233" y="425" on="1"/>
        <pt x="221" y="285" on="1"/>
        <pt x="281" y="285" on="1"/>
      </contour>
      <contour>
        <pt x="398" y="170" on="1"/>
        <pt x="384" y="0" on="1"/>
        <pt x="257" y="0" on="1"/>
        <pt x="271" y="170" on="1"/>
        <pt x="211" y="170" on="1"/>
        <pt x="197" y="0" on="1"/>
        <pt x="70" y="0" on="1"/>
        <pt x="84" y="170" on="1"/>
        <pt x="24" y="170" on="1"/>
        <pt x="34" y="285" on="1"/>
        <pt x="94" y="285" on="1"/>
        <pt x="106" y="425" on="1"/>
        <pt x="46" y="425" on="1"/>
        <pt x="56" y="540" on="1"/>
        <pt x="116" y="540" on="1"/>
        <pt x="130" y="700" on="1"/>
        <pt x="257" y="700" on="1"/>
        <pt x="243" y="540" on="1"/>
        <pt x="303" y="540" on="1"/>
        <pt x="317" y="700" on="1"/>
        <pt x="444" y="700" on="1"/>
        <pt x="430" y="540" on="1"/>
        <pt x="490" y="540" on="1"/>
        <pt x="480" y="425" on="1"/>
        <pt x="420" y="425" on="1"/>
        <pt x="408" y="285" on="1"/>
        <pt x="468" y="285" on="1"/>
        <pt x="458" y="170" on="1"/>
      </contour>
    </TTGlyph>
</ttFont>
